G04 EAGLE Gerber RS-274X export*
G75*
%MOMM*%
%FSLAX34Y34*%
%LPD*%
%INSoldermask Bottom*%
%IPPOS*%
%AMOC8*
5,1,8,0,0,1.08239X$1,22.5*%
G01*
%ADD10C,2.235200*%
%ADD11C,2.082800*%
%ADD12P,2.969212X8X22.500000*%
%ADD13C,0.959600*%


D10*
X325120Y434340D03*
X325120Y378460D03*
D11*
X584200Y30480D03*
X558800Y30480D03*
X533400Y30480D03*
D10*
X584200Y88900D03*
X558800Y88900D03*
X533400Y88900D03*
X571500Y774700D03*
X596900Y774700D03*
X723900Y774700D03*
X749300Y774700D03*
X622300Y774700D03*
X647700Y774700D03*
X698500Y774700D03*
X673100Y774700D03*
X749300Y850900D03*
X723900Y850900D03*
X698500Y850900D03*
X673100Y850900D03*
X647700Y850900D03*
X622300Y850900D03*
X596900Y850900D03*
X571500Y850900D03*
X139700Y698500D03*
X139700Y673100D03*
X139700Y546100D03*
X139700Y520700D03*
X139700Y647700D03*
X139700Y622300D03*
X139700Y571500D03*
X139700Y596900D03*
X215900Y520700D03*
X215900Y546100D03*
X215900Y571500D03*
X215900Y596900D03*
X215900Y622300D03*
X215900Y647700D03*
X215900Y673100D03*
X215900Y698500D03*
X266700Y520700D03*
X266700Y571500D03*
X266700Y647700D03*
X76200Y647700D03*
X678180Y139700D03*
X652780Y139700D03*
X627380Y139700D03*
X601980Y139700D03*
X406500Y647800D03*
X406500Y622400D03*
X406500Y597000D03*
X406500Y571600D03*
X406500Y546200D03*
X406500Y520800D03*
X406500Y495400D03*
X406500Y470000D03*
X406500Y444600D03*
X406500Y419200D03*
X406500Y393800D03*
X406500Y368400D03*
X406500Y343000D03*
X406500Y317600D03*
X406500Y292200D03*
X406500Y266800D03*
X406500Y241400D03*
X406500Y216000D03*
X406500Y190600D03*
X658400Y647800D03*
X658400Y622400D03*
X658400Y597000D03*
X658400Y571600D03*
X658400Y546200D03*
X658400Y520800D03*
X658400Y495400D03*
X658400Y470000D03*
X658400Y444600D03*
X658400Y419200D03*
X658400Y393800D03*
X658400Y368400D03*
X658400Y343000D03*
X658400Y317600D03*
X658400Y292200D03*
X658400Y266800D03*
X658400Y241400D03*
X658400Y216000D03*
X658400Y190600D03*
X881380Y381000D03*
X881380Y406400D03*
X881380Y431800D03*
X881380Y457200D03*
X881380Y482600D03*
X881380Y508000D03*
X881380Y533400D03*
X881380Y558800D03*
X881380Y584200D03*
X881380Y609600D03*
X881380Y635000D03*
X881380Y660400D03*
X881380Y685800D03*
X881380Y711200D03*
X805180Y711200D03*
X805180Y685800D03*
X805180Y660400D03*
X805180Y635000D03*
X805180Y609600D03*
X805180Y584200D03*
X805180Y558800D03*
X805180Y533400D03*
X805180Y508000D03*
X805180Y482600D03*
X805180Y457200D03*
X805180Y431800D03*
X805180Y406400D03*
X805180Y381000D03*
X784860Y279400D03*
X911860Y279400D03*
X911860Y241300D03*
X835660Y215900D03*
X883920Y142240D03*
X947420Y190500D03*
X952500Y317500D03*
X495300Y114300D03*
X325120Y495300D03*
X495300Y30480D03*
D12*
X269240Y63500D03*
X226060Y63500D03*
D11*
X312420Y246380D03*
X287020Y246380D03*
X261620Y246380D03*
D10*
X345440Y63500D03*
X426720Y30480D03*
D11*
X736600Y622300D03*
X736600Y596900D03*
X736600Y571500D03*
X736600Y546100D03*
X736600Y520700D03*
X736600Y495300D03*
X739140Y342900D03*
X739140Y317500D03*
X739140Y292100D03*
X739140Y266700D03*
D10*
X914400Y482600D03*
D11*
X469900Y147320D03*
X495300Y147320D03*
D10*
X325120Y464820D03*
D11*
X670560Y30480D03*
X695960Y30480D03*
X721360Y30480D03*
X746760Y30480D03*
X772160Y30480D03*
X797560Y30480D03*
X822960Y30480D03*
X848360Y30480D03*
X873760Y30480D03*
X899160Y30480D03*
D10*
X139700Y749300D03*
D13*
X678180Y127000D03*
X520700Y88900D03*
D10*
X406400Y698500D03*
M02*
