M48
;GenerationSoftware,Autodesk,EAGLE,9.4.1*%
;CreationDate,2019-06-30T16:07:34Z*%
FMAT,2
ICI,OFF
METRIC,TZ,000.000
T5C0.350
T4C0.762
T3C1.000
T2C1.016
T1C1.397
%
G90
M71
T1
X26924Y6350
X22606Y6350
T2
X73660Y52070
X55880Y3048
X53340Y3048
X89916Y3048
X58420Y3048
X31242Y24638
X28702Y24638
X26162Y24638
X73660Y62230
X73660Y59690
X73660Y57150
X73660Y54610
X73660Y49530
X73914Y34290
X73914Y31750
X73914Y29210
X73914Y26670
X46990Y14732
X49530Y14732
X67056Y3048
X69596Y3048
X72136Y3048
X74676Y3048
X77216Y3048
X79756Y3048
X82296Y3048
X84836Y3048
X87376Y3048
T3
X13970Y74930
T4
X13970Y52070
X13970Y64770
X13970Y62230
X13970Y57150
X13970Y59690
X21590Y52070
X21590Y54610
X21590Y57150
X21590Y59690
X21590Y62230
X21590Y64770
X21590Y67310
X21590Y69850
X26670Y52070
X26670Y57150
X26670Y64770
X7620Y64770
X67818Y13970
X65278Y13970
X62738Y13970
X60198Y13970
X40650Y64780
X40650Y62240
X40650Y59700
X40650Y57160
X40650Y54620
X40650Y52080
X40650Y49540
X40650Y47000
X40650Y44460
X40650Y41920
X40650Y39380
X40650Y36840
X40650Y34300
X40650Y31760
X40650Y29220
X40650Y26680
X40650Y24140
X40650Y21600
X40650Y19060
X65840Y64780
X65840Y62240
X65840Y59700
X65840Y57160
X65840Y54620
X65840Y52080
X65840Y49540
X65840Y47000
X67310Y77470
X65840Y41920
X65840Y39380
X65840Y36840
X65840Y34300
X65840Y31760
X65840Y29220
X65840Y26680
X65840Y24140
X65840Y21600
X65840Y19060
X88138Y38100
X88138Y40640
X88138Y43180
X88138Y45720
X88138Y48260
X88138Y50800
X88138Y53340
X88138Y55880
X88138Y58420
X88138Y60960
X88138Y63500
X88138Y66040
X88138Y68580
X88138Y71120
X80518Y71120
X80518Y68580
X80518Y66040
X80518Y63500
X80518Y60960
X80518Y58420
X80518Y55880
X80518Y53340
X80518Y50800
X80518Y48260
X80518Y45720
X80518Y43180
X80518Y40640
X80518Y38100
X78486Y27940
X91186Y27940
X83566Y21590
X88392Y14224
X94742Y19050
X95250Y31750
X49530Y11430
X32512Y49530
X49530Y3048
X40640Y69850
X32512Y43434
X32512Y37846
X58420Y8890
X34544Y6350
X42672Y3048
X55880Y8890
X53340Y8890
X57150Y77470
X59690Y77470
X65840Y44460
X72390Y77470
X74930Y77470
X62230Y77470
X64770Y77470
X69850Y77470
X91440Y48260
X74930Y85090
X72390Y85090
X32512Y46482
X69850Y85090
X67310Y85090
X64770Y85090
X62230Y85090
X59690Y85090
X57150Y85090
X13970Y69850
X13970Y67310
X13970Y54610
X91186Y24130
T5
X52070Y8890
X67818Y12700
M30