G04 EAGLE Gerber RS-274X export*
G75*
%MOMM*%
%FSLAX34Y34*%
%LPD*%
%INBottom Copper*%
%IPPOS*%
%AMOC8*
5,1,8,0,0,1.08239X$1,22.5*%
G01*
%ADD10C,2.032000*%
%ADD11C,1.879600*%
%ADD12P,2.749271X8X22.500000*%
%ADD13C,0.762000*%
%ADD14C,0.756400*%

G36*
X993214Y11313D02*
X993214Y11313D01*
X993287Y11312D01*
X993378Y11332D01*
X993471Y11344D01*
X993541Y11370D01*
X993613Y11386D01*
X993696Y11428D01*
X993784Y11461D01*
X993845Y11503D01*
X993911Y11536D01*
X993982Y11596D01*
X994059Y11649D01*
X994109Y11704D01*
X994165Y11752D01*
X994220Y11827D01*
X994282Y11897D01*
X994317Y11962D01*
X994361Y12022D01*
X994396Y12109D01*
X994440Y12191D01*
X994459Y12263D01*
X994487Y12331D01*
X994498Y12413D01*
X994524Y12514D01*
X994525Y12618D01*
X994536Y12700D01*
X994536Y914400D01*
X994527Y914474D01*
X994528Y914547D01*
X994508Y914638D01*
X994496Y914731D01*
X994470Y914801D01*
X994454Y914873D01*
X994412Y914956D01*
X994379Y915044D01*
X994337Y915105D01*
X994304Y915171D01*
X994244Y915242D01*
X994191Y915319D01*
X994136Y915369D01*
X994088Y915425D01*
X994013Y915480D01*
X993943Y915542D01*
X993878Y915577D01*
X993818Y915621D01*
X993731Y915656D01*
X993649Y915700D01*
X993577Y915719D01*
X993509Y915747D01*
X993427Y915758D01*
X993326Y915784D01*
X993222Y915785D01*
X993140Y915796D01*
X57277Y915796D01*
X57203Y915787D01*
X57130Y915788D01*
X57039Y915768D01*
X56946Y915756D01*
X56876Y915730D01*
X56804Y915714D01*
X56721Y915672D01*
X56633Y915639D01*
X56572Y915597D01*
X56506Y915564D01*
X56435Y915504D01*
X56358Y915451D01*
X56308Y915396D01*
X56252Y915348D01*
X56197Y915273D01*
X56135Y915203D01*
X56100Y915138D01*
X56056Y915078D01*
X56021Y914991D01*
X55977Y914909D01*
X55958Y914837D01*
X55930Y914769D01*
X55919Y914687D01*
X55893Y914586D01*
X55892Y914482D01*
X55881Y914400D01*
X55881Y652128D01*
X55888Y652068D01*
X55886Y652007D01*
X55908Y651903D01*
X55921Y651796D01*
X55942Y651740D01*
X55954Y651681D01*
X56000Y651584D01*
X56038Y651484D01*
X56072Y651434D01*
X56098Y651380D01*
X56166Y651297D01*
X56226Y651208D01*
X56271Y651168D01*
X56309Y651121D01*
X56394Y651057D01*
X56474Y650985D01*
X56527Y650957D01*
X56575Y650920D01*
X56674Y650878D01*
X56768Y650827D01*
X56826Y650812D01*
X56882Y650788D01*
X56987Y650771D01*
X57091Y650744D01*
X57151Y650743D01*
X57211Y650733D01*
X57318Y650741D01*
X57424Y650739D01*
X57483Y650753D01*
X57544Y650757D01*
X57645Y650790D01*
X57750Y650814D01*
X57803Y650841D01*
X57861Y650859D01*
X57952Y650916D01*
X58048Y650963D01*
X58094Y651002D01*
X58145Y651034D01*
X58221Y651110D01*
X58302Y651179D01*
X58337Y651228D01*
X58380Y651271D01*
X58426Y651351D01*
X58498Y651450D01*
X58531Y651531D01*
X58567Y651593D01*
X61126Y657772D01*
X66128Y662774D01*
X72663Y665481D01*
X79737Y665481D01*
X86272Y662774D01*
X89506Y659540D01*
X89528Y659523D01*
X89545Y659502D01*
X89658Y659420D01*
X89768Y659334D01*
X89793Y659322D01*
X89815Y659306D01*
X89945Y659253D01*
X90072Y659196D01*
X90099Y659191D01*
X90124Y659180D01*
X90226Y659167D01*
X90400Y659134D01*
X90450Y659137D01*
X90493Y659131D01*
X125153Y659131D01*
X125272Y659145D01*
X125393Y659151D01*
X125437Y659165D01*
X125484Y659171D01*
X125597Y659213D01*
X125712Y659248D01*
X125752Y659271D01*
X125796Y659288D01*
X125896Y659356D01*
X126000Y659417D01*
X126033Y659450D01*
X126072Y659476D01*
X126152Y659565D01*
X126239Y659649D01*
X126264Y659689D01*
X126295Y659724D01*
X126352Y659830D01*
X126416Y659932D01*
X126431Y659977D01*
X126453Y660018D01*
X126483Y660135D01*
X126521Y660249D01*
X126525Y660295D01*
X126536Y660341D01*
X126538Y660461D01*
X126548Y660581D01*
X126540Y660628D01*
X126541Y660674D01*
X126514Y660792D01*
X126495Y660911D01*
X126477Y660954D01*
X126467Y661000D01*
X126413Y661107D01*
X126366Y661218D01*
X126339Y661253D01*
X126317Y661298D01*
X126202Y661432D01*
X126140Y661514D01*
X124626Y663028D01*
X121919Y669563D01*
X121919Y676637D01*
X124626Y683172D01*
X126267Y684813D01*
X126313Y684871D01*
X126366Y684922D01*
X126415Y685002D01*
X126473Y685075D01*
X126504Y685142D01*
X126543Y685205D01*
X126572Y685294D01*
X126611Y685379D01*
X126625Y685452D01*
X126648Y685522D01*
X126655Y685615D01*
X126673Y685707D01*
X126669Y685781D01*
X126675Y685854D01*
X126660Y685946D01*
X126655Y686040D01*
X126634Y686111D01*
X126622Y686184D01*
X126586Y686270D01*
X126559Y686359D01*
X126521Y686423D01*
X126493Y686491D01*
X126443Y686557D01*
X126390Y686647D01*
X126317Y686722D01*
X126267Y686787D01*
X124626Y688428D01*
X121919Y694963D01*
X121919Y702037D01*
X124626Y708572D01*
X129628Y713574D01*
X136163Y716281D01*
X143237Y716281D01*
X149772Y713574D01*
X154774Y708572D01*
X157481Y702037D01*
X157481Y694963D01*
X154774Y688428D01*
X153260Y686914D01*
X153186Y686820D01*
X153105Y686730D01*
X153083Y686689D01*
X153054Y686652D01*
X153004Y686542D01*
X152947Y686436D01*
X152935Y686391D01*
X152916Y686348D01*
X152894Y686230D01*
X152864Y686113D01*
X152863Y686066D01*
X152854Y686020D01*
X152861Y685900D01*
X152859Y685780D01*
X152869Y685734D01*
X152872Y685687D01*
X152907Y685572D01*
X152933Y685454D01*
X152954Y685413D01*
X152968Y685368D01*
X153029Y685264D01*
X153083Y685156D01*
X153113Y685121D01*
X153137Y685080D01*
X153221Y684994D01*
X153299Y684902D01*
X153337Y684875D01*
X153370Y684841D01*
X153472Y684777D01*
X153569Y684706D01*
X153613Y684689D01*
X153652Y684664D01*
X153767Y684626D01*
X153878Y684580D01*
X153921Y684575D01*
X153969Y684559D01*
X154145Y684544D01*
X154247Y684531D01*
X167374Y684531D01*
X171575Y682791D01*
X187491Y666875D01*
X189231Y662674D01*
X189231Y500613D01*
X189234Y500586D01*
X189232Y500559D01*
X189254Y500421D01*
X189271Y500282D01*
X189280Y500256D01*
X189284Y500229D01*
X189339Y500100D01*
X189388Y499970D01*
X189403Y499947D01*
X189414Y499922D01*
X189476Y499840D01*
X189576Y499694D01*
X189613Y499660D01*
X189640Y499626D01*
X207526Y481740D01*
X207547Y481723D01*
X207565Y481702D01*
X207678Y481620D01*
X207788Y481534D01*
X207813Y481522D01*
X207835Y481506D01*
X207965Y481453D01*
X208092Y481396D01*
X208119Y481391D01*
X208144Y481380D01*
X208246Y481367D01*
X208420Y481334D01*
X208470Y481337D01*
X208513Y481331D01*
X261387Y481331D01*
X261414Y481334D01*
X261441Y481332D01*
X261579Y481354D01*
X261718Y481371D01*
X261744Y481380D01*
X261771Y481384D01*
X261900Y481439D01*
X262030Y481488D01*
X262053Y481503D01*
X262078Y481514D01*
X262160Y481576D01*
X262306Y481676D01*
X262340Y481713D01*
X262374Y481740D01*
X307713Y527079D01*
X311125Y530491D01*
X314970Y532083D01*
X315022Y532113D01*
X315079Y532134D01*
X315167Y532194D01*
X315261Y532247D01*
X315305Y532288D01*
X315355Y532322D01*
X315426Y532402D01*
X315504Y532475D01*
X315537Y532525D01*
X315578Y532570D01*
X315628Y532664D01*
X315687Y532754D01*
X315707Y532811D01*
X315736Y532864D01*
X315762Y532968D01*
X315798Y533068D01*
X315804Y533128D01*
X315819Y533187D01*
X315821Y533294D01*
X315831Y533400D01*
X315823Y533460D01*
X315824Y533520D01*
X315800Y533625D01*
X315785Y533731D01*
X315763Y533787D01*
X315749Y533846D01*
X315701Y533941D01*
X315662Y534041D01*
X315627Y534090D01*
X315600Y534144D01*
X315530Y534225D01*
X315468Y534312D01*
X315423Y534352D01*
X315384Y534398D01*
X315297Y534461D01*
X315216Y534531D01*
X315162Y534558D01*
X315113Y534594D01*
X315014Y534634D01*
X314919Y534683D01*
X314860Y534697D01*
X314804Y534720D01*
X314713Y534732D01*
X314595Y534760D01*
X314507Y534760D01*
X314435Y534769D01*
X281147Y534769D01*
X281028Y534755D01*
X280907Y534749D01*
X280863Y534735D01*
X280816Y534729D01*
X280703Y534687D01*
X280588Y534652D01*
X280548Y534629D01*
X280504Y534612D01*
X280404Y534544D01*
X280300Y534483D01*
X280267Y534450D01*
X280228Y534424D01*
X280148Y534335D01*
X280061Y534251D01*
X280036Y534211D01*
X280005Y534176D01*
X279948Y534070D01*
X279884Y533968D01*
X279869Y533923D01*
X279847Y533882D01*
X279817Y533765D01*
X279779Y533651D01*
X279775Y533605D01*
X279764Y533559D01*
X279762Y533439D01*
X279752Y533319D01*
X279760Y533272D01*
X279759Y533226D01*
X279786Y533108D01*
X279805Y532989D01*
X279823Y532946D01*
X279833Y532900D01*
X279887Y532793D01*
X279934Y532682D01*
X279961Y532647D01*
X279983Y532602D01*
X280098Y532468D01*
X280160Y532386D01*
X281774Y530772D01*
X284481Y524237D01*
X284481Y517163D01*
X281774Y510628D01*
X276772Y505626D01*
X270237Y502919D01*
X263163Y502919D01*
X256628Y505626D01*
X253394Y508860D01*
X253372Y508877D01*
X253355Y508898D01*
X253242Y508980D01*
X253132Y509066D01*
X253107Y509078D01*
X253085Y509094D01*
X252955Y509147D01*
X252828Y509204D01*
X252801Y509209D01*
X252776Y509220D01*
X252674Y509233D01*
X252500Y509266D01*
X252450Y509263D01*
X252407Y509269D01*
X230193Y509269D01*
X230166Y509266D01*
X230139Y509268D01*
X230001Y509246D01*
X229862Y509229D01*
X229837Y509220D01*
X229810Y509216D01*
X229681Y509161D01*
X229550Y509112D01*
X229527Y509097D01*
X229502Y509086D01*
X229420Y509024D01*
X229274Y508924D01*
X229241Y508887D01*
X229206Y508860D01*
X225972Y505626D01*
X219437Y502919D01*
X212363Y502919D01*
X205828Y505626D01*
X200826Y510628D01*
X198119Y517163D01*
X198119Y524237D01*
X200826Y530772D01*
X202467Y532413D01*
X202513Y532471D01*
X202566Y532522D01*
X202615Y532602D01*
X202673Y532675D01*
X202704Y532742D01*
X202743Y532805D01*
X202772Y532894D01*
X202811Y532979D01*
X202825Y533051D01*
X202848Y533122D01*
X202855Y533215D01*
X202873Y533307D01*
X202869Y533381D01*
X202875Y533454D01*
X202860Y533547D01*
X202855Y533640D01*
X202834Y533711D01*
X202822Y533784D01*
X202786Y533870D01*
X202759Y533959D01*
X202721Y534023D01*
X202693Y534091D01*
X202643Y534157D01*
X202590Y534247D01*
X202517Y534321D01*
X202467Y534387D01*
X200826Y536028D01*
X198119Y542563D01*
X198119Y549637D01*
X200826Y556172D01*
X202467Y557813D01*
X202513Y557871D01*
X202566Y557922D01*
X202615Y558002D01*
X202673Y558075D01*
X202704Y558142D01*
X202743Y558205D01*
X202772Y558294D01*
X202811Y558379D01*
X202825Y558451D01*
X202848Y558522D01*
X202855Y558615D01*
X202873Y558707D01*
X202869Y558781D01*
X202875Y558854D01*
X202860Y558947D01*
X202855Y559040D01*
X202834Y559111D01*
X202822Y559184D01*
X202786Y559270D01*
X202759Y559359D01*
X202721Y559423D01*
X202693Y559491D01*
X202643Y559557D01*
X202590Y559647D01*
X202517Y559721D01*
X202467Y559787D01*
X200826Y561428D01*
X198119Y567963D01*
X198119Y575037D01*
X200826Y581572D01*
X202467Y583213D01*
X202513Y583271D01*
X202566Y583322D01*
X202615Y583402D01*
X202673Y583475D01*
X202704Y583542D01*
X202743Y583605D01*
X202772Y583694D01*
X202811Y583779D01*
X202825Y583851D01*
X202848Y583922D01*
X202855Y584015D01*
X202873Y584107D01*
X202869Y584181D01*
X202875Y584254D01*
X202860Y584347D01*
X202855Y584440D01*
X202834Y584511D01*
X202822Y584584D01*
X202786Y584670D01*
X202759Y584759D01*
X202721Y584823D01*
X202693Y584891D01*
X202643Y584957D01*
X202590Y585047D01*
X202517Y585121D01*
X202467Y585187D01*
X200826Y586828D01*
X198119Y593363D01*
X198119Y600437D01*
X200826Y606972D01*
X202467Y608613D01*
X202513Y608671D01*
X202566Y608722D01*
X202615Y608802D01*
X202673Y608875D01*
X202704Y608942D01*
X202743Y609005D01*
X202772Y609094D01*
X202811Y609179D01*
X202825Y609251D01*
X202848Y609322D01*
X202855Y609415D01*
X202873Y609507D01*
X202869Y609581D01*
X202875Y609654D01*
X202860Y609747D01*
X202855Y609840D01*
X202834Y609911D01*
X202822Y609984D01*
X202786Y610070D01*
X202759Y610159D01*
X202721Y610223D01*
X202693Y610291D01*
X202643Y610357D01*
X202590Y610447D01*
X202517Y610521D01*
X202467Y610587D01*
X200826Y612228D01*
X198119Y618763D01*
X198119Y625837D01*
X200826Y632372D01*
X202467Y634013D01*
X202513Y634071D01*
X202566Y634122D01*
X202615Y634202D01*
X202673Y634275D01*
X202704Y634342D01*
X202743Y634405D01*
X202772Y634494D01*
X202811Y634579D01*
X202825Y634651D01*
X202848Y634722D01*
X202855Y634815D01*
X202873Y634907D01*
X202869Y634981D01*
X202875Y635054D01*
X202860Y635147D01*
X202855Y635240D01*
X202834Y635311D01*
X202822Y635384D01*
X202786Y635470D01*
X202759Y635559D01*
X202721Y635623D01*
X202693Y635691D01*
X202643Y635757D01*
X202590Y635847D01*
X202517Y635921D01*
X202467Y635987D01*
X200826Y637628D01*
X198119Y644163D01*
X198119Y651237D01*
X200826Y657772D01*
X202467Y659413D01*
X202513Y659471D01*
X202566Y659522D01*
X202615Y659602D01*
X202673Y659675D01*
X202704Y659742D01*
X202743Y659805D01*
X202772Y659894D01*
X202811Y659979D01*
X202825Y660051D01*
X202848Y660122D01*
X202855Y660215D01*
X202873Y660307D01*
X202869Y660381D01*
X202875Y660454D01*
X202860Y660547D01*
X202855Y660640D01*
X202834Y660711D01*
X202822Y660784D01*
X202786Y660870D01*
X202759Y660959D01*
X202721Y661023D01*
X202693Y661091D01*
X202643Y661157D01*
X202590Y661247D01*
X202517Y661321D01*
X202467Y661387D01*
X200826Y663028D01*
X198119Y669563D01*
X198119Y676637D01*
X200826Y683172D01*
X202467Y684813D01*
X202513Y684871D01*
X202566Y684922D01*
X202615Y685002D01*
X202673Y685075D01*
X202704Y685142D01*
X202743Y685205D01*
X202772Y685294D01*
X202811Y685379D01*
X202825Y685451D01*
X202848Y685522D01*
X202855Y685615D01*
X202873Y685707D01*
X202869Y685781D01*
X202875Y685854D01*
X202860Y685947D01*
X202855Y686040D01*
X202834Y686111D01*
X202822Y686184D01*
X202786Y686270D01*
X202759Y686359D01*
X202721Y686423D01*
X202693Y686491D01*
X202643Y686557D01*
X202590Y686647D01*
X202517Y686721D01*
X202467Y686787D01*
X200826Y688428D01*
X198119Y694963D01*
X198119Y702037D01*
X200826Y708572D01*
X205828Y713574D01*
X212363Y716281D01*
X215773Y716281D01*
X215847Y716290D01*
X215920Y716289D01*
X216011Y716309D01*
X216104Y716321D01*
X216174Y716347D01*
X216246Y716363D01*
X216329Y716405D01*
X216417Y716438D01*
X216478Y716480D01*
X216544Y716513D01*
X216615Y716573D01*
X216692Y716626D01*
X216742Y716681D01*
X216798Y716729D01*
X216853Y716804D01*
X216915Y716874D01*
X216950Y716939D01*
X216994Y716999D01*
X217029Y717086D01*
X217073Y717168D01*
X217092Y717240D01*
X217120Y717308D01*
X217131Y717390D01*
X217157Y717491D01*
X217158Y717595D01*
X217169Y717677D01*
X217169Y891274D01*
X218909Y895475D01*
X222125Y898691D01*
X226326Y900431D01*
X827774Y900431D01*
X831975Y898691D01*
X939331Y791335D01*
X941071Y787134D01*
X941071Y548873D01*
X941074Y548846D01*
X941072Y548819D01*
X941094Y548681D01*
X941111Y548542D01*
X941120Y548516D01*
X941124Y548489D01*
X941165Y548393D01*
X941166Y548387D01*
X941173Y548374D01*
X941179Y548360D01*
X941228Y548230D01*
X941243Y548207D01*
X941254Y548182D01*
X941299Y548122D01*
X941316Y548089D01*
X941355Y548043D01*
X941416Y547954D01*
X941453Y547920D01*
X941480Y547886D01*
X952031Y537335D01*
X953771Y533134D01*
X953771Y336677D01*
X953780Y336603D01*
X953779Y336530D01*
X953799Y336439D01*
X953811Y336346D01*
X953837Y336276D01*
X953853Y336204D01*
X953895Y336121D01*
X953928Y336033D01*
X953970Y335972D01*
X954003Y335906D01*
X954063Y335835D01*
X954116Y335758D01*
X954171Y335708D01*
X954219Y335652D01*
X954294Y335597D01*
X954364Y335535D01*
X954429Y335500D01*
X954489Y335456D01*
X954576Y335421D01*
X954658Y335377D01*
X954730Y335358D01*
X954798Y335330D01*
X954880Y335319D01*
X954981Y335293D01*
X955085Y335292D01*
X955167Y335281D01*
X956037Y335281D01*
X962572Y332574D01*
X967574Y327572D01*
X970281Y321037D01*
X970281Y313963D01*
X967574Y307428D01*
X964340Y304194D01*
X964323Y304172D01*
X964302Y304155D01*
X964220Y304042D01*
X964134Y303932D01*
X964122Y303907D01*
X964106Y303885D01*
X964053Y303755D01*
X963996Y303628D01*
X963991Y303601D01*
X963980Y303576D01*
X963967Y303474D01*
X963934Y303300D01*
X963937Y303250D01*
X963931Y303207D01*
X963931Y241566D01*
X962191Y237365D01*
X934447Y209621D01*
X882150Y157324D01*
X882075Y157229D01*
X881995Y157140D01*
X881973Y157099D01*
X881944Y157062D01*
X881894Y156952D01*
X881837Y156846D01*
X881825Y156801D01*
X881806Y156758D01*
X881784Y156640D01*
X881753Y156523D01*
X881753Y156476D01*
X881744Y156430D01*
X881750Y156310D01*
X881749Y156190D01*
X881759Y156144D01*
X881762Y156097D01*
X881796Y155982D01*
X881823Y155864D01*
X881844Y155823D01*
X881858Y155778D01*
X881919Y155674D01*
X881973Y155566D01*
X882003Y155531D01*
X882016Y155509D01*
X882016Y144144D01*
X870649Y144144D01*
X870626Y144165D01*
X870520Y144222D01*
X870418Y144286D01*
X870373Y144301D01*
X870332Y144323D01*
X870215Y144353D01*
X870101Y144391D01*
X870055Y144395D01*
X870009Y144407D01*
X869889Y144408D01*
X869769Y144418D01*
X869722Y144411D01*
X869676Y144411D01*
X869558Y144384D01*
X869439Y144365D01*
X869396Y144347D01*
X869350Y144337D01*
X869243Y144283D01*
X869132Y144236D01*
X869097Y144210D01*
X869052Y144187D01*
X868918Y144073D01*
X868836Y144010D01*
X782047Y57221D01*
X778635Y53809D01*
X774434Y52069D01*
X359733Y52069D01*
X359706Y52066D01*
X359679Y52068D01*
X359541Y52046D01*
X359402Y52029D01*
X359377Y52020D01*
X359350Y52016D01*
X359221Y51961D01*
X359090Y51912D01*
X359067Y51897D01*
X359042Y51886D01*
X358960Y51824D01*
X358814Y51724D01*
X358781Y51687D01*
X358746Y51660D01*
X355512Y48426D01*
X348977Y45719D01*
X341903Y45719D01*
X335368Y48426D01*
X332134Y51660D01*
X332112Y51677D01*
X332095Y51698D01*
X331982Y51780D01*
X331872Y51866D01*
X331847Y51878D01*
X331825Y51894D01*
X331695Y51947D01*
X331568Y52004D01*
X331541Y52009D01*
X331516Y52020D01*
X331414Y52033D01*
X331240Y52066D01*
X331190Y52063D01*
X331147Y52069D01*
X287125Y52069D01*
X287098Y52066D01*
X287071Y52068D01*
X286933Y52046D01*
X286794Y52029D01*
X286769Y52020D01*
X286742Y52015D01*
X286613Y51961D01*
X286482Y51912D01*
X286459Y51897D01*
X286434Y51886D01*
X286352Y51824D01*
X286206Y51724D01*
X286173Y51687D01*
X286138Y51660D01*
X277657Y43179D01*
X260823Y43179D01*
X248919Y55083D01*
X248919Y71917D01*
X260823Y83821D01*
X272817Y83821D01*
X272844Y83824D01*
X272871Y83822D01*
X273009Y83844D01*
X273148Y83861D01*
X273174Y83870D01*
X273201Y83874D01*
X273330Y83929D01*
X273460Y83978D01*
X273483Y83993D01*
X273508Y84004D01*
X273590Y84066D01*
X273736Y84166D01*
X273770Y84203D01*
X273804Y84230D01*
X288165Y98591D01*
X292366Y100331D01*
X299593Y100331D01*
X299667Y100340D01*
X299740Y100339D01*
X299831Y100359D01*
X299924Y100371D01*
X299994Y100397D01*
X300066Y100413D01*
X300149Y100455D01*
X300237Y100488D01*
X300298Y100530D01*
X300364Y100563D01*
X300435Y100623D01*
X300512Y100676D01*
X300562Y100731D01*
X300618Y100779D01*
X300673Y100854D01*
X300735Y100924D01*
X300770Y100989D01*
X300814Y101049D01*
X300849Y101136D01*
X300893Y101218D01*
X300912Y101290D01*
X300940Y101358D01*
X300951Y101440D01*
X300977Y101541D01*
X300978Y101645D01*
X300989Y101727D01*
X300989Y232910D01*
X300975Y233030D01*
X300969Y233150D01*
X300955Y233195D01*
X300949Y233242D01*
X300907Y233354D01*
X300872Y233470D01*
X300849Y233510D01*
X300832Y233554D01*
X300764Y233653D01*
X300703Y233757D01*
X300670Y233791D01*
X300644Y233829D01*
X300555Y233910D01*
X300471Y233996D01*
X300431Y234021D01*
X300396Y234053D01*
X300290Y234110D01*
X300188Y234173D01*
X300143Y234188D01*
X300102Y234210D01*
X299985Y234241D01*
X299871Y234279D01*
X299825Y234282D01*
X299779Y234294D01*
X299659Y234296D01*
X299539Y234305D01*
X299492Y234298D01*
X299446Y234299D01*
X299328Y234272D01*
X299209Y234253D01*
X299166Y234235D01*
X299120Y234224D01*
X299013Y234170D01*
X298902Y234123D01*
X298867Y234097D01*
X298822Y234075D01*
X298688Y233960D01*
X298606Y233898D01*
X296660Y231952D01*
X290405Y229361D01*
X283635Y229361D01*
X277380Y231952D01*
X272592Y236740D01*
X272300Y237446D01*
X272293Y237458D01*
X272289Y237471D01*
X272211Y237603D01*
X272136Y237736D01*
X272127Y237746D01*
X272120Y237758D01*
X272013Y237869D01*
X271908Y237980D01*
X271897Y237988D01*
X271887Y237997D01*
X271758Y238079D01*
X271629Y238163D01*
X271616Y238167D01*
X271605Y238175D01*
X271460Y238223D01*
X271315Y238274D01*
X271301Y238275D01*
X271288Y238280D01*
X271136Y238292D01*
X270983Y238307D01*
X270969Y238305D01*
X270955Y238307D01*
X270805Y238282D01*
X270652Y238261D01*
X270640Y238256D01*
X270626Y238254D01*
X270485Y238195D01*
X270342Y238138D01*
X270331Y238130D01*
X270319Y238124D01*
X270248Y238070D01*
X270070Y237944D01*
X270047Y237917D01*
X270023Y237899D01*
X269398Y237274D01*
X267877Y236169D01*
X266203Y235316D01*
X264416Y234735D01*
X264159Y234695D01*
X264159Y245237D01*
X264150Y245310D01*
X264151Y245384D01*
X264131Y245475D01*
X264119Y245568D01*
X264093Y245637D01*
X264077Y245709D01*
X264035Y245793D01*
X264002Y245880D01*
X263960Y245941D01*
X263927Y246008D01*
X263867Y246079D01*
X263814Y246156D01*
X263759Y246205D01*
X263711Y246262D01*
X263636Y246316D01*
X263566Y246379D01*
X263561Y246382D01*
X263605Y246419D01*
X263682Y246472D01*
X263732Y246527D01*
X263788Y246575D01*
X263843Y246651D01*
X263905Y246720D01*
X263940Y246785D01*
X263984Y246845D01*
X264019Y246932D01*
X264063Y247014D01*
X264082Y247086D01*
X264110Y247154D01*
X264121Y247236D01*
X264147Y247337D01*
X264148Y247441D01*
X264159Y247523D01*
X264159Y258065D01*
X264416Y258025D01*
X266203Y257444D01*
X267877Y256591D01*
X269398Y255486D01*
X270023Y254861D01*
X270033Y254853D01*
X270042Y254842D01*
X270164Y254750D01*
X270285Y254655D01*
X270297Y254650D01*
X270308Y254641D01*
X270449Y254581D01*
X270589Y254517D01*
X270602Y254515D01*
X270615Y254509D01*
X270766Y254484D01*
X270917Y254456D01*
X270930Y254456D01*
X270944Y254454D01*
X271097Y254465D01*
X271250Y254473D01*
X271263Y254477D01*
X271276Y254478D01*
X271422Y254525D01*
X271569Y254569D01*
X271581Y254576D01*
X271594Y254580D01*
X271725Y254661D01*
X271857Y254739D01*
X271866Y254748D01*
X271878Y254755D01*
X271986Y254865D01*
X272096Y254971D01*
X272103Y254983D01*
X272113Y254992D01*
X272157Y255069D01*
X272273Y255254D01*
X272284Y255288D01*
X272300Y255314D01*
X272592Y256020D01*
X275180Y258608D01*
X275197Y258630D01*
X275218Y258648D01*
X275300Y258761D01*
X275386Y258871D01*
X275398Y258896D01*
X275414Y258918D01*
X275467Y259048D01*
X275524Y259175D01*
X275529Y259201D01*
X275540Y259227D01*
X275553Y259329D01*
X275586Y259502D01*
X275583Y259553D01*
X275589Y259596D01*
X275589Y261354D01*
X277329Y265555D01*
X313665Y301891D01*
X317866Y303631D01*
X392207Y303631D01*
X392234Y303634D01*
X392261Y303632D01*
X392399Y303654D01*
X392538Y303671D01*
X392563Y303680D01*
X392590Y303684D01*
X392719Y303739D01*
X392850Y303788D01*
X392873Y303803D01*
X392898Y303814D01*
X392980Y303876D01*
X393126Y303976D01*
X393159Y304013D01*
X393194Y304040D01*
X396494Y307340D01*
X396524Y307356D01*
X396576Y307405D01*
X396634Y307446D01*
X396697Y307519D01*
X396768Y307584D01*
X396807Y307644D01*
X396854Y307698D01*
X396898Y307783D01*
X396950Y307863D01*
X396974Y307931D01*
X397007Y307994D01*
X397029Y308087D01*
X397062Y308178D01*
X397069Y308249D01*
X397086Y308318D01*
X397085Y308414D01*
X397095Y308510D01*
X397085Y308581D01*
X397085Y308652D01*
X397062Y308745D01*
X397049Y308840D01*
X397022Y308907D01*
X397005Y308976D01*
X396965Y309050D01*
X396926Y309150D01*
X396867Y309233D01*
X396829Y309304D01*
X395637Y310943D01*
X394730Y312725D01*
X394112Y314626D01*
X393943Y315696D01*
X405992Y315696D01*
X406065Y315705D01*
X406139Y315704D01*
X406230Y315724D01*
X406323Y315736D01*
X406392Y315762D01*
X406464Y315778D01*
X406496Y315794D01*
X406499Y315792D01*
X406571Y315773D01*
X406639Y315745D01*
X406721Y315734D01*
X406822Y315708D01*
X406926Y315707D01*
X407008Y315696D01*
X419057Y315696D01*
X418888Y314626D01*
X418270Y312725D01*
X417363Y310943D01*
X416171Y309304D01*
X416137Y309241D01*
X416094Y309184D01*
X416056Y309096D01*
X416009Y309012D01*
X415990Y308943D01*
X415962Y308878D01*
X415946Y308783D01*
X415920Y308691D01*
X415918Y308619D01*
X415906Y308549D01*
X415913Y308453D01*
X415910Y308357D01*
X415925Y308287D01*
X415930Y308216D01*
X415960Y308125D01*
X415980Y308031D01*
X416011Y307967D01*
X416033Y307899D01*
X416083Y307817D01*
X416125Y307731D01*
X416170Y307675D01*
X416208Y307615D01*
X416276Y307547D01*
X416337Y307473D01*
X416394Y307430D01*
X416445Y307380D01*
X416494Y307351D01*
X421574Y302272D01*
X424281Y295737D01*
X424281Y288663D01*
X421574Y282128D01*
X419933Y280487D01*
X419887Y280429D01*
X419834Y280378D01*
X419785Y280298D01*
X419727Y280225D01*
X419696Y280158D01*
X419657Y280095D01*
X419628Y280006D01*
X419589Y279921D01*
X419575Y279849D01*
X419552Y279778D01*
X419545Y279685D01*
X419527Y279593D01*
X419531Y279519D01*
X419525Y279446D01*
X419540Y279353D01*
X419545Y279260D01*
X419566Y279189D01*
X419578Y279116D01*
X419614Y279030D01*
X419641Y278941D01*
X419679Y278877D01*
X419707Y278809D01*
X419757Y278743D01*
X419810Y278653D01*
X419883Y278579D01*
X419933Y278513D01*
X421574Y276872D01*
X424281Y270337D01*
X424281Y263263D01*
X421574Y256728D01*
X419933Y255087D01*
X419887Y255029D01*
X419834Y254978D01*
X419785Y254898D01*
X419727Y254825D01*
X419696Y254758D01*
X419657Y254695D01*
X419628Y254606D01*
X419589Y254521D01*
X419575Y254449D01*
X419552Y254378D01*
X419545Y254285D01*
X419527Y254193D01*
X419531Y254119D01*
X419525Y254046D01*
X419540Y253953D01*
X419545Y253860D01*
X419566Y253789D01*
X419578Y253716D01*
X419614Y253630D01*
X419641Y253541D01*
X419679Y253477D01*
X419707Y253409D01*
X419757Y253343D01*
X419810Y253253D01*
X419883Y253179D01*
X419933Y253113D01*
X421574Y251472D01*
X424281Y244937D01*
X424281Y237863D01*
X421574Y231328D01*
X419933Y229687D01*
X419887Y229629D01*
X419834Y229578D01*
X419785Y229498D01*
X419727Y229425D01*
X419696Y229358D01*
X419657Y229295D01*
X419628Y229206D01*
X419589Y229121D01*
X419575Y229049D01*
X419552Y228978D01*
X419545Y228885D01*
X419527Y228793D01*
X419531Y228719D01*
X419525Y228646D01*
X419540Y228553D01*
X419545Y228460D01*
X419566Y228389D01*
X419578Y228316D01*
X419614Y228230D01*
X419641Y228141D01*
X419679Y228077D01*
X419707Y228009D01*
X419757Y227943D01*
X419810Y227853D01*
X419883Y227779D01*
X419933Y227713D01*
X421574Y226072D01*
X424281Y219537D01*
X424281Y212463D01*
X421574Y205928D01*
X419933Y204287D01*
X419887Y204229D01*
X419834Y204178D01*
X419785Y204098D01*
X419727Y204025D01*
X419696Y203958D01*
X419657Y203895D01*
X419628Y203806D01*
X419589Y203721D01*
X419575Y203649D01*
X419552Y203578D01*
X419545Y203485D01*
X419527Y203393D01*
X419531Y203319D01*
X419525Y203246D01*
X419540Y203153D01*
X419545Y203060D01*
X419566Y202989D01*
X419578Y202916D01*
X419614Y202830D01*
X419641Y202741D01*
X419679Y202677D01*
X419707Y202609D01*
X419757Y202543D01*
X419810Y202453D01*
X419883Y202379D01*
X419933Y202313D01*
X421574Y200672D01*
X424281Y194137D01*
X424281Y187063D01*
X421574Y180528D01*
X418340Y177294D01*
X418323Y177272D01*
X418302Y177255D01*
X418220Y177142D01*
X418134Y177032D01*
X418122Y177007D01*
X418106Y176985D01*
X418053Y176855D01*
X417996Y176728D01*
X417991Y176701D01*
X417980Y176676D01*
X417967Y176574D01*
X417934Y176400D01*
X417937Y176350D01*
X417931Y176307D01*
X417931Y170539D01*
X417913Y170477D01*
X417880Y170396D01*
X417871Y170325D01*
X417847Y170240D01*
X417843Y170118D01*
X417831Y170027D01*
X417831Y132313D01*
X417834Y132286D01*
X417832Y132259D01*
X417854Y132121D01*
X417871Y131982D01*
X417880Y131956D01*
X417884Y131929D01*
X417939Y131800D01*
X417988Y131670D01*
X418003Y131647D01*
X418014Y131622D01*
X418076Y131540D01*
X418176Y131394D01*
X418213Y131360D01*
X418240Y131326D01*
X474226Y75340D01*
X474247Y75323D01*
X474265Y75302D01*
X474378Y75220D01*
X474488Y75134D01*
X474513Y75122D01*
X474535Y75106D01*
X474665Y75053D01*
X474792Y74996D01*
X474819Y74991D01*
X474844Y74980D01*
X474946Y74967D01*
X475120Y74934D01*
X475170Y74937D01*
X475213Y74931D01*
X517535Y74931D01*
X517595Y74938D01*
X517656Y74936D01*
X517760Y74958D01*
X517867Y74971D01*
X517923Y74992D01*
X517982Y75004D01*
X518079Y75050D01*
X518179Y75088D01*
X518229Y75122D01*
X518283Y75148D01*
X518366Y75216D01*
X518455Y75276D01*
X518495Y75321D01*
X518542Y75359D01*
X518606Y75444D01*
X518678Y75524D01*
X518706Y75577D01*
X518743Y75625D01*
X518785Y75724D01*
X518836Y75818D01*
X518851Y75876D01*
X518875Y75932D01*
X518892Y76037D01*
X518919Y76141D01*
X518920Y76201D01*
X518930Y76261D01*
X518922Y76368D01*
X518924Y76474D01*
X518910Y76533D01*
X518906Y76594D01*
X518873Y76695D01*
X518849Y76800D01*
X518822Y76853D01*
X518804Y76911D01*
X518748Y77002D01*
X518700Y77098D01*
X518661Y77144D01*
X518629Y77195D01*
X518553Y77271D01*
X518484Y77352D01*
X518435Y77387D01*
X518392Y77430D01*
X518312Y77476D01*
X518213Y77548D01*
X518132Y77581D01*
X518070Y77617D01*
X514225Y79209D01*
X497324Y96110D01*
X497303Y96127D01*
X497285Y96148D01*
X497172Y96230D01*
X497062Y96316D01*
X497037Y96328D01*
X497015Y96344D01*
X496885Y96397D01*
X496758Y96454D01*
X496731Y96459D01*
X496706Y96470D01*
X496604Y96483D01*
X496430Y96516D01*
X496380Y96513D01*
X496337Y96519D01*
X491763Y96519D01*
X485228Y99226D01*
X481994Y102460D01*
X481972Y102477D01*
X481955Y102498D01*
X481842Y102580D01*
X481732Y102666D01*
X481707Y102678D01*
X481685Y102694D01*
X481555Y102747D01*
X481428Y102804D01*
X481401Y102809D01*
X481376Y102820D01*
X481274Y102833D01*
X481100Y102866D01*
X481050Y102863D01*
X481007Y102869D01*
X477786Y102869D01*
X473585Y104609D01*
X460209Y117985D01*
X458469Y122186D01*
X458469Y134104D01*
X458466Y134131D01*
X458468Y134159D01*
X458446Y134297D01*
X458429Y134435D01*
X458420Y134461D01*
X458416Y134488D01*
X458361Y134617D01*
X458312Y134748D01*
X458297Y134770D01*
X458286Y134795D01*
X458224Y134877D01*
X458124Y135023D01*
X458087Y135057D01*
X458060Y135092D01*
X455472Y137680D01*
X452881Y143935D01*
X452881Y150705D01*
X455472Y156960D01*
X460260Y161748D01*
X466515Y164339D01*
X473285Y164339D01*
X479540Y161748D01*
X484328Y156960D01*
X484620Y156254D01*
X484627Y156243D01*
X484631Y156229D01*
X484709Y156097D01*
X484784Y155964D01*
X484793Y155954D01*
X484800Y155942D01*
X484907Y155832D01*
X485012Y155720D01*
X485023Y155712D01*
X485033Y155703D01*
X485162Y155621D01*
X485291Y155537D01*
X485304Y155533D01*
X485315Y155526D01*
X485461Y155477D01*
X485605Y155426D01*
X485619Y155425D01*
X485632Y155420D01*
X485784Y155408D01*
X485937Y155393D01*
X485951Y155395D01*
X485964Y155394D01*
X486116Y155418D01*
X486268Y155439D01*
X486280Y155444D01*
X486294Y155446D01*
X486436Y155506D01*
X486578Y155562D01*
X486589Y155570D01*
X486601Y155576D01*
X486673Y155630D01*
X486850Y155756D01*
X486873Y155783D01*
X486897Y155801D01*
X487523Y156426D01*
X489043Y157531D01*
X490717Y158384D01*
X492504Y158965D01*
X492761Y159005D01*
X492761Y148463D01*
X492770Y148390D01*
X492769Y148316D01*
X492789Y148225D01*
X492801Y148132D01*
X492827Y148063D01*
X492843Y147991D01*
X492885Y147907D01*
X492918Y147820D01*
X492960Y147759D01*
X492993Y147692D01*
X493053Y147621D01*
X493106Y147544D01*
X493161Y147495D01*
X493209Y147438D01*
X493284Y147384D01*
X493354Y147321D01*
X493359Y147318D01*
X493315Y147281D01*
X493238Y147228D01*
X493188Y147173D01*
X493132Y147125D01*
X493077Y147049D01*
X493015Y146980D01*
X492980Y146915D01*
X492936Y146855D01*
X492901Y146768D01*
X492857Y146686D01*
X492838Y146614D01*
X492810Y146546D01*
X492799Y146464D01*
X492773Y146363D01*
X492772Y146259D01*
X492761Y146177D01*
X492761Y135635D01*
X492504Y135675D01*
X490717Y136256D01*
X489043Y137109D01*
X487522Y138214D01*
X486897Y138839D01*
X486887Y138847D01*
X486878Y138858D01*
X486756Y138950D01*
X486635Y139045D01*
X486623Y139050D01*
X486612Y139059D01*
X486471Y139119D01*
X486331Y139183D01*
X486318Y139185D01*
X486305Y139191D01*
X486154Y139216D01*
X486003Y139244D01*
X485990Y139244D01*
X485976Y139246D01*
X485823Y139235D01*
X485670Y139227D01*
X485657Y139223D01*
X485644Y139222D01*
X485498Y139175D01*
X485351Y139131D01*
X485339Y139124D01*
X485326Y139120D01*
X485195Y139039D01*
X485063Y138961D01*
X485054Y138952D01*
X485042Y138945D01*
X484934Y138835D01*
X484824Y138729D01*
X484817Y138717D01*
X484807Y138708D01*
X484763Y138631D01*
X484647Y138446D01*
X484636Y138412D01*
X484620Y138386D01*
X484328Y137680D01*
X481740Y135092D01*
X481723Y135070D01*
X481702Y135052D01*
X481620Y134939D01*
X481534Y134829D01*
X481522Y134804D01*
X481506Y134782D01*
X481453Y134652D01*
X481396Y134525D01*
X481391Y134499D01*
X481380Y134473D01*
X481367Y134371D01*
X481334Y134198D01*
X481337Y134147D01*
X481331Y134104D01*
X481331Y129773D01*
X481334Y129746D01*
X481332Y129719D01*
X481354Y129581D01*
X481371Y129442D01*
X481380Y129416D01*
X481384Y129389D01*
X481439Y129260D01*
X481488Y129130D01*
X481503Y129107D01*
X481514Y129082D01*
X481576Y129000D01*
X481676Y128854D01*
X481713Y128820D01*
X481740Y128786D01*
X482203Y128323D01*
X482261Y128277D01*
X482312Y128224D01*
X482391Y128175D01*
X482465Y128117D01*
X482532Y128086D01*
X482595Y128047D01*
X482684Y128018D01*
X482769Y127979D01*
X482841Y127965D01*
X482912Y127942D01*
X483005Y127934D01*
X483097Y127917D01*
X483170Y127921D01*
X483244Y127915D01*
X483336Y127930D01*
X483430Y127935D01*
X483501Y127956D01*
X483574Y127968D01*
X483660Y128004D01*
X483749Y128031D01*
X483813Y128068D01*
X483881Y128097D01*
X483947Y128147D01*
X484037Y128200D01*
X484112Y128273D01*
X484177Y128323D01*
X485228Y129374D01*
X491763Y132081D01*
X498837Y132081D01*
X505372Y129374D01*
X510374Y124372D01*
X513081Y117837D01*
X513081Y113263D01*
X513084Y113236D01*
X513082Y113209D01*
X513104Y113071D01*
X513121Y112932D01*
X513130Y112906D01*
X513134Y112879D01*
X513189Y112750D01*
X513238Y112620D01*
X513253Y112597D01*
X513264Y112572D01*
X513326Y112490D01*
X513342Y112467D01*
X513346Y112459D01*
X513353Y112451D01*
X513426Y112344D01*
X513463Y112310D01*
X513490Y112276D01*
X521582Y104183D01*
X521687Y104101D01*
X521789Y104013D01*
X521818Y103998D01*
X521844Y103977D01*
X521966Y103922D01*
X522086Y103861D01*
X522118Y103853D01*
X522148Y103840D01*
X522279Y103815D01*
X522410Y103784D01*
X522443Y103784D01*
X522476Y103778D01*
X522610Y103785D01*
X522744Y103785D01*
X522774Y103793D01*
X522809Y103795D01*
X523018Y103858D01*
X523104Y103881D01*
X529863Y106681D01*
X536937Y106681D01*
X543472Y103974D01*
X545113Y102333D01*
X545171Y102287D01*
X545222Y102234D01*
X545302Y102185D01*
X545375Y102127D01*
X545442Y102096D01*
X545505Y102057D01*
X545594Y102028D01*
X545679Y101989D01*
X545752Y101975D01*
X545822Y101952D01*
X545915Y101945D01*
X546007Y101927D01*
X546081Y101931D01*
X546154Y101925D01*
X546246Y101940D01*
X546340Y101945D01*
X546411Y101966D01*
X546484Y101978D01*
X546570Y102014D01*
X546659Y102041D01*
X546723Y102079D01*
X546791Y102107D01*
X546857Y102157D01*
X546947Y102210D01*
X547022Y102283D01*
X547087Y102333D01*
X548728Y103974D01*
X555263Y106681D01*
X562337Y106681D01*
X568872Y103974D01*
X570513Y102333D01*
X570571Y102287D01*
X570622Y102234D01*
X570702Y102185D01*
X570775Y102127D01*
X570842Y102096D01*
X570905Y102057D01*
X570994Y102028D01*
X571079Y101989D01*
X571152Y101975D01*
X571222Y101952D01*
X571315Y101945D01*
X571407Y101927D01*
X571481Y101931D01*
X571554Y101925D01*
X571646Y101940D01*
X571740Y101945D01*
X571811Y101966D01*
X571884Y101978D01*
X571970Y102014D01*
X572059Y102041D01*
X572123Y102079D01*
X572191Y102107D01*
X572257Y102157D01*
X572347Y102210D01*
X572422Y102283D01*
X572487Y102333D01*
X574128Y103974D01*
X580663Y106681D01*
X585237Y106681D01*
X585264Y106684D01*
X585291Y106682D01*
X585429Y106704D01*
X585568Y106721D01*
X585594Y106730D01*
X585621Y106734D01*
X585750Y106789D01*
X585880Y106838D01*
X585903Y106853D01*
X585928Y106864D01*
X586010Y106926D01*
X586156Y107026D01*
X586190Y107063D01*
X586224Y107090D01*
X603750Y124616D01*
X603825Y124711D01*
X603905Y124800D01*
X603927Y124841D01*
X603956Y124878D01*
X604006Y124988D01*
X604063Y125094D01*
X604075Y125139D01*
X604094Y125182D01*
X604116Y125300D01*
X604147Y125417D01*
X604147Y125464D01*
X604156Y125510D01*
X604150Y125630D01*
X604151Y125750D01*
X604141Y125796D01*
X604138Y125843D01*
X604104Y125958D01*
X604077Y126076D01*
X604056Y126117D01*
X604042Y126162D01*
X603981Y126266D01*
X603927Y126374D01*
X603897Y126409D01*
X603884Y126431D01*
X603884Y139192D01*
X603875Y139265D01*
X603876Y139339D01*
X603856Y139430D01*
X603844Y139523D01*
X603818Y139592D01*
X603802Y139664D01*
X603760Y139748D01*
X603727Y139835D01*
X603685Y139896D01*
X603652Y139963D01*
X603592Y140034D01*
X603539Y140111D01*
X603484Y140160D01*
X603436Y140217D01*
X603361Y140271D01*
X603291Y140334D01*
X603226Y140369D01*
X603166Y140412D01*
X603079Y140448D01*
X602997Y140492D01*
X602925Y140510D01*
X602857Y140538D01*
X602827Y140542D01*
X602802Y140609D01*
X602786Y140681D01*
X602744Y140764D01*
X602711Y140852D01*
X602669Y140913D01*
X602636Y140979D01*
X602576Y141050D01*
X602523Y141127D01*
X602468Y141177D01*
X602420Y141233D01*
X602344Y141288D01*
X602275Y141350D01*
X602210Y141385D01*
X602150Y141429D01*
X602063Y141464D01*
X601981Y141508D01*
X601909Y141527D01*
X601841Y141555D01*
X601759Y141566D01*
X601658Y141592D01*
X601554Y141593D01*
X601472Y141604D01*
X589423Y141604D01*
X589592Y142674D01*
X590210Y144575D01*
X591117Y146357D01*
X592292Y147974D01*
X593706Y149388D01*
X595323Y150563D01*
X596942Y151387D01*
X597047Y151457D01*
X597155Y151521D01*
X597185Y151550D01*
X597219Y151573D01*
X597304Y151666D01*
X597394Y151754D01*
X597416Y151789D01*
X597444Y151820D01*
X597505Y151930D01*
X597572Y152037D01*
X597585Y152076D01*
X597604Y152112D01*
X597637Y152234D01*
X597677Y152353D01*
X597680Y152395D01*
X597691Y152435D01*
X597693Y152560D01*
X597704Y152686D01*
X597697Y152727D01*
X597698Y152768D01*
X597671Y152891D01*
X597651Y153015D01*
X597635Y153053D01*
X597626Y153094D01*
X597570Y153207D01*
X597521Y153323D01*
X597498Y153353D01*
X597479Y153393D01*
X597357Y153539D01*
X597296Y153619D01*
X485609Y265305D01*
X483869Y269506D01*
X483869Y350287D01*
X483866Y350314D01*
X483868Y350341D01*
X483846Y350479D01*
X483829Y350618D01*
X483820Y350644D01*
X483816Y350671D01*
X483761Y350800D01*
X483712Y350930D01*
X483697Y350953D01*
X483686Y350978D01*
X483624Y351060D01*
X483524Y351206D01*
X483487Y351240D01*
X483460Y351274D01*
X478174Y356560D01*
X478153Y356577D01*
X478135Y356598D01*
X478022Y356680D01*
X477912Y356766D01*
X477887Y356778D01*
X477865Y356794D01*
X477735Y356847D01*
X477608Y356904D01*
X477581Y356909D01*
X477556Y356920D01*
X477454Y356933D01*
X477280Y356966D01*
X477230Y356963D01*
X477187Y356969D01*
X421047Y356969D01*
X420928Y356955D01*
X420807Y356949D01*
X420763Y356935D01*
X420716Y356929D01*
X420603Y356887D01*
X420488Y356852D01*
X420448Y356829D01*
X420404Y356812D01*
X420304Y356744D01*
X420200Y356683D01*
X420167Y356650D01*
X420128Y356624D01*
X420048Y356535D01*
X419961Y356451D01*
X419936Y356411D01*
X419905Y356376D01*
X419848Y356270D01*
X419784Y356168D01*
X419769Y356123D01*
X419747Y356082D01*
X419717Y355965D01*
X419679Y355851D01*
X419675Y355805D01*
X419664Y355759D01*
X419662Y355639D01*
X419652Y355519D01*
X419660Y355472D01*
X419659Y355426D01*
X419686Y355308D01*
X419705Y355189D01*
X419723Y355146D01*
X419733Y355100D01*
X419787Y354993D01*
X419834Y354882D01*
X419861Y354847D01*
X419883Y354802D01*
X419998Y354668D01*
X420060Y354586D01*
X421574Y353072D01*
X424281Y346537D01*
X424281Y339463D01*
X421574Y332928D01*
X416506Y327860D01*
X416476Y327844D01*
X416424Y327795D01*
X416366Y327754D01*
X416303Y327681D01*
X416232Y327616D01*
X416193Y327556D01*
X416146Y327502D01*
X416102Y327417D01*
X416050Y327337D01*
X416026Y327269D01*
X415993Y327206D01*
X415971Y327113D01*
X415938Y327022D01*
X415931Y326951D01*
X415914Y326882D01*
X415915Y326786D01*
X415905Y326690D01*
X415915Y326619D01*
X415915Y326548D01*
X415938Y326455D01*
X415951Y326360D01*
X415978Y326293D01*
X415995Y326224D01*
X416035Y326150D01*
X416074Y326050D01*
X416133Y325967D01*
X416171Y325896D01*
X417363Y324257D01*
X418270Y322475D01*
X418888Y320574D01*
X419057Y319504D01*
X407008Y319504D01*
X406935Y319495D01*
X406861Y319496D01*
X406770Y319476D01*
X406677Y319464D01*
X406608Y319438D01*
X406536Y319422D01*
X406504Y319406D01*
X406501Y319408D01*
X406429Y319427D01*
X406361Y319455D01*
X406279Y319466D01*
X406178Y319492D01*
X406074Y319493D01*
X405992Y319504D01*
X393943Y319504D01*
X394112Y320574D01*
X394730Y322475D01*
X395637Y324257D01*
X396829Y325896D01*
X396863Y325959D01*
X396906Y326016D01*
X396944Y326104D01*
X396991Y326188D01*
X397010Y326257D01*
X397038Y326322D01*
X397054Y326417D01*
X397080Y326509D01*
X397082Y326581D01*
X397094Y326651D01*
X397087Y326747D01*
X397090Y326843D01*
X397075Y326913D01*
X397070Y326984D01*
X397040Y327075D01*
X397020Y327169D01*
X396989Y327233D01*
X396967Y327301D01*
X396917Y327383D01*
X396875Y327469D01*
X396830Y327525D01*
X396792Y327585D01*
X396724Y327653D01*
X396663Y327727D01*
X396606Y327770D01*
X396555Y327820D01*
X396506Y327849D01*
X391426Y332928D01*
X388719Y339463D01*
X388719Y346537D01*
X391426Y353072D01*
X393067Y354713D01*
X393113Y354771D01*
X393166Y354822D01*
X393215Y354902D01*
X393273Y354975D01*
X393304Y355042D01*
X393343Y355105D01*
X393372Y355194D01*
X393411Y355279D01*
X393425Y355352D01*
X393448Y355422D01*
X393455Y355515D01*
X393473Y355607D01*
X393469Y355681D01*
X393475Y355754D01*
X393460Y355846D01*
X393455Y355940D01*
X393434Y356011D01*
X393422Y356084D01*
X393386Y356170D01*
X393359Y356259D01*
X393321Y356323D01*
X393293Y356391D01*
X393243Y356457D01*
X393190Y356547D01*
X393117Y356622D01*
X393067Y356687D01*
X391426Y358328D01*
X388719Y364863D01*
X388719Y371937D01*
X391426Y378472D01*
X393067Y380113D01*
X393113Y380171D01*
X393166Y380222D01*
X393215Y380302D01*
X393273Y380375D01*
X393304Y380442D01*
X393343Y380505D01*
X393372Y380594D01*
X393411Y380679D01*
X393425Y380752D01*
X393448Y380822D01*
X393455Y380915D01*
X393473Y381007D01*
X393469Y381081D01*
X393475Y381154D01*
X393460Y381246D01*
X393455Y381340D01*
X393434Y381411D01*
X393422Y381484D01*
X393386Y381570D01*
X393359Y381659D01*
X393321Y381723D01*
X393293Y381791D01*
X393243Y381857D01*
X393190Y381947D01*
X393117Y382022D01*
X393067Y382087D01*
X391426Y383728D01*
X388719Y390263D01*
X388719Y397337D01*
X391426Y403872D01*
X392940Y405386D01*
X393014Y405480D01*
X393095Y405570D01*
X393117Y405611D01*
X393146Y405648D01*
X393196Y405758D01*
X393253Y405864D01*
X393265Y405909D01*
X393284Y405952D01*
X393306Y406070D01*
X393336Y406187D01*
X393337Y406234D01*
X393346Y406280D01*
X393339Y406400D01*
X393341Y406520D01*
X393331Y406566D01*
X393328Y406613D01*
X393293Y406728D01*
X393267Y406846D01*
X393246Y406887D01*
X393232Y406932D01*
X393171Y407036D01*
X393117Y407144D01*
X393087Y407179D01*
X393063Y407220D01*
X392979Y407306D01*
X392901Y407398D01*
X392863Y407425D01*
X392830Y407459D01*
X392728Y407523D01*
X392631Y407594D01*
X392587Y407611D01*
X392548Y407636D01*
X392433Y407674D01*
X392322Y407720D01*
X392279Y407725D01*
X392231Y407741D01*
X392055Y407756D01*
X391953Y407769D01*
X371173Y407769D01*
X371146Y407766D01*
X371119Y407768D01*
X370981Y407746D01*
X370842Y407729D01*
X370816Y407720D01*
X370789Y407716D01*
X370660Y407661D01*
X370530Y407612D01*
X370507Y407597D01*
X370482Y407586D01*
X370400Y407524D01*
X370254Y407424D01*
X370220Y407387D01*
X370186Y407360D01*
X343310Y380484D01*
X343293Y380463D01*
X343272Y380445D01*
X343190Y380332D01*
X343104Y380222D01*
X343092Y380197D01*
X343076Y380175D01*
X343023Y380045D01*
X342966Y379918D01*
X342961Y379891D01*
X342950Y379866D01*
X342937Y379764D01*
X342904Y379590D01*
X342907Y379540D01*
X342901Y379497D01*
X342901Y374923D01*
X340194Y368388D01*
X335192Y363386D01*
X328657Y360679D01*
X321583Y360679D01*
X315048Y363386D01*
X310046Y368388D01*
X307339Y374923D01*
X307339Y381997D01*
X310046Y388532D01*
X315048Y393534D01*
X321583Y396241D01*
X326157Y396241D01*
X326184Y396244D01*
X326211Y396242D01*
X326349Y396264D01*
X326488Y396281D01*
X326514Y396290D01*
X326541Y396294D01*
X326670Y396349D01*
X326800Y396398D01*
X326823Y396413D01*
X326848Y396424D01*
X326930Y396486D01*
X327076Y396586D01*
X327110Y396623D01*
X327144Y396650D01*
X351020Y420526D01*
X351095Y420621D01*
X351175Y420710D01*
X351197Y420751D01*
X351226Y420788D01*
X351276Y420898D01*
X351333Y421004D01*
X351345Y421049D01*
X351364Y421092D01*
X351386Y421210D01*
X351417Y421327D01*
X351417Y421374D01*
X351426Y421420D01*
X351420Y421540D01*
X351421Y421660D01*
X351411Y421706D01*
X351408Y421753D01*
X351374Y421868D01*
X351347Y421986D01*
X351326Y422027D01*
X351312Y422072D01*
X351251Y422176D01*
X351197Y422284D01*
X351167Y422319D01*
X351143Y422360D01*
X351059Y422446D01*
X350981Y422538D01*
X350943Y422565D01*
X350910Y422599D01*
X350808Y422663D01*
X350711Y422734D01*
X350667Y422751D01*
X350628Y422776D01*
X350513Y422814D01*
X350402Y422860D01*
X350359Y422865D01*
X350311Y422881D01*
X350135Y422896D01*
X350033Y422909D01*
X339413Y422909D01*
X339386Y422906D01*
X339359Y422908D01*
X339221Y422886D01*
X339082Y422869D01*
X339056Y422860D01*
X339030Y422855D01*
X338901Y422801D01*
X338770Y422752D01*
X338747Y422737D01*
X338722Y422726D01*
X338640Y422664D01*
X338494Y422564D01*
X338460Y422527D01*
X338426Y422500D01*
X335192Y419266D01*
X328657Y416559D01*
X321583Y416559D01*
X315048Y419266D01*
X310046Y424268D01*
X307339Y430803D01*
X307339Y437877D01*
X310046Y444412D01*
X314227Y448593D01*
X314273Y448651D01*
X314326Y448702D01*
X314375Y448782D01*
X314433Y448855D01*
X314464Y448922D01*
X314503Y448985D01*
X314532Y449074D01*
X314571Y449159D01*
X314585Y449232D01*
X314608Y449302D01*
X314615Y449395D01*
X314633Y449487D01*
X314629Y449561D01*
X314635Y449634D01*
X314620Y449726D01*
X314615Y449820D01*
X314594Y449891D01*
X314582Y449964D01*
X314546Y450050D01*
X314519Y450139D01*
X314481Y450203D01*
X314453Y450271D01*
X314403Y450337D01*
X314350Y450427D01*
X314277Y450502D01*
X314227Y450567D01*
X310046Y454748D01*
X307339Y461283D01*
X307339Y468357D01*
X310046Y474892D01*
X314227Y479073D01*
X314273Y479131D01*
X314326Y479182D01*
X314375Y479262D01*
X314433Y479335D01*
X314464Y479402D01*
X314503Y479465D01*
X314532Y479554D01*
X314571Y479639D01*
X314585Y479711D01*
X314608Y479782D01*
X314615Y479875D01*
X314633Y479967D01*
X314629Y480041D01*
X314635Y480114D01*
X314620Y480207D01*
X314615Y480300D01*
X314594Y480371D01*
X314582Y480444D01*
X314546Y480530D01*
X314519Y480619D01*
X314481Y480683D01*
X314453Y480751D01*
X314403Y480817D01*
X314350Y480907D01*
X314277Y480982D01*
X314227Y481047D01*
X310046Y485228D01*
X307374Y491679D01*
X307368Y491690D01*
X307364Y491704D01*
X307286Y491836D01*
X307211Y491969D01*
X307201Y491979D01*
X307194Y491991D01*
X307088Y492101D01*
X306983Y492213D01*
X306971Y492220D01*
X306962Y492230D01*
X306832Y492312D01*
X306704Y492396D01*
X306691Y492400D01*
X306679Y492407D01*
X306534Y492456D01*
X306389Y492507D01*
X306375Y492508D01*
X306363Y492513D01*
X306211Y492525D01*
X306057Y492540D01*
X306044Y492538D01*
X306030Y492539D01*
X305879Y492515D01*
X305727Y492494D01*
X305714Y492489D01*
X305701Y492487D01*
X305559Y492427D01*
X305417Y492371D01*
X305406Y492363D01*
X305393Y492357D01*
X305322Y492303D01*
X305145Y492177D01*
X305122Y492150D01*
X305097Y492132D01*
X276587Y463621D01*
X273175Y460209D01*
X268974Y458469D01*
X200926Y458469D01*
X196725Y460209D01*
X168109Y488825D01*
X166369Y493026D01*
X166369Y655087D01*
X166366Y655114D01*
X166368Y655141D01*
X166346Y655279D01*
X166329Y655418D01*
X166320Y655444D01*
X166316Y655471D01*
X166261Y655600D01*
X166212Y655730D01*
X166197Y655753D01*
X166186Y655778D01*
X166124Y655860D01*
X166024Y656006D01*
X165987Y656040D01*
X165960Y656074D01*
X160774Y661260D01*
X160753Y661277D01*
X160735Y661298D01*
X160622Y661380D01*
X160512Y661466D01*
X160487Y661478D01*
X160465Y661494D01*
X160335Y661547D01*
X160208Y661604D01*
X160181Y661609D01*
X160156Y661620D01*
X160054Y661633D01*
X159880Y661666D01*
X159830Y661663D01*
X159787Y661669D01*
X154247Y661669D01*
X154128Y661655D01*
X154007Y661649D01*
X153963Y661635D01*
X153916Y661629D01*
X153803Y661587D01*
X153688Y661552D01*
X153648Y661529D01*
X153604Y661512D01*
X153504Y661444D01*
X153400Y661383D01*
X153367Y661350D01*
X153328Y661324D01*
X153248Y661235D01*
X153161Y661151D01*
X153136Y661111D01*
X153105Y661076D01*
X153048Y660970D01*
X152984Y660868D01*
X152969Y660823D01*
X152947Y660782D01*
X152917Y660665D01*
X152879Y660551D01*
X152875Y660505D01*
X152864Y660459D01*
X152862Y660339D01*
X152852Y660219D01*
X152860Y660172D01*
X152859Y660126D01*
X152886Y660008D01*
X152905Y659889D01*
X152923Y659846D01*
X152933Y659800D01*
X152987Y659693D01*
X153034Y659582D01*
X153061Y659547D01*
X153083Y659502D01*
X153198Y659368D01*
X153260Y659286D01*
X154774Y657772D01*
X157481Y651237D01*
X157481Y644163D01*
X154774Y637628D01*
X153133Y635987D01*
X153087Y635929D01*
X153034Y635878D01*
X152985Y635798D01*
X152927Y635725D01*
X152896Y635658D01*
X152857Y635595D01*
X152828Y635506D01*
X152789Y635421D01*
X152775Y635349D01*
X152752Y635278D01*
X152745Y635185D01*
X152727Y635093D01*
X152731Y635019D01*
X152725Y634946D01*
X152740Y634853D01*
X152745Y634760D01*
X152766Y634689D01*
X152778Y634616D01*
X152814Y634530D01*
X152841Y634441D01*
X152879Y634377D01*
X152907Y634309D01*
X152957Y634243D01*
X153010Y634153D01*
X153083Y634079D01*
X153133Y634013D01*
X154774Y632372D01*
X157481Y625837D01*
X157481Y618763D01*
X154774Y612228D01*
X153133Y610587D01*
X153087Y610529D01*
X153034Y610478D01*
X152985Y610398D01*
X152927Y610325D01*
X152896Y610258D01*
X152857Y610195D01*
X152828Y610106D01*
X152789Y610021D01*
X152775Y609949D01*
X152752Y609878D01*
X152745Y609785D01*
X152727Y609693D01*
X152731Y609619D01*
X152725Y609546D01*
X152740Y609453D01*
X152745Y609360D01*
X152766Y609289D01*
X152778Y609216D01*
X152814Y609130D01*
X152841Y609041D01*
X152879Y608977D01*
X152907Y608909D01*
X152957Y608843D01*
X153010Y608753D01*
X153083Y608679D01*
X153133Y608613D01*
X154774Y606972D01*
X157481Y600437D01*
X157481Y593363D01*
X154774Y586828D01*
X153133Y585187D01*
X153087Y585129D01*
X153034Y585078D01*
X152985Y584998D01*
X152927Y584925D01*
X152896Y584858D01*
X152857Y584795D01*
X152828Y584706D01*
X152789Y584621D01*
X152775Y584548D01*
X152752Y584478D01*
X152745Y584385D01*
X152727Y584293D01*
X152731Y584219D01*
X152725Y584146D01*
X152740Y584054D01*
X152745Y583960D01*
X152766Y583889D01*
X152778Y583816D01*
X152814Y583730D01*
X152841Y583641D01*
X152879Y583577D01*
X152907Y583509D01*
X152957Y583443D01*
X153010Y583353D01*
X153083Y583278D01*
X153133Y583213D01*
X154774Y581572D01*
X157481Y575037D01*
X157481Y567963D01*
X154774Y561428D01*
X153133Y559787D01*
X153087Y559729D01*
X153034Y559678D01*
X152985Y559598D01*
X152927Y559525D01*
X152896Y559458D01*
X152857Y559395D01*
X152828Y559306D01*
X152789Y559221D01*
X152775Y559148D01*
X152752Y559078D01*
X152745Y558985D01*
X152727Y558893D01*
X152731Y558819D01*
X152725Y558746D01*
X152740Y558654D01*
X152745Y558560D01*
X152766Y558489D01*
X152778Y558416D01*
X152814Y558330D01*
X152841Y558241D01*
X152879Y558177D01*
X152907Y558109D01*
X152957Y558043D01*
X153010Y557953D01*
X153083Y557878D01*
X153133Y557813D01*
X154774Y556172D01*
X157481Y549637D01*
X157481Y542563D01*
X154774Y536028D01*
X149706Y530960D01*
X149676Y530944D01*
X149624Y530895D01*
X149566Y530854D01*
X149503Y530781D01*
X149432Y530716D01*
X149393Y530656D01*
X149346Y530602D01*
X149302Y530517D01*
X149250Y530437D01*
X149226Y530369D01*
X149193Y530306D01*
X149171Y530213D01*
X149138Y530122D01*
X149131Y530051D01*
X149114Y529982D01*
X149115Y529886D01*
X149105Y529790D01*
X149115Y529719D01*
X149115Y529648D01*
X149138Y529555D01*
X149151Y529460D01*
X149178Y529393D01*
X149195Y529324D01*
X149235Y529250D01*
X149274Y529150D01*
X149333Y529067D01*
X149371Y528996D01*
X150563Y527357D01*
X151470Y525575D01*
X152088Y523674D01*
X152257Y522604D01*
X140208Y522604D01*
X140135Y522595D01*
X140061Y522596D01*
X139970Y522576D01*
X139877Y522564D01*
X139808Y522538D01*
X139736Y522522D01*
X139704Y522506D01*
X139701Y522508D01*
X139629Y522527D01*
X139561Y522555D01*
X139479Y522566D01*
X139378Y522592D01*
X139274Y522593D01*
X139192Y522604D01*
X127143Y522604D01*
X127312Y523674D01*
X127930Y525575D01*
X128837Y527357D01*
X130029Y528996D01*
X130063Y529059D01*
X130106Y529116D01*
X130144Y529204D01*
X130191Y529288D01*
X130210Y529357D01*
X130238Y529422D01*
X130254Y529517D01*
X130280Y529609D01*
X130282Y529681D01*
X130294Y529751D01*
X130287Y529847D01*
X130290Y529943D01*
X130275Y530013D01*
X130270Y530084D01*
X130240Y530175D01*
X130220Y530269D01*
X130189Y530333D01*
X130167Y530401D01*
X130117Y530483D01*
X130075Y530569D01*
X130030Y530625D01*
X129992Y530685D01*
X129924Y530753D01*
X129863Y530827D01*
X129806Y530870D01*
X129755Y530920D01*
X129706Y530949D01*
X124626Y536028D01*
X121919Y542563D01*
X121919Y549637D01*
X124626Y556172D01*
X126267Y557813D01*
X126313Y557871D01*
X126366Y557922D01*
X126415Y558002D01*
X126473Y558075D01*
X126504Y558142D01*
X126543Y558205D01*
X126572Y558294D01*
X126611Y558379D01*
X126625Y558451D01*
X126648Y558522D01*
X126655Y558615D01*
X126673Y558707D01*
X126669Y558781D01*
X126675Y558854D01*
X126660Y558947D01*
X126655Y559040D01*
X126634Y559111D01*
X126622Y559184D01*
X126586Y559270D01*
X126559Y559359D01*
X126521Y559423D01*
X126493Y559491D01*
X126443Y559557D01*
X126390Y559647D01*
X126317Y559721D01*
X126267Y559787D01*
X124626Y561428D01*
X121919Y567963D01*
X121919Y575037D01*
X124626Y581572D01*
X126267Y583213D01*
X126313Y583271D01*
X126366Y583322D01*
X126415Y583402D01*
X126473Y583475D01*
X126504Y583542D01*
X126543Y583605D01*
X126572Y583694D01*
X126611Y583779D01*
X126625Y583851D01*
X126648Y583922D01*
X126655Y584015D01*
X126673Y584107D01*
X126669Y584181D01*
X126675Y584254D01*
X126660Y584347D01*
X126655Y584440D01*
X126634Y584511D01*
X126622Y584584D01*
X126586Y584670D01*
X126559Y584759D01*
X126521Y584823D01*
X126493Y584891D01*
X126443Y584957D01*
X126390Y585047D01*
X126317Y585121D01*
X126267Y585187D01*
X124626Y586828D01*
X121919Y593363D01*
X121919Y600437D01*
X124626Y606972D01*
X126267Y608613D01*
X126313Y608671D01*
X126366Y608722D01*
X126415Y608802D01*
X126473Y608875D01*
X126504Y608942D01*
X126543Y609005D01*
X126572Y609094D01*
X126611Y609179D01*
X126625Y609252D01*
X126648Y609322D01*
X126655Y609415D01*
X126673Y609507D01*
X126669Y609581D01*
X126675Y609654D01*
X126660Y609746D01*
X126655Y609840D01*
X126634Y609911D01*
X126622Y609984D01*
X126586Y610070D01*
X126559Y610159D01*
X126521Y610223D01*
X126493Y610291D01*
X126443Y610357D01*
X126390Y610447D01*
X126317Y610522D01*
X126267Y610587D01*
X124626Y612228D01*
X121919Y618763D01*
X121919Y625837D01*
X124626Y632372D01*
X126140Y633886D01*
X126214Y633980D01*
X126295Y634070D01*
X126317Y634111D01*
X126346Y634148D01*
X126396Y634258D01*
X126453Y634364D01*
X126465Y634409D01*
X126484Y634452D01*
X126506Y634570D01*
X126536Y634687D01*
X126537Y634734D01*
X126546Y634780D01*
X126539Y634900D01*
X126541Y635020D01*
X126531Y635066D01*
X126528Y635113D01*
X126493Y635228D01*
X126467Y635346D01*
X126446Y635387D01*
X126432Y635432D01*
X126371Y635536D01*
X126317Y635644D01*
X126287Y635679D01*
X126263Y635720D01*
X126179Y635806D01*
X126101Y635898D01*
X126063Y635925D01*
X126030Y635959D01*
X125928Y636023D01*
X125831Y636094D01*
X125787Y636111D01*
X125748Y636136D01*
X125633Y636174D01*
X125522Y636220D01*
X125479Y636225D01*
X125431Y636241D01*
X125255Y636256D01*
X125153Y636269D01*
X90493Y636269D01*
X90466Y636266D01*
X90439Y636268D01*
X90301Y636246D01*
X90162Y636229D01*
X90137Y636220D01*
X90110Y636216D01*
X89981Y636161D01*
X89850Y636112D01*
X89827Y636097D01*
X89802Y636086D01*
X89720Y636024D01*
X89574Y635924D01*
X89541Y635887D01*
X89506Y635860D01*
X86272Y632626D01*
X79737Y629919D01*
X72663Y629919D01*
X66128Y632626D01*
X61126Y637628D01*
X58567Y643807D01*
X58537Y643859D01*
X58516Y643916D01*
X58456Y644004D01*
X58403Y644097D01*
X58362Y644142D01*
X58328Y644192D01*
X58249Y644263D01*
X58175Y644341D01*
X58125Y644374D01*
X58080Y644415D01*
X57986Y644465D01*
X57896Y644524D01*
X57839Y644544D01*
X57786Y644573D01*
X57683Y644599D01*
X57582Y644635D01*
X57522Y644641D01*
X57463Y644656D01*
X57356Y644658D01*
X57250Y644668D01*
X57190Y644660D01*
X57130Y644661D01*
X57025Y644637D01*
X56919Y644622D01*
X56863Y644600D01*
X56804Y644586D01*
X56709Y644538D01*
X56609Y644499D01*
X56560Y644464D01*
X56506Y644437D01*
X56425Y644367D01*
X56338Y644305D01*
X56298Y644260D01*
X56252Y644221D01*
X56189Y644134D01*
X56119Y644053D01*
X56092Y643999D01*
X56056Y643950D01*
X56016Y643851D01*
X55967Y643756D01*
X55953Y643697D01*
X55930Y643641D01*
X55918Y643550D01*
X55890Y643432D01*
X55890Y643344D01*
X55881Y643272D01*
X55881Y12700D01*
X55890Y12626D01*
X55889Y12553D01*
X55909Y12462D01*
X55921Y12369D01*
X55947Y12299D01*
X55963Y12227D01*
X56005Y12144D01*
X56038Y12056D01*
X56080Y11995D01*
X56113Y11929D01*
X56173Y11858D01*
X56226Y11781D01*
X56281Y11731D01*
X56329Y11675D01*
X56404Y11620D01*
X56474Y11558D01*
X56539Y11523D01*
X56599Y11479D01*
X56686Y11444D01*
X56768Y11400D01*
X56840Y11381D01*
X56908Y11353D01*
X56990Y11342D01*
X57091Y11316D01*
X57195Y11315D01*
X57277Y11304D01*
X993140Y11304D01*
X993214Y11313D01*
G37*
G36*
X866952Y443245D02*
X866952Y443245D01*
X867073Y443251D01*
X867117Y443265D01*
X867164Y443271D01*
X867277Y443313D01*
X867392Y443348D01*
X867432Y443371D01*
X867476Y443388D01*
X867576Y443456D01*
X867680Y443517D01*
X867713Y443550D01*
X867752Y443576D01*
X867832Y443665D01*
X867919Y443749D01*
X867944Y443789D01*
X867975Y443824D01*
X868032Y443930D01*
X868096Y444032D01*
X868111Y444077D01*
X868133Y444118D01*
X868163Y444235D01*
X868201Y444349D01*
X868205Y444395D01*
X868216Y444441D01*
X868218Y444561D01*
X868228Y444681D01*
X868220Y444728D01*
X868221Y444774D01*
X868194Y444892D01*
X868175Y445011D01*
X868157Y445054D01*
X868147Y445100D01*
X868093Y445207D01*
X868046Y445318D01*
X868019Y445353D01*
X867997Y445398D01*
X867882Y445532D01*
X867820Y445614D01*
X866306Y447128D01*
X863599Y453663D01*
X863599Y460737D01*
X866306Y467272D01*
X867947Y468913D01*
X867993Y468971D01*
X868046Y469022D01*
X868095Y469102D01*
X868153Y469175D01*
X868184Y469242D01*
X868223Y469305D01*
X868252Y469394D01*
X868291Y469479D01*
X868305Y469551D01*
X868328Y469622D01*
X868335Y469715D01*
X868353Y469807D01*
X868349Y469881D01*
X868355Y469954D01*
X868340Y470047D01*
X868335Y470140D01*
X868314Y470211D01*
X868302Y470284D01*
X868266Y470370D01*
X868239Y470459D01*
X868201Y470523D01*
X868173Y470591D01*
X868123Y470657D01*
X868070Y470747D01*
X867997Y470821D01*
X867947Y470887D01*
X866306Y472528D01*
X863599Y479063D01*
X863599Y486137D01*
X866306Y492672D01*
X867947Y494313D01*
X867993Y494371D01*
X868046Y494422D01*
X868095Y494502D01*
X868153Y494575D01*
X868184Y494642D01*
X868223Y494705D01*
X868252Y494794D01*
X868291Y494879D01*
X868305Y494951D01*
X868328Y495022D01*
X868335Y495115D01*
X868353Y495207D01*
X868349Y495281D01*
X868355Y495354D01*
X868340Y495447D01*
X868335Y495540D01*
X868314Y495611D01*
X868302Y495684D01*
X868266Y495770D01*
X868239Y495859D01*
X868201Y495923D01*
X868173Y495991D01*
X868123Y496057D01*
X868070Y496147D01*
X867997Y496221D01*
X867947Y496287D01*
X866306Y497928D01*
X863599Y504463D01*
X863599Y511537D01*
X866306Y518072D01*
X867947Y519713D01*
X867993Y519771D01*
X868046Y519822D01*
X868095Y519902D01*
X868153Y519975D01*
X868184Y520042D01*
X868223Y520105D01*
X868252Y520194D01*
X868291Y520279D01*
X868305Y520351D01*
X868328Y520422D01*
X868335Y520515D01*
X868353Y520607D01*
X868349Y520681D01*
X868355Y520754D01*
X868340Y520847D01*
X868335Y520940D01*
X868314Y521011D01*
X868302Y521084D01*
X868266Y521170D01*
X868239Y521259D01*
X868201Y521323D01*
X868173Y521391D01*
X868123Y521457D01*
X868070Y521547D01*
X867997Y521621D01*
X867947Y521687D01*
X866306Y523328D01*
X863599Y529863D01*
X863599Y536937D01*
X866306Y543472D01*
X871374Y548540D01*
X871404Y548556D01*
X871456Y548605D01*
X871514Y548646D01*
X871577Y548719D01*
X871648Y548784D01*
X871687Y548844D01*
X871734Y548898D01*
X871778Y548983D01*
X871830Y549063D01*
X871854Y549131D01*
X871887Y549194D01*
X871909Y549287D01*
X871942Y549378D01*
X871949Y549449D01*
X871966Y549518D01*
X871965Y549614D01*
X871975Y549710D01*
X871965Y549781D01*
X871965Y549852D01*
X871942Y549945D01*
X871929Y550040D01*
X871902Y550107D01*
X871885Y550176D01*
X871845Y550250D01*
X871806Y550350D01*
X871747Y550433D01*
X871709Y550504D01*
X870517Y552143D01*
X869610Y553925D01*
X868992Y555826D01*
X868823Y556896D01*
X880872Y556896D01*
X880945Y556905D01*
X881019Y556904D01*
X881110Y556924D01*
X881203Y556936D01*
X881272Y556962D01*
X881344Y556978D01*
X881376Y556994D01*
X881379Y556992D01*
X881451Y556973D01*
X881519Y556945D01*
X881601Y556934D01*
X881702Y556908D01*
X881806Y556907D01*
X881888Y556896D01*
X893937Y556896D01*
X893768Y555826D01*
X893150Y553925D01*
X892243Y552143D01*
X891051Y550504D01*
X891017Y550441D01*
X890974Y550384D01*
X890936Y550296D01*
X890889Y550212D01*
X890870Y550143D01*
X890842Y550078D01*
X890826Y549983D01*
X890800Y549891D01*
X890798Y549819D01*
X890786Y549749D01*
X890793Y549653D01*
X890790Y549557D01*
X890805Y549487D01*
X890810Y549416D01*
X890840Y549325D01*
X890860Y549231D01*
X890891Y549167D01*
X890913Y549099D01*
X890963Y549017D01*
X891005Y548931D01*
X891050Y548875D01*
X891088Y548815D01*
X891156Y548747D01*
X891217Y548673D01*
X891274Y548630D01*
X891325Y548580D01*
X891374Y548551D01*
X894686Y545240D01*
X894708Y545223D01*
X894725Y545202D01*
X894838Y545120D01*
X894948Y545034D01*
X894973Y545022D01*
X894995Y545006D01*
X895125Y544953D01*
X895252Y544896D01*
X895279Y544891D01*
X895304Y544880D01*
X895406Y544867D01*
X895580Y544834D01*
X895630Y544837D01*
X895673Y544831D01*
X914167Y544831D01*
X914194Y544834D01*
X914221Y544832D01*
X914359Y544854D01*
X914498Y544871D01*
X914524Y544880D01*
X914551Y544884D01*
X914680Y544939D01*
X914810Y544988D01*
X914833Y545003D01*
X914858Y545014D01*
X914940Y545076D01*
X915086Y545176D01*
X915120Y545213D01*
X915154Y545240D01*
X917800Y547886D01*
X917817Y547907D01*
X917838Y547925D01*
X917898Y548008D01*
X917942Y548057D01*
X917958Y548087D01*
X918006Y548148D01*
X918018Y548173D01*
X918034Y548195D01*
X918087Y548325D01*
X918089Y548330D01*
X918100Y548351D01*
X918102Y548360D01*
X918144Y548452D01*
X918149Y548479D01*
X918160Y548504D01*
X918173Y548606D01*
X918206Y548780D01*
X918203Y548830D01*
X918209Y548873D01*
X918209Y779547D01*
X918206Y779574D01*
X918208Y779601D01*
X918186Y779739D01*
X918169Y779878D01*
X918160Y779904D01*
X918156Y779931D01*
X918101Y780060D01*
X918052Y780190D01*
X918037Y780213D01*
X918026Y780238D01*
X917964Y780320D01*
X917864Y780466D01*
X917827Y780500D01*
X917800Y780534D01*
X821174Y877160D01*
X821153Y877177D01*
X821135Y877198D01*
X821022Y877280D01*
X820912Y877366D01*
X820887Y877378D01*
X820865Y877394D01*
X820735Y877447D01*
X820608Y877504D01*
X820581Y877509D01*
X820556Y877520D01*
X820454Y877533D01*
X820280Y877566D01*
X820230Y877563D01*
X820187Y877569D01*
X602213Y877569D01*
X602186Y877566D01*
X602159Y877568D01*
X602021Y877546D01*
X601882Y877529D01*
X601856Y877520D01*
X601829Y877516D01*
X601700Y877461D01*
X601570Y877412D01*
X601547Y877397D01*
X601522Y877386D01*
X601440Y877324D01*
X601294Y877224D01*
X601260Y877187D01*
X601226Y877160D01*
X595130Y871064D01*
X595055Y870970D01*
X594975Y870880D01*
X594953Y870839D01*
X594924Y870802D01*
X594874Y870692D01*
X594817Y870586D01*
X594805Y870541D01*
X594786Y870498D01*
X594764Y870380D01*
X594733Y870263D01*
X594733Y870216D01*
X594724Y870170D01*
X594730Y870050D01*
X594729Y869930D01*
X594739Y869884D01*
X594742Y869837D01*
X594776Y869722D01*
X594803Y869604D01*
X594824Y869563D01*
X594838Y869518D01*
X594899Y869414D01*
X594953Y869306D01*
X594983Y869271D01*
X595007Y869230D01*
X595091Y869144D01*
X595169Y869052D01*
X595207Y869025D01*
X595240Y868991D01*
X595342Y868927D01*
X595439Y868856D01*
X595483Y868839D01*
X595522Y868814D01*
X595637Y868776D01*
X595748Y868730D01*
X595791Y868725D01*
X595839Y868709D01*
X596015Y868694D01*
X596117Y868681D01*
X600437Y868681D01*
X606972Y865974D01*
X608613Y864333D01*
X608671Y864287D01*
X608722Y864234D01*
X608802Y864185D01*
X608875Y864127D01*
X608942Y864096D01*
X609005Y864057D01*
X609094Y864028D01*
X609179Y863989D01*
X609252Y863975D01*
X609322Y863952D01*
X609415Y863945D01*
X609507Y863927D01*
X609581Y863931D01*
X609654Y863925D01*
X609746Y863940D01*
X609840Y863945D01*
X609911Y863966D01*
X609984Y863978D01*
X610070Y864014D01*
X610159Y864041D01*
X610223Y864079D01*
X610291Y864107D01*
X610357Y864157D01*
X610447Y864210D01*
X610522Y864283D01*
X610587Y864333D01*
X612228Y865974D01*
X618763Y868681D01*
X625837Y868681D01*
X632372Y865974D01*
X634013Y864333D01*
X634071Y864287D01*
X634122Y864234D01*
X634202Y864185D01*
X634275Y864127D01*
X634342Y864096D01*
X634405Y864057D01*
X634494Y864028D01*
X634579Y863989D01*
X634652Y863975D01*
X634722Y863952D01*
X634815Y863945D01*
X634907Y863927D01*
X634981Y863931D01*
X635054Y863925D01*
X635146Y863940D01*
X635240Y863945D01*
X635311Y863966D01*
X635384Y863978D01*
X635470Y864014D01*
X635559Y864041D01*
X635623Y864079D01*
X635691Y864107D01*
X635757Y864157D01*
X635847Y864210D01*
X635922Y864283D01*
X635987Y864333D01*
X637628Y865974D01*
X644163Y868681D01*
X651237Y868681D01*
X657772Y865974D01*
X659413Y864333D01*
X659471Y864287D01*
X659522Y864234D01*
X659602Y864185D01*
X659675Y864127D01*
X659742Y864096D01*
X659805Y864057D01*
X659894Y864028D01*
X659979Y863989D01*
X660052Y863975D01*
X660122Y863952D01*
X660215Y863945D01*
X660307Y863927D01*
X660381Y863931D01*
X660454Y863925D01*
X660546Y863940D01*
X660640Y863945D01*
X660711Y863966D01*
X660784Y863978D01*
X660870Y864014D01*
X660959Y864041D01*
X661023Y864079D01*
X661091Y864107D01*
X661157Y864157D01*
X661247Y864210D01*
X661322Y864283D01*
X661387Y864333D01*
X663028Y865974D01*
X669563Y868681D01*
X676637Y868681D01*
X683172Y865974D01*
X684813Y864333D01*
X684871Y864287D01*
X684922Y864234D01*
X685002Y864185D01*
X685075Y864127D01*
X685142Y864096D01*
X685205Y864057D01*
X685294Y864028D01*
X685379Y863989D01*
X685452Y863975D01*
X685522Y863952D01*
X685615Y863945D01*
X685707Y863927D01*
X685781Y863931D01*
X685854Y863925D01*
X685946Y863940D01*
X686040Y863945D01*
X686111Y863966D01*
X686184Y863978D01*
X686270Y864014D01*
X686359Y864041D01*
X686423Y864079D01*
X686491Y864107D01*
X686557Y864157D01*
X686647Y864210D01*
X686722Y864283D01*
X686787Y864333D01*
X688428Y865974D01*
X694963Y868681D01*
X702037Y868681D01*
X708572Y865974D01*
X710213Y864333D01*
X710271Y864287D01*
X710322Y864234D01*
X710402Y864185D01*
X710475Y864127D01*
X710542Y864096D01*
X710605Y864057D01*
X710694Y864028D01*
X710779Y863989D01*
X710852Y863975D01*
X710922Y863952D01*
X711015Y863945D01*
X711107Y863927D01*
X711181Y863931D01*
X711254Y863925D01*
X711346Y863940D01*
X711440Y863945D01*
X711511Y863966D01*
X711584Y863978D01*
X711670Y864014D01*
X711759Y864041D01*
X711823Y864079D01*
X711891Y864107D01*
X711957Y864157D01*
X712047Y864210D01*
X712122Y864283D01*
X712187Y864333D01*
X713828Y865974D01*
X720363Y868681D01*
X727437Y868681D01*
X733972Y865974D01*
X735613Y864333D01*
X735671Y864287D01*
X735722Y864234D01*
X735802Y864185D01*
X735875Y864127D01*
X735942Y864096D01*
X736005Y864057D01*
X736094Y864028D01*
X736179Y863989D01*
X736251Y863975D01*
X736322Y863952D01*
X736415Y863945D01*
X736507Y863927D01*
X736581Y863931D01*
X736654Y863925D01*
X736747Y863940D01*
X736840Y863945D01*
X736911Y863966D01*
X736984Y863978D01*
X737070Y864014D01*
X737159Y864041D01*
X737223Y864079D01*
X737291Y864107D01*
X737357Y864157D01*
X737447Y864210D01*
X737521Y864283D01*
X737587Y864333D01*
X739228Y865974D01*
X745763Y868681D01*
X752837Y868681D01*
X759372Y865974D01*
X764374Y860972D01*
X767081Y854437D01*
X767081Y847363D01*
X764374Y840828D01*
X759372Y835826D01*
X752837Y833119D01*
X745763Y833119D01*
X739228Y835826D01*
X737587Y837467D01*
X737529Y837513D01*
X737478Y837566D01*
X737398Y837615D01*
X737325Y837673D01*
X737258Y837704D01*
X737195Y837743D01*
X737106Y837772D01*
X737021Y837811D01*
X736948Y837825D01*
X736878Y837848D01*
X736785Y837855D01*
X736693Y837873D01*
X736619Y837869D01*
X736546Y837875D01*
X736454Y837860D01*
X736360Y837855D01*
X736289Y837834D01*
X736216Y837822D01*
X736130Y837786D01*
X736041Y837759D01*
X735977Y837721D01*
X735909Y837693D01*
X735843Y837643D01*
X735753Y837590D01*
X735678Y837517D01*
X735613Y837467D01*
X733972Y835826D01*
X727437Y833119D01*
X720363Y833119D01*
X713828Y835826D01*
X712187Y837467D01*
X712129Y837513D01*
X712078Y837566D01*
X711998Y837615D01*
X711925Y837673D01*
X711858Y837704D01*
X711795Y837743D01*
X711706Y837772D01*
X711621Y837811D01*
X711549Y837825D01*
X711478Y837848D01*
X711385Y837855D01*
X711293Y837873D01*
X711219Y837869D01*
X711146Y837875D01*
X711053Y837860D01*
X710960Y837855D01*
X710889Y837834D01*
X710816Y837822D01*
X710730Y837786D01*
X710641Y837759D01*
X710577Y837721D01*
X710509Y837693D01*
X710443Y837643D01*
X710353Y837590D01*
X710279Y837517D01*
X710213Y837467D01*
X708572Y835826D01*
X702037Y833119D01*
X694963Y833119D01*
X688428Y835826D01*
X686787Y837467D01*
X686729Y837513D01*
X686678Y837566D01*
X686598Y837615D01*
X686525Y837673D01*
X686458Y837704D01*
X686395Y837743D01*
X686306Y837772D01*
X686221Y837811D01*
X686149Y837825D01*
X686078Y837848D01*
X685985Y837855D01*
X685893Y837873D01*
X685819Y837869D01*
X685746Y837875D01*
X685653Y837860D01*
X685560Y837855D01*
X685489Y837834D01*
X685416Y837822D01*
X685330Y837786D01*
X685241Y837759D01*
X685177Y837721D01*
X685109Y837693D01*
X685043Y837643D01*
X684953Y837590D01*
X684879Y837517D01*
X684813Y837467D01*
X683172Y835826D01*
X676637Y833119D01*
X669563Y833119D01*
X663028Y835826D01*
X661387Y837467D01*
X661329Y837513D01*
X661278Y837566D01*
X661198Y837615D01*
X661125Y837673D01*
X661058Y837704D01*
X660995Y837743D01*
X660906Y837772D01*
X660821Y837811D01*
X660749Y837825D01*
X660678Y837848D01*
X660585Y837855D01*
X660493Y837873D01*
X660419Y837869D01*
X660346Y837875D01*
X660253Y837860D01*
X660160Y837855D01*
X660089Y837834D01*
X660016Y837822D01*
X659930Y837786D01*
X659841Y837759D01*
X659777Y837721D01*
X659709Y837693D01*
X659643Y837643D01*
X659553Y837590D01*
X659479Y837517D01*
X659413Y837467D01*
X657772Y835826D01*
X651237Y833119D01*
X644163Y833119D01*
X637628Y835826D01*
X635987Y837467D01*
X635929Y837513D01*
X635878Y837566D01*
X635798Y837615D01*
X635725Y837673D01*
X635658Y837704D01*
X635595Y837743D01*
X635506Y837772D01*
X635421Y837811D01*
X635349Y837825D01*
X635278Y837848D01*
X635185Y837855D01*
X635093Y837873D01*
X635019Y837869D01*
X634946Y837875D01*
X634853Y837860D01*
X634760Y837855D01*
X634689Y837834D01*
X634616Y837822D01*
X634530Y837786D01*
X634441Y837759D01*
X634377Y837721D01*
X634309Y837693D01*
X634243Y837643D01*
X634153Y837590D01*
X634079Y837517D01*
X634013Y837467D01*
X632372Y835826D01*
X625837Y833119D01*
X618763Y833119D01*
X612228Y835826D01*
X610587Y837467D01*
X610529Y837513D01*
X610478Y837566D01*
X610398Y837615D01*
X610325Y837673D01*
X610258Y837704D01*
X610195Y837743D01*
X610106Y837772D01*
X610021Y837811D01*
X609949Y837825D01*
X609878Y837848D01*
X609785Y837855D01*
X609693Y837873D01*
X609619Y837869D01*
X609546Y837875D01*
X609453Y837860D01*
X609360Y837855D01*
X609289Y837834D01*
X609216Y837822D01*
X609130Y837786D01*
X609041Y837759D01*
X608977Y837721D01*
X608909Y837693D01*
X608843Y837643D01*
X608753Y837590D01*
X608679Y837517D01*
X608613Y837467D01*
X606972Y835826D01*
X600437Y833119D01*
X593363Y833119D01*
X586828Y835826D01*
X585187Y837467D01*
X585129Y837513D01*
X585078Y837566D01*
X584998Y837615D01*
X584925Y837673D01*
X584858Y837704D01*
X584795Y837743D01*
X584706Y837772D01*
X584621Y837811D01*
X584549Y837825D01*
X584478Y837848D01*
X584385Y837855D01*
X584293Y837873D01*
X584219Y837869D01*
X584146Y837875D01*
X584053Y837860D01*
X583960Y837855D01*
X583889Y837834D01*
X583816Y837822D01*
X583730Y837786D01*
X583641Y837759D01*
X583577Y837721D01*
X583509Y837693D01*
X583443Y837643D01*
X583353Y837590D01*
X583279Y837517D01*
X583213Y837467D01*
X581572Y835826D01*
X575037Y833119D01*
X567963Y833119D01*
X561428Y835826D01*
X556426Y840828D01*
X553719Y847363D01*
X553719Y854437D01*
X556426Y860972D01*
X559660Y864206D01*
X559677Y864228D01*
X559698Y864245D01*
X559780Y864359D01*
X559866Y864468D01*
X559878Y864493D01*
X559894Y864515D01*
X559947Y864645D01*
X560004Y864772D01*
X560009Y864799D01*
X560020Y864824D01*
X560033Y864926D01*
X560066Y865100D01*
X560063Y865150D01*
X560069Y865193D01*
X560069Y865874D01*
X561809Y870075D01*
X566920Y875186D01*
X566995Y875280D01*
X567075Y875370D01*
X567097Y875411D01*
X567126Y875448D01*
X567176Y875558D01*
X567233Y875664D01*
X567245Y875709D01*
X567264Y875752D01*
X567286Y875870D01*
X567317Y875987D01*
X567317Y876034D01*
X567326Y876080D01*
X567320Y876200D01*
X567321Y876320D01*
X567311Y876366D01*
X567308Y876413D01*
X567274Y876528D01*
X567247Y876646D01*
X567226Y876687D01*
X567212Y876732D01*
X567151Y876836D01*
X567097Y876944D01*
X567067Y876979D01*
X567043Y877020D01*
X566959Y877106D01*
X566881Y877198D01*
X566843Y877225D01*
X566810Y877259D01*
X566708Y877323D01*
X566611Y877394D01*
X566567Y877411D01*
X566528Y877436D01*
X566413Y877474D01*
X566302Y877520D01*
X566259Y877525D01*
X566211Y877541D01*
X566035Y877556D01*
X565933Y877569D01*
X241427Y877569D01*
X241353Y877560D01*
X241280Y877561D01*
X241189Y877541D01*
X241096Y877529D01*
X241026Y877503D01*
X240954Y877487D01*
X240871Y877445D01*
X240783Y877412D01*
X240722Y877370D01*
X240656Y877337D01*
X240585Y877277D01*
X240508Y877224D01*
X240458Y877169D01*
X240402Y877121D01*
X240347Y877046D01*
X240285Y876976D01*
X240250Y876911D01*
X240206Y876851D01*
X240171Y876764D01*
X240127Y876682D01*
X240108Y876610D01*
X240080Y876542D01*
X240069Y876460D01*
X240043Y876359D01*
X240042Y876255D01*
X240031Y876173D01*
X240031Y708926D01*
X238291Y704725D01*
X234090Y700524D01*
X234073Y700503D01*
X234052Y700485D01*
X233970Y700372D01*
X233884Y700262D01*
X233872Y700237D01*
X233856Y700215D01*
X233803Y700085D01*
X233746Y699958D01*
X233741Y699931D01*
X233730Y699906D01*
X233717Y699804D01*
X233684Y699630D01*
X233687Y699580D01*
X233681Y699537D01*
X233681Y694963D01*
X230974Y688428D01*
X229460Y686914D01*
X229386Y686820D01*
X229305Y686730D01*
X229283Y686689D01*
X229254Y686652D01*
X229204Y686542D01*
X229147Y686436D01*
X229135Y686391D01*
X229116Y686348D01*
X229094Y686230D01*
X229064Y686113D01*
X229063Y686066D01*
X229054Y686020D01*
X229061Y685900D01*
X229059Y685780D01*
X229069Y685734D01*
X229072Y685687D01*
X229107Y685572D01*
X229133Y685454D01*
X229154Y685413D01*
X229168Y685368D01*
X229229Y685264D01*
X229283Y685156D01*
X229313Y685121D01*
X229337Y685080D01*
X229421Y684994D01*
X229499Y684902D01*
X229537Y684875D01*
X229570Y684841D01*
X229672Y684777D01*
X229769Y684706D01*
X229813Y684689D01*
X229852Y684664D01*
X229967Y684626D01*
X230078Y684580D01*
X230121Y684575D01*
X230169Y684559D01*
X230345Y684544D01*
X230447Y684531D01*
X319774Y684531D01*
X323975Y682791D01*
X327387Y679379D01*
X386336Y620430D01*
X386431Y620355D01*
X386520Y620275D01*
X386561Y620253D01*
X386598Y620224D01*
X386708Y620174D01*
X386814Y620117D01*
X386859Y620105D01*
X386902Y620086D01*
X387020Y620064D01*
X387137Y620033D01*
X387184Y620033D01*
X387230Y620024D01*
X387350Y620030D01*
X387470Y620029D01*
X387516Y620039D01*
X387563Y620042D01*
X387678Y620076D01*
X387796Y620103D01*
X387837Y620124D01*
X387882Y620138D01*
X387986Y620199D01*
X388094Y620253D01*
X388129Y620283D01*
X388170Y620307D01*
X388256Y620391D01*
X388348Y620469D01*
X388375Y620507D01*
X388409Y620540D01*
X388473Y620642D01*
X388544Y620739D01*
X388561Y620783D01*
X388586Y620822D01*
X388624Y620937D01*
X388670Y621048D01*
X388675Y621091D01*
X388691Y621139D01*
X388701Y621255D01*
X388707Y621279D01*
X388708Y621330D01*
X388719Y621417D01*
X388719Y625937D01*
X391426Y632472D01*
X393067Y634113D01*
X393113Y634171D01*
X393166Y634222D01*
X393215Y634302D01*
X393273Y634375D01*
X393304Y634442D01*
X393343Y634505D01*
X393372Y634594D01*
X393411Y634679D01*
X393425Y634752D01*
X393448Y634822D01*
X393455Y634915D01*
X393473Y635007D01*
X393469Y635081D01*
X393475Y635154D01*
X393460Y635246D01*
X393455Y635340D01*
X393434Y635411D01*
X393422Y635484D01*
X393386Y635570D01*
X393359Y635659D01*
X393321Y635723D01*
X393293Y635791D01*
X393243Y635857D01*
X393190Y635947D01*
X393117Y636022D01*
X393067Y636087D01*
X391426Y637728D01*
X388719Y644263D01*
X388719Y651337D01*
X391426Y657872D01*
X394660Y661106D01*
X394677Y661128D01*
X394698Y661145D01*
X394780Y661259D01*
X394866Y661368D01*
X394878Y661393D01*
X394894Y661415D01*
X394947Y661545D01*
X395004Y661672D01*
X395009Y661699D01*
X395020Y661724D01*
X395033Y661826D01*
X395066Y662000D01*
X395063Y662050D01*
X395069Y662093D01*
X395069Y684107D01*
X395066Y684134D01*
X395068Y684161D01*
X395046Y684299D01*
X395029Y684438D01*
X395020Y684463D01*
X395016Y684490D01*
X394961Y684619D01*
X394912Y684750D01*
X394897Y684773D01*
X394886Y684798D01*
X394824Y684880D01*
X394724Y685026D01*
X394687Y685059D01*
X394660Y685094D01*
X391326Y688428D01*
X388619Y694963D01*
X388619Y702037D01*
X391326Y708572D01*
X396328Y713574D01*
X402863Y716281D01*
X409937Y716281D01*
X416472Y713574D01*
X419706Y710340D01*
X419728Y710323D01*
X419745Y710302D01*
X419858Y710220D01*
X419968Y710134D01*
X419993Y710122D01*
X420015Y710106D01*
X420145Y710053D01*
X420272Y709996D01*
X420299Y709991D01*
X420324Y709980D01*
X420426Y709967D01*
X420600Y709934D01*
X420650Y709937D01*
X420693Y709931D01*
X528087Y709931D01*
X528114Y709934D01*
X528141Y709932D01*
X528279Y709954D01*
X528418Y709971D01*
X528444Y709980D01*
X528471Y709984D01*
X528600Y710039D01*
X528730Y710088D01*
X528753Y710103D01*
X528778Y710114D01*
X528860Y710176D01*
X529006Y710276D01*
X529040Y710313D01*
X529074Y710340D01*
X559660Y740926D01*
X559677Y740947D01*
X559698Y740965D01*
X559780Y741078D01*
X559866Y741188D01*
X559878Y741213D01*
X559894Y741235D01*
X559947Y741365D01*
X560004Y741492D01*
X560009Y741519D01*
X560020Y741544D01*
X560033Y741646D01*
X560066Y741820D01*
X560063Y741870D01*
X560069Y741913D01*
X560069Y760407D01*
X560066Y760434D01*
X560068Y760461D01*
X560046Y760599D01*
X560029Y760738D01*
X560020Y760763D01*
X560016Y760790D01*
X559961Y760919D01*
X559912Y761050D01*
X559897Y761073D01*
X559886Y761098D01*
X559824Y761180D01*
X559724Y761326D01*
X559687Y761359D01*
X559660Y761394D01*
X556426Y764628D01*
X553719Y771163D01*
X553719Y778237D01*
X556426Y784772D01*
X561428Y789774D01*
X567963Y792481D01*
X575037Y792481D01*
X581572Y789774D01*
X583213Y788133D01*
X583271Y788087D01*
X583322Y788034D01*
X583402Y787985D01*
X583475Y787927D01*
X583542Y787896D01*
X583605Y787857D01*
X583694Y787828D01*
X583779Y787789D01*
X583851Y787775D01*
X583922Y787752D01*
X584015Y787745D01*
X584107Y787727D01*
X584181Y787731D01*
X584254Y787725D01*
X584347Y787740D01*
X584440Y787745D01*
X584511Y787766D01*
X584584Y787778D01*
X584670Y787814D01*
X584759Y787841D01*
X584823Y787879D01*
X584891Y787907D01*
X584957Y787957D01*
X585047Y788010D01*
X585121Y788083D01*
X585187Y788133D01*
X586828Y789774D01*
X593363Y792481D01*
X600437Y792481D01*
X606972Y789774D01*
X608486Y788260D01*
X608580Y788186D01*
X608670Y788105D01*
X608711Y788083D01*
X608748Y788054D01*
X608858Y788004D01*
X608964Y787947D01*
X609009Y787935D01*
X609052Y787916D01*
X609170Y787894D01*
X609287Y787864D01*
X609334Y787863D01*
X609380Y787854D01*
X609500Y787861D01*
X609620Y787859D01*
X609666Y787869D01*
X609713Y787872D01*
X609828Y787907D01*
X609946Y787933D01*
X609987Y787954D01*
X610032Y787968D01*
X610136Y788029D01*
X610244Y788083D01*
X610279Y788113D01*
X610320Y788137D01*
X610406Y788221D01*
X610498Y788299D01*
X610525Y788337D01*
X610559Y788370D01*
X610623Y788472D01*
X610694Y788569D01*
X610711Y788613D01*
X610736Y788652D01*
X610774Y788767D01*
X610820Y788878D01*
X610825Y788921D01*
X610841Y788969D01*
X610856Y789145D01*
X610869Y789247D01*
X610869Y802374D01*
X612609Y806575D01*
X628525Y822491D01*
X632726Y824231D01*
X845554Y824231D01*
X849755Y822491D01*
X852971Y819275D01*
X854711Y815074D01*
X854711Y449813D01*
X854714Y449786D01*
X854712Y449759D01*
X854734Y449621D01*
X854751Y449482D01*
X854760Y449456D01*
X854764Y449429D01*
X854819Y449300D01*
X854868Y449170D01*
X854883Y449147D01*
X854894Y449122D01*
X854956Y449040D01*
X855056Y448894D01*
X855093Y448860D01*
X855120Y448826D01*
X860306Y443640D01*
X860327Y443623D01*
X860345Y443602D01*
X860458Y443520D01*
X860568Y443434D01*
X860593Y443422D01*
X860615Y443406D01*
X860745Y443353D01*
X860872Y443296D01*
X860899Y443291D01*
X860924Y443280D01*
X861026Y443267D01*
X861200Y443234D01*
X861250Y443237D01*
X861293Y443231D01*
X866833Y443231D01*
X866952Y443245D01*
G37*
G36*
X827834Y359414D02*
X827834Y359414D01*
X827861Y359412D01*
X827999Y359434D01*
X828138Y359451D01*
X828164Y359460D01*
X828191Y359464D01*
X828320Y359519D01*
X828450Y359568D01*
X828473Y359583D01*
X828498Y359594D01*
X828580Y359656D01*
X828726Y359756D01*
X828760Y359793D01*
X828794Y359820D01*
X831440Y362466D01*
X831457Y362487D01*
X831478Y362505D01*
X831560Y362618D01*
X831646Y362728D01*
X831658Y362753D01*
X831674Y362775D01*
X831727Y362905D01*
X831784Y363032D01*
X831789Y363059D01*
X831800Y363084D01*
X831813Y363186D01*
X831846Y363360D01*
X831843Y363410D01*
X831849Y363453D01*
X831849Y395974D01*
X833589Y400175D01*
X837001Y403587D01*
X846093Y412679D01*
X849505Y416091D01*
X853656Y417810D01*
X853761Y417869D01*
X853870Y417921D01*
X853906Y417951D01*
X853947Y417974D01*
X854035Y418056D01*
X854128Y418132D01*
X854157Y418170D01*
X854191Y418201D01*
X854257Y418302D01*
X854329Y418398D01*
X854348Y418442D01*
X854373Y418481D01*
X854414Y418594D01*
X854461Y418705D01*
X854469Y418751D01*
X854485Y418795D01*
X854497Y418915D01*
X854517Y419034D01*
X854513Y419080D01*
X854518Y419127D01*
X854501Y419247D01*
X854493Y419367D01*
X854478Y419411D01*
X854472Y419458D01*
X854427Y419569D01*
X854390Y419684D01*
X854366Y419724D01*
X854348Y419767D01*
X854279Y419865D01*
X854215Y419968D01*
X854182Y420001D01*
X854155Y420039D01*
X854064Y420118D01*
X853978Y420203D01*
X853941Y420225D01*
X853903Y420258D01*
X853745Y420338D01*
X853656Y420390D01*
X849505Y422109D01*
X833589Y438025D01*
X831849Y442226D01*
X831849Y799973D01*
X831840Y800047D01*
X831841Y800120D01*
X831821Y800211D01*
X831809Y800304D01*
X831783Y800374D01*
X831767Y800446D01*
X831725Y800529D01*
X831692Y800617D01*
X831650Y800678D01*
X831617Y800744D01*
X831557Y800815D01*
X831504Y800892D01*
X831449Y800942D01*
X831401Y800998D01*
X831326Y801053D01*
X831256Y801115D01*
X831191Y801150D01*
X831131Y801194D01*
X831044Y801229D01*
X830962Y801273D01*
X830890Y801292D01*
X830822Y801320D01*
X830740Y801331D01*
X830639Y801357D01*
X830535Y801358D01*
X830453Y801369D01*
X640313Y801369D01*
X640286Y801366D01*
X640259Y801368D01*
X640121Y801346D01*
X639982Y801329D01*
X639956Y801320D01*
X639929Y801316D01*
X639800Y801261D01*
X639670Y801212D01*
X639647Y801197D01*
X639622Y801186D01*
X639540Y801124D01*
X639394Y801024D01*
X639360Y800987D01*
X639326Y800960D01*
X634140Y795774D01*
X634123Y795753D01*
X634102Y795735D01*
X634020Y795622D01*
X633934Y795512D01*
X633922Y795487D01*
X633906Y795465D01*
X633853Y795335D01*
X633796Y795208D01*
X633791Y795181D01*
X633780Y795156D01*
X633767Y795054D01*
X633734Y794880D01*
X633737Y794830D01*
X633731Y794787D01*
X633731Y789247D01*
X633745Y789128D01*
X633751Y789007D01*
X633765Y788963D01*
X633771Y788916D01*
X633813Y788803D01*
X633848Y788688D01*
X633871Y788648D01*
X633888Y788604D01*
X633956Y788504D01*
X634017Y788400D01*
X634050Y788367D01*
X634076Y788328D01*
X634165Y788248D01*
X634249Y788161D01*
X634289Y788136D01*
X634324Y788105D01*
X634430Y788048D01*
X634532Y787984D01*
X634577Y787969D01*
X634618Y787947D01*
X634735Y787917D01*
X634849Y787879D01*
X634895Y787875D01*
X634941Y787864D01*
X635061Y787862D01*
X635181Y787852D01*
X635228Y787860D01*
X635274Y787859D01*
X635392Y787886D01*
X635511Y787905D01*
X635554Y787923D01*
X635600Y787933D01*
X635707Y787987D01*
X635818Y788034D01*
X635853Y788061D01*
X635898Y788083D01*
X636032Y788198D01*
X636114Y788260D01*
X637628Y789774D01*
X644163Y792481D01*
X651237Y792481D01*
X657772Y789774D01*
X659413Y788133D01*
X659471Y788087D01*
X659522Y788034D01*
X659602Y787985D01*
X659675Y787927D01*
X659742Y787896D01*
X659805Y787857D01*
X659894Y787828D01*
X659979Y787789D01*
X660051Y787775D01*
X660122Y787752D01*
X660215Y787745D01*
X660307Y787727D01*
X660381Y787731D01*
X660454Y787725D01*
X660547Y787740D01*
X660640Y787745D01*
X660711Y787766D01*
X660784Y787778D01*
X660870Y787814D01*
X660959Y787841D01*
X661023Y787879D01*
X661091Y787907D01*
X661157Y787957D01*
X661247Y788010D01*
X661321Y788083D01*
X661387Y788133D01*
X663028Y789774D01*
X669563Y792481D01*
X676637Y792481D01*
X683172Y789774D01*
X684813Y788133D01*
X684871Y788087D01*
X684922Y788034D01*
X685002Y787985D01*
X685075Y787927D01*
X685142Y787896D01*
X685205Y787857D01*
X685294Y787828D01*
X685379Y787789D01*
X685452Y787775D01*
X685522Y787752D01*
X685615Y787745D01*
X685707Y787727D01*
X685781Y787731D01*
X685854Y787725D01*
X685946Y787740D01*
X686040Y787745D01*
X686111Y787766D01*
X686184Y787778D01*
X686270Y787814D01*
X686359Y787841D01*
X686423Y787879D01*
X686491Y787907D01*
X686557Y787957D01*
X686647Y788010D01*
X686722Y788083D01*
X686787Y788133D01*
X688428Y789774D01*
X694963Y792481D01*
X702037Y792481D01*
X708572Y789774D01*
X710213Y788133D01*
X710271Y788087D01*
X710322Y788034D01*
X710402Y787985D01*
X710475Y787927D01*
X710542Y787896D01*
X710605Y787857D01*
X710694Y787828D01*
X710779Y787789D01*
X710852Y787775D01*
X710922Y787752D01*
X711015Y787745D01*
X711107Y787727D01*
X711181Y787731D01*
X711254Y787725D01*
X711346Y787740D01*
X711440Y787745D01*
X711511Y787766D01*
X711584Y787778D01*
X711670Y787814D01*
X711759Y787841D01*
X711823Y787879D01*
X711891Y787907D01*
X711957Y787957D01*
X712047Y788010D01*
X712122Y788083D01*
X712187Y788133D01*
X713828Y789774D01*
X720363Y792481D01*
X727437Y792481D01*
X733972Y789774D01*
X739040Y784706D01*
X739056Y784676D01*
X739105Y784624D01*
X739146Y784566D01*
X739219Y784503D01*
X739284Y784432D01*
X739344Y784393D01*
X739398Y784346D01*
X739483Y784302D01*
X739563Y784250D01*
X739631Y784226D01*
X739694Y784193D01*
X739787Y784171D01*
X739878Y784138D01*
X739949Y784131D01*
X740018Y784114D01*
X740114Y784115D01*
X740210Y784105D01*
X740281Y784115D01*
X740352Y784115D01*
X740445Y784138D01*
X740540Y784151D01*
X740607Y784178D01*
X740676Y784195D01*
X740750Y784235D01*
X740850Y784274D01*
X740933Y784333D01*
X741004Y784371D01*
X742643Y785563D01*
X744425Y786470D01*
X746326Y787088D01*
X747396Y787257D01*
X747396Y775208D01*
X747405Y775135D01*
X747404Y775061D01*
X747424Y774970D01*
X747436Y774877D01*
X747462Y774808D01*
X747478Y774736D01*
X747494Y774704D01*
X747492Y774701D01*
X747473Y774629D01*
X747445Y774561D01*
X747434Y774479D01*
X747408Y774378D01*
X747407Y774274D01*
X747396Y774192D01*
X747396Y762143D01*
X746326Y762312D01*
X744425Y762930D01*
X742643Y763837D01*
X741004Y765029D01*
X740941Y765063D01*
X740884Y765106D01*
X740796Y765144D01*
X740712Y765191D01*
X740643Y765210D01*
X740578Y765238D01*
X740483Y765254D01*
X740391Y765280D01*
X740319Y765282D01*
X740249Y765294D01*
X740153Y765287D01*
X740057Y765290D01*
X739987Y765275D01*
X739916Y765270D01*
X739825Y765240D01*
X739731Y765220D01*
X739667Y765189D01*
X739599Y765167D01*
X739517Y765117D01*
X739431Y765075D01*
X739375Y765030D01*
X739315Y764992D01*
X739247Y764924D01*
X739173Y764863D01*
X739130Y764806D01*
X739080Y764755D01*
X739051Y764706D01*
X733972Y759626D01*
X727437Y756919D01*
X720363Y756919D01*
X713828Y759626D01*
X712187Y761267D01*
X712129Y761313D01*
X712078Y761366D01*
X711998Y761415D01*
X711925Y761473D01*
X711858Y761504D01*
X711795Y761543D01*
X711706Y761572D01*
X711621Y761611D01*
X711549Y761625D01*
X711478Y761648D01*
X711385Y761655D01*
X711293Y761673D01*
X711219Y761669D01*
X711146Y761675D01*
X711053Y761660D01*
X710960Y761655D01*
X710889Y761634D01*
X710816Y761622D01*
X710730Y761586D01*
X710641Y761559D01*
X710577Y761521D01*
X710509Y761493D01*
X710443Y761443D01*
X710353Y761390D01*
X710279Y761317D01*
X710213Y761267D01*
X708572Y759626D01*
X702037Y756919D01*
X694963Y756919D01*
X688428Y759626D01*
X686787Y761267D01*
X686729Y761313D01*
X686678Y761366D01*
X686598Y761415D01*
X686525Y761473D01*
X686458Y761504D01*
X686395Y761543D01*
X686306Y761572D01*
X686221Y761611D01*
X686149Y761625D01*
X686078Y761648D01*
X685985Y761655D01*
X685893Y761673D01*
X685819Y761669D01*
X685746Y761675D01*
X685653Y761660D01*
X685560Y761655D01*
X685489Y761634D01*
X685416Y761622D01*
X685330Y761586D01*
X685241Y761559D01*
X685177Y761521D01*
X685109Y761493D01*
X685043Y761443D01*
X684953Y761390D01*
X684879Y761317D01*
X684813Y761267D01*
X683172Y759626D01*
X676637Y756919D01*
X669563Y756919D01*
X663028Y759626D01*
X661387Y761267D01*
X661329Y761313D01*
X661278Y761366D01*
X661198Y761415D01*
X661125Y761473D01*
X661058Y761504D01*
X660995Y761543D01*
X660906Y761572D01*
X660821Y761611D01*
X660748Y761625D01*
X660678Y761648D01*
X660585Y761655D01*
X660493Y761673D01*
X660419Y761669D01*
X660346Y761675D01*
X660254Y761660D01*
X660160Y761655D01*
X660089Y761634D01*
X660016Y761622D01*
X659930Y761586D01*
X659841Y761559D01*
X659777Y761521D01*
X659709Y761493D01*
X659643Y761443D01*
X659553Y761390D01*
X659478Y761317D01*
X659413Y761267D01*
X657772Y759626D01*
X651237Y756919D01*
X644163Y756919D01*
X637628Y759626D01*
X635987Y761267D01*
X635929Y761313D01*
X635878Y761366D01*
X635798Y761415D01*
X635725Y761473D01*
X635658Y761504D01*
X635595Y761543D01*
X635506Y761572D01*
X635421Y761611D01*
X635348Y761625D01*
X635278Y761648D01*
X635185Y761655D01*
X635093Y761673D01*
X635019Y761669D01*
X634946Y761675D01*
X634854Y761660D01*
X634760Y761655D01*
X634689Y761634D01*
X634616Y761622D01*
X634530Y761586D01*
X634441Y761559D01*
X634377Y761521D01*
X634309Y761493D01*
X634243Y761443D01*
X634153Y761390D01*
X634078Y761317D01*
X634013Y761267D01*
X632372Y759626D01*
X625837Y756919D01*
X618763Y756919D01*
X612228Y759626D01*
X610714Y761140D01*
X610620Y761214D01*
X610530Y761295D01*
X610489Y761317D01*
X610452Y761346D01*
X610342Y761396D01*
X610236Y761453D01*
X610191Y761465D01*
X610148Y761484D01*
X610030Y761506D01*
X609913Y761536D01*
X609866Y761537D01*
X609820Y761546D01*
X609700Y761539D01*
X609580Y761541D01*
X609534Y761531D01*
X609487Y761528D01*
X609372Y761493D01*
X609254Y761467D01*
X609213Y761446D01*
X609168Y761432D01*
X609064Y761371D01*
X608956Y761317D01*
X608921Y761287D01*
X608880Y761263D01*
X608794Y761179D01*
X608702Y761101D01*
X608675Y761063D01*
X608641Y761030D01*
X608577Y760928D01*
X608506Y760831D01*
X608489Y760787D01*
X608464Y760748D01*
X608426Y760633D01*
X608380Y760522D01*
X608375Y760479D01*
X608359Y760431D01*
X608344Y760255D01*
X608331Y760153D01*
X608331Y386313D01*
X608334Y386286D01*
X608332Y386259D01*
X608354Y386121D01*
X608371Y385982D01*
X608380Y385956D01*
X608384Y385929D01*
X608439Y385800D01*
X608488Y385670D01*
X608503Y385647D01*
X608514Y385622D01*
X608576Y385540D01*
X608676Y385394D01*
X608713Y385360D01*
X608740Y385326D01*
X613926Y380140D01*
X613947Y380123D01*
X613965Y380102D01*
X614078Y380020D01*
X614188Y379934D01*
X614213Y379922D01*
X614235Y379906D01*
X614365Y379853D01*
X614492Y379796D01*
X614519Y379791D01*
X614544Y379780D01*
X614646Y379767D01*
X614820Y379734D01*
X614870Y379737D01*
X614913Y379731D01*
X643953Y379731D01*
X644072Y379745D01*
X644193Y379751D01*
X644237Y379765D01*
X644284Y379771D01*
X644397Y379813D01*
X644512Y379848D01*
X644552Y379871D01*
X644596Y379888D01*
X644696Y379956D01*
X644800Y380017D01*
X644833Y380050D01*
X644872Y380076D01*
X644952Y380165D01*
X645039Y380249D01*
X645064Y380289D01*
X645095Y380324D01*
X645152Y380430D01*
X645216Y380532D01*
X645231Y380577D01*
X645253Y380618D01*
X645283Y380735D01*
X645321Y380849D01*
X645325Y380895D01*
X645336Y380941D01*
X645338Y381061D01*
X645348Y381181D01*
X645340Y381228D01*
X645341Y381274D01*
X645314Y381392D01*
X645295Y381511D01*
X645277Y381554D01*
X645267Y381600D01*
X645213Y381707D01*
X645166Y381818D01*
X645139Y381853D01*
X645117Y381898D01*
X645002Y382032D01*
X644940Y382114D01*
X643326Y383728D01*
X640619Y390263D01*
X640619Y397337D01*
X643326Y403872D01*
X644967Y405513D01*
X645013Y405571D01*
X645066Y405622D01*
X645115Y405702D01*
X645173Y405775D01*
X645204Y405842D01*
X645243Y405905D01*
X645272Y405994D01*
X645311Y406079D01*
X645325Y406152D01*
X645348Y406222D01*
X645355Y406315D01*
X645373Y406407D01*
X645369Y406481D01*
X645375Y406554D01*
X645360Y406646D01*
X645355Y406740D01*
X645334Y406811D01*
X645322Y406884D01*
X645286Y406970D01*
X645259Y407059D01*
X645221Y407123D01*
X645193Y407191D01*
X645143Y407257D01*
X645090Y407347D01*
X645017Y407422D01*
X644967Y407487D01*
X643326Y409128D01*
X640619Y415663D01*
X640619Y422737D01*
X643326Y429272D01*
X644967Y430913D01*
X645013Y430971D01*
X645066Y431022D01*
X645115Y431102D01*
X645173Y431175D01*
X645204Y431242D01*
X645243Y431305D01*
X645272Y431394D01*
X645311Y431479D01*
X645325Y431552D01*
X645348Y431622D01*
X645355Y431715D01*
X645373Y431807D01*
X645369Y431881D01*
X645375Y431954D01*
X645360Y432046D01*
X645355Y432140D01*
X645334Y432211D01*
X645322Y432284D01*
X645286Y432370D01*
X645259Y432459D01*
X645221Y432523D01*
X645193Y432591D01*
X645143Y432657D01*
X645090Y432747D01*
X645017Y432822D01*
X644967Y432887D01*
X643326Y434528D01*
X640619Y441063D01*
X640619Y448137D01*
X643326Y454672D01*
X644967Y456313D01*
X645013Y456371D01*
X645066Y456422D01*
X645115Y456502D01*
X645173Y456575D01*
X645204Y456642D01*
X645243Y456705D01*
X645272Y456794D01*
X645311Y456879D01*
X645325Y456952D01*
X645348Y457022D01*
X645355Y457115D01*
X645373Y457207D01*
X645369Y457281D01*
X645375Y457354D01*
X645360Y457446D01*
X645355Y457540D01*
X645334Y457611D01*
X645322Y457684D01*
X645286Y457770D01*
X645259Y457859D01*
X645221Y457923D01*
X645193Y457991D01*
X645143Y458057D01*
X645090Y458147D01*
X645017Y458222D01*
X644967Y458287D01*
X643326Y459928D01*
X640619Y466463D01*
X640619Y473537D01*
X643326Y480072D01*
X648394Y485140D01*
X648424Y485156D01*
X648476Y485205D01*
X648534Y485246D01*
X648597Y485319D01*
X648668Y485384D01*
X648707Y485444D01*
X648754Y485498D01*
X648798Y485583D01*
X648850Y485663D01*
X648874Y485731D01*
X648907Y485794D01*
X648929Y485887D01*
X648962Y485978D01*
X648969Y486049D01*
X648986Y486118D01*
X648985Y486214D01*
X648995Y486310D01*
X648985Y486381D01*
X648985Y486452D01*
X648962Y486545D01*
X648949Y486640D01*
X648922Y486707D01*
X648905Y486776D01*
X648865Y486850D01*
X648826Y486950D01*
X648767Y487033D01*
X648729Y487104D01*
X647537Y488743D01*
X646630Y490525D01*
X646012Y492426D01*
X645843Y493496D01*
X657892Y493496D01*
X657965Y493505D01*
X658039Y493504D01*
X658130Y493524D01*
X658223Y493536D01*
X658292Y493562D01*
X658364Y493578D01*
X658396Y493594D01*
X658399Y493592D01*
X658471Y493573D01*
X658539Y493545D01*
X658621Y493534D01*
X658722Y493508D01*
X658826Y493507D01*
X658908Y493496D01*
X670957Y493496D01*
X670788Y492426D01*
X670170Y490525D01*
X669263Y488743D01*
X668071Y487104D01*
X668037Y487041D01*
X667994Y486984D01*
X667956Y486896D01*
X667909Y486812D01*
X667890Y486743D01*
X667862Y486678D01*
X667846Y486583D01*
X667820Y486491D01*
X667818Y486419D01*
X667806Y486349D01*
X667813Y486253D01*
X667810Y486157D01*
X667825Y486087D01*
X667830Y486016D01*
X667860Y485925D01*
X667880Y485831D01*
X667911Y485767D01*
X667933Y485699D01*
X667983Y485617D01*
X668025Y485531D01*
X668070Y485475D01*
X668108Y485415D01*
X668176Y485347D01*
X668237Y485273D01*
X668294Y485230D01*
X668345Y485180D01*
X668395Y485151D01*
X671706Y481840D01*
X671728Y481823D01*
X671745Y481802D01*
X671859Y481720D01*
X671968Y481634D01*
X671993Y481622D01*
X672015Y481606D01*
X672145Y481553D01*
X672272Y481496D01*
X672299Y481491D01*
X672324Y481480D01*
X672426Y481467D01*
X672600Y481434D01*
X672650Y481437D01*
X672693Y481431D01*
X675507Y481431D01*
X675534Y481434D01*
X675561Y481432D01*
X675699Y481454D01*
X675838Y481471D01*
X675864Y481480D01*
X675891Y481484D01*
X676020Y481539D01*
X676150Y481588D01*
X676173Y481603D01*
X676198Y481614D01*
X676280Y481676D01*
X676426Y481776D01*
X676460Y481813D01*
X676494Y481840D01*
X681580Y486926D01*
X681597Y486947D01*
X681618Y486965D01*
X681700Y487078D01*
X681786Y487188D01*
X681798Y487213D01*
X681814Y487235D01*
X681867Y487365D01*
X681924Y487492D01*
X681929Y487519D01*
X681940Y487544D01*
X681953Y487646D01*
X681986Y487820D01*
X681983Y487870D01*
X681989Y487913D01*
X681989Y509796D01*
X681988Y509810D01*
X681989Y509823D01*
X681981Y509880D01*
X681981Y509912D01*
X681969Y509968D01*
X681968Y509975D01*
X681949Y510127D01*
X681945Y510140D01*
X681943Y510154D01*
X681886Y510296D01*
X681832Y510440D01*
X681824Y510451D01*
X681819Y510464D01*
X681731Y510588D01*
X681644Y510715D01*
X681634Y510724D01*
X681626Y510736D01*
X681510Y510836D01*
X681396Y510938D01*
X681384Y510945D01*
X681374Y510954D01*
X681237Y511024D01*
X681102Y511096D01*
X681089Y511100D01*
X681077Y511106D01*
X680927Y511142D01*
X680779Y511180D01*
X680766Y511180D01*
X680752Y511183D01*
X680598Y511183D01*
X680446Y511185D01*
X680432Y511182D01*
X680419Y511182D01*
X680332Y511159D01*
X680120Y511110D01*
X680089Y511094D01*
X680059Y511086D01*
X675914Y509369D01*
X672693Y509369D01*
X672666Y509366D01*
X672639Y509368D01*
X672501Y509346D01*
X672362Y509329D01*
X672337Y509320D01*
X672310Y509316D01*
X672181Y509261D01*
X672050Y509212D01*
X672027Y509197D01*
X672002Y509186D01*
X671920Y509124D01*
X671774Y509024D01*
X671741Y508987D01*
X671706Y508960D01*
X668406Y505660D01*
X668376Y505644D01*
X668324Y505595D01*
X668266Y505554D01*
X668203Y505481D01*
X668132Y505416D01*
X668093Y505356D01*
X668046Y505302D01*
X668002Y505217D01*
X667950Y505137D01*
X667926Y505069D01*
X667893Y505006D01*
X667871Y504913D01*
X667838Y504822D01*
X667831Y504751D01*
X667814Y504682D01*
X667815Y504586D01*
X667805Y504490D01*
X667815Y504419D01*
X667815Y504348D01*
X667838Y504255D01*
X667851Y504160D01*
X667878Y504093D01*
X667895Y504024D01*
X667935Y503950D01*
X667974Y503850D01*
X668033Y503767D01*
X668071Y503696D01*
X669263Y502057D01*
X670170Y500275D01*
X670788Y498374D01*
X670957Y497304D01*
X658908Y497304D01*
X658835Y497295D01*
X658761Y497296D01*
X658670Y497276D01*
X658577Y497264D01*
X658508Y497238D01*
X658436Y497222D01*
X658404Y497206D01*
X658401Y497208D01*
X658329Y497227D01*
X658261Y497255D01*
X658179Y497266D01*
X658078Y497292D01*
X657974Y497293D01*
X657892Y497304D01*
X645843Y497304D01*
X646012Y498374D01*
X646630Y500275D01*
X647537Y502057D01*
X648729Y503696D01*
X648763Y503759D01*
X648806Y503816D01*
X648844Y503904D01*
X648891Y503988D01*
X648910Y504057D01*
X648938Y504122D01*
X648954Y504217D01*
X648980Y504309D01*
X648982Y504381D01*
X648994Y504451D01*
X648987Y504547D01*
X648990Y504643D01*
X648975Y504713D01*
X648970Y504784D01*
X648940Y504875D01*
X648920Y504969D01*
X648889Y505033D01*
X648867Y505101D01*
X648817Y505183D01*
X648775Y505269D01*
X648730Y505325D01*
X648692Y505385D01*
X648624Y505453D01*
X648563Y505527D01*
X648506Y505570D01*
X648455Y505620D01*
X648406Y505649D01*
X643326Y510728D01*
X640619Y517263D01*
X640619Y524337D01*
X643326Y530872D01*
X644967Y532513D01*
X645013Y532571D01*
X645066Y532622D01*
X645096Y532671D01*
X645121Y532698D01*
X645138Y532730D01*
X645173Y532775D01*
X645204Y532842D01*
X645243Y532905D01*
X645261Y532959D01*
X645279Y532992D01*
X645288Y533028D01*
X645311Y533079D01*
X645325Y533152D01*
X645348Y533222D01*
X645352Y533277D01*
X645362Y533315D01*
X645363Y533353D01*
X645373Y533407D01*
X645369Y533481D01*
X645375Y533554D01*
X645366Y533608D01*
X645367Y533649D01*
X645358Y533687D01*
X645355Y533740D01*
X645334Y533811D01*
X645322Y533884D01*
X645302Y533932D01*
X645292Y533974D01*
X645274Y534011D01*
X645259Y534059D01*
X645221Y534123D01*
X645193Y534191D01*
X645165Y534228D01*
X645143Y534272D01*
X645114Y534306D01*
X645090Y534347D01*
X645017Y534422D01*
X644967Y534487D01*
X643326Y536128D01*
X640619Y542663D01*
X640619Y549737D01*
X643326Y556272D01*
X644967Y557913D01*
X645013Y557971D01*
X645066Y558022D01*
X645115Y558102D01*
X645173Y558175D01*
X645204Y558242D01*
X645243Y558305D01*
X645272Y558394D01*
X645311Y558479D01*
X645325Y558552D01*
X645348Y558622D01*
X645355Y558715D01*
X645373Y558807D01*
X645369Y558881D01*
X645375Y558954D01*
X645360Y559046D01*
X645355Y559140D01*
X645334Y559211D01*
X645322Y559284D01*
X645286Y559370D01*
X645259Y559459D01*
X645221Y559523D01*
X645193Y559591D01*
X645143Y559657D01*
X645090Y559747D01*
X645017Y559822D01*
X644967Y559887D01*
X643326Y561528D01*
X640619Y568063D01*
X640619Y575137D01*
X643326Y581672D01*
X644967Y583313D01*
X645013Y583371D01*
X645066Y583422D01*
X645115Y583502D01*
X645173Y583575D01*
X645204Y583642D01*
X645243Y583705D01*
X645272Y583794D01*
X645311Y583879D01*
X645325Y583952D01*
X645348Y584022D01*
X645355Y584115D01*
X645373Y584207D01*
X645369Y584281D01*
X645375Y584354D01*
X645360Y584446D01*
X645355Y584540D01*
X645334Y584611D01*
X645322Y584684D01*
X645286Y584770D01*
X645259Y584859D01*
X645221Y584923D01*
X645193Y584991D01*
X645143Y585057D01*
X645090Y585147D01*
X645017Y585222D01*
X644967Y585287D01*
X643326Y586928D01*
X640619Y593463D01*
X640619Y600537D01*
X643326Y607072D01*
X644967Y608713D01*
X645013Y608771D01*
X645066Y608822D01*
X645115Y608902D01*
X645173Y608975D01*
X645204Y609042D01*
X645243Y609105D01*
X645272Y609194D01*
X645311Y609279D01*
X645325Y609352D01*
X645348Y609422D01*
X645355Y609515D01*
X645373Y609607D01*
X645369Y609681D01*
X645375Y609754D01*
X645360Y609846D01*
X645355Y609940D01*
X645334Y610011D01*
X645322Y610084D01*
X645286Y610170D01*
X645259Y610259D01*
X645221Y610323D01*
X645193Y610391D01*
X645143Y610457D01*
X645090Y610547D01*
X645017Y610622D01*
X644967Y610687D01*
X643326Y612328D01*
X640619Y618863D01*
X640619Y625937D01*
X643326Y632472D01*
X648394Y637540D01*
X648424Y637556D01*
X648476Y637605D01*
X648534Y637646D01*
X648597Y637719D01*
X648668Y637784D01*
X648707Y637844D01*
X648754Y637898D01*
X648798Y637983D01*
X648850Y638063D01*
X648874Y638131D01*
X648907Y638194D01*
X648929Y638287D01*
X648962Y638378D01*
X648969Y638449D01*
X648986Y638518D01*
X648985Y638614D01*
X648995Y638710D01*
X648985Y638781D01*
X648985Y638852D01*
X648962Y638945D01*
X648949Y639040D01*
X648922Y639107D01*
X648905Y639176D01*
X648865Y639250D01*
X648826Y639350D01*
X648767Y639433D01*
X648729Y639504D01*
X647537Y641143D01*
X646630Y642925D01*
X646012Y644826D01*
X645843Y645896D01*
X657892Y645896D01*
X657965Y645905D01*
X658039Y645904D01*
X658130Y645924D01*
X658223Y645936D01*
X658292Y645962D01*
X658364Y645978D01*
X658396Y645994D01*
X658399Y645992D01*
X658471Y645973D01*
X658539Y645945D01*
X658621Y645934D01*
X658722Y645908D01*
X658826Y645907D01*
X658908Y645896D01*
X670957Y645896D01*
X670788Y644826D01*
X670170Y642925D01*
X669263Y641143D01*
X668071Y639504D01*
X668037Y639441D01*
X667994Y639384D01*
X667956Y639296D01*
X667909Y639212D01*
X667890Y639143D01*
X667862Y639078D01*
X667846Y638983D01*
X667820Y638891D01*
X667818Y638819D01*
X667806Y638749D01*
X667813Y638653D01*
X667810Y638557D01*
X667825Y638487D01*
X667830Y638416D01*
X667860Y638325D01*
X667880Y638231D01*
X667911Y638167D01*
X667933Y638099D01*
X667983Y638017D01*
X668025Y637931D01*
X668070Y637875D01*
X668108Y637815D01*
X668176Y637747D01*
X668237Y637673D01*
X668294Y637630D01*
X668345Y637580D01*
X668394Y637551D01*
X671706Y634240D01*
X671728Y634223D01*
X671745Y634202D01*
X671858Y634120D01*
X671968Y634034D01*
X671993Y634022D01*
X672015Y634006D01*
X672145Y633953D01*
X672272Y633896D01*
X672299Y633891D01*
X672324Y633880D01*
X672426Y633867D01*
X672600Y633834D01*
X672650Y633837D01*
X672693Y633831D01*
X723484Y633831D01*
X723511Y633834D01*
X723539Y633832D01*
X723677Y633854D01*
X723815Y633871D01*
X723841Y633880D01*
X723868Y633884D01*
X723997Y633939D01*
X724128Y633988D01*
X724150Y634003D01*
X724175Y634014D01*
X724257Y634076D01*
X724403Y634176D01*
X724437Y634213D01*
X724472Y634240D01*
X726960Y636728D01*
X733215Y639319D01*
X739985Y639319D01*
X746240Y636728D01*
X751028Y631940D01*
X753619Y625685D01*
X753619Y618915D01*
X751028Y612660D01*
X748955Y610587D01*
X748910Y610529D01*
X748857Y610478D01*
X748807Y610398D01*
X748749Y610325D01*
X748719Y610258D01*
X748680Y610195D01*
X748650Y610106D01*
X748612Y610021D01*
X748598Y609949D01*
X748574Y609878D01*
X748567Y609785D01*
X748550Y609693D01*
X748554Y609619D01*
X748548Y609546D01*
X748562Y609453D01*
X748567Y609360D01*
X748589Y609289D01*
X748600Y609216D01*
X748636Y609130D01*
X748663Y609041D01*
X748701Y608977D01*
X748730Y608909D01*
X748780Y608843D01*
X748833Y608753D01*
X748905Y608679D01*
X748955Y608613D01*
X751028Y606540D01*
X753619Y600285D01*
X753619Y593515D01*
X751028Y587260D01*
X748955Y585187D01*
X748910Y585129D01*
X748857Y585078D01*
X748807Y584998D01*
X748749Y584925D01*
X748719Y584858D01*
X748680Y584795D01*
X748650Y584706D01*
X748612Y584621D01*
X748598Y584549D01*
X748574Y584478D01*
X748567Y584385D01*
X748550Y584293D01*
X748554Y584219D01*
X748548Y584146D01*
X748562Y584053D01*
X748567Y583960D01*
X748589Y583889D01*
X748600Y583816D01*
X748636Y583730D01*
X748663Y583641D01*
X748701Y583577D01*
X748730Y583509D01*
X748780Y583443D01*
X748833Y583353D01*
X748905Y583279D01*
X748955Y583213D01*
X751028Y581140D01*
X753619Y574885D01*
X753619Y568115D01*
X751028Y561860D01*
X748955Y559787D01*
X748910Y559729D01*
X748857Y559678D01*
X748807Y559598D01*
X748749Y559525D01*
X748719Y559458D01*
X748680Y559395D01*
X748650Y559306D01*
X748612Y559221D01*
X748598Y559149D01*
X748574Y559078D01*
X748567Y558985D01*
X748550Y558893D01*
X748554Y558819D01*
X748548Y558746D01*
X748562Y558653D01*
X748567Y558560D01*
X748589Y558489D01*
X748600Y558416D01*
X748636Y558330D01*
X748663Y558241D01*
X748701Y558177D01*
X748730Y558109D01*
X748780Y558043D01*
X748833Y557953D01*
X748905Y557879D01*
X748955Y557813D01*
X751028Y555740D01*
X753619Y549485D01*
X753619Y542715D01*
X751028Y536460D01*
X748955Y534387D01*
X748910Y534329D01*
X748857Y534278D01*
X748807Y534198D01*
X748749Y534125D01*
X748719Y534058D01*
X748680Y533995D01*
X748650Y533906D01*
X748612Y533821D01*
X748598Y533749D01*
X748574Y533678D01*
X748567Y533585D01*
X748550Y533493D01*
X748554Y533419D01*
X748548Y533346D01*
X748562Y533253D01*
X748567Y533160D01*
X748589Y533089D01*
X748600Y533016D01*
X748636Y532930D01*
X748663Y532841D01*
X748701Y532777D01*
X748730Y532709D01*
X748780Y532643D01*
X748833Y532553D01*
X748905Y532479D01*
X748955Y532413D01*
X751028Y530340D01*
X753619Y524085D01*
X753619Y517315D01*
X751028Y511060D01*
X748955Y508987D01*
X748910Y508929D01*
X748857Y508878D01*
X748807Y508798D01*
X748749Y508725D01*
X748719Y508658D01*
X748680Y508595D01*
X748650Y508506D01*
X748612Y508421D01*
X748598Y508349D01*
X748574Y508278D01*
X748567Y508185D01*
X748550Y508093D01*
X748554Y508019D01*
X748548Y507946D01*
X748562Y507853D01*
X748567Y507760D01*
X748589Y507689D01*
X748600Y507616D01*
X748636Y507530D01*
X748663Y507441D01*
X748701Y507377D01*
X748730Y507309D01*
X748780Y507243D01*
X748833Y507153D01*
X748905Y507079D01*
X748955Y507013D01*
X751028Y504940D01*
X753619Y498685D01*
X753619Y491915D01*
X751028Y485660D01*
X748440Y483072D01*
X748423Y483050D01*
X748402Y483032D01*
X748320Y482919D01*
X748234Y482809D01*
X748222Y482784D01*
X748206Y482762D01*
X748153Y482632D01*
X748096Y482505D01*
X748091Y482479D01*
X748080Y482453D01*
X748067Y482351D01*
X748034Y482178D01*
X748037Y482127D01*
X748031Y482084D01*
X748031Y457466D01*
X746291Y453265D01*
X702535Y409509D01*
X698690Y407917D01*
X698638Y407887D01*
X698581Y407866D01*
X698493Y407806D01*
X698399Y407753D01*
X698355Y407712D01*
X698305Y407678D01*
X698234Y407598D01*
X698156Y407525D01*
X698123Y407475D01*
X698082Y407430D01*
X698032Y407336D01*
X697973Y407246D01*
X697953Y407189D01*
X697924Y407136D01*
X697898Y407032D01*
X697862Y406932D01*
X697856Y406872D01*
X697841Y406813D01*
X697839Y406706D01*
X697829Y406600D01*
X697837Y406540D01*
X697836Y406480D01*
X697860Y406375D01*
X697875Y406269D01*
X697897Y406213D01*
X697911Y406154D01*
X697959Y406059D01*
X697998Y405959D01*
X698033Y405910D01*
X698060Y405856D01*
X698129Y405775D01*
X698192Y405688D01*
X698237Y405648D01*
X698276Y405602D01*
X698363Y405539D01*
X698444Y405469D01*
X698498Y405442D01*
X698547Y405406D01*
X698646Y405366D01*
X698741Y405317D01*
X698800Y405303D01*
X698855Y405280D01*
X698947Y405268D01*
X699065Y405240D01*
X699153Y405240D01*
X699225Y405231D01*
X720994Y405231D01*
X725195Y403491D01*
X768866Y359820D01*
X768887Y359803D01*
X768905Y359782D01*
X769018Y359700D01*
X769128Y359614D01*
X769153Y359602D01*
X769175Y359586D01*
X769305Y359533D01*
X769432Y359476D01*
X769459Y359471D01*
X769484Y359460D01*
X769586Y359447D01*
X769760Y359414D01*
X769810Y359417D01*
X769853Y359411D01*
X827807Y359411D01*
X827834Y359414D01*
G37*
%LPC*%
G36*
X805181Y535208D02*
X805181Y535208D01*
X805109Y535227D01*
X805041Y535255D01*
X804959Y535266D01*
X804858Y535292D01*
X804754Y535293D01*
X804672Y535304D01*
X792623Y535304D01*
X792792Y536374D01*
X793410Y538275D01*
X794317Y540057D01*
X795509Y541696D01*
X795543Y541759D01*
X795586Y541816D01*
X795624Y541904D01*
X795671Y541988D01*
X795690Y542057D01*
X795718Y542122D01*
X795734Y542217D01*
X795760Y542309D01*
X795762Y542381D01*
X795774Y542451D01*
X795767Y542547D01*
X795770Y542643D01*
X795755Y542713D01*
X795750Y542784D01*
X795720Y542875D01*
X795700Y542969D01*
X795669Y543033D01*
X795647Y543101D01*
X795597Y543183D01*
X795555Y543269D01*
X795510Y543325D01*
X795472Y543385D01*
X795404Y543453D01*
X795343Y543527D01*
X795286Y543570D01*
X795235Y543620D01*
X795186Y543649D01*
X790106Y548728D01*
X787399Y555263D01*
X787399Y562337D01*
X790106Y568872D01*
X791747Y570513D01*
X791793Y570571D01*
X791846Y570622D01*
X791895Y570702D01*
X791953Y570775D01*
X791984Y570842D01*
X792023Y570905D01*
X792052Y570994D01*
X792091Y571079D01*
X792105Y571152D01*
X792128Y571222D01*
X792135Y571315D01*
X792153Y571407D01*
X792149Y571481D01*
X792155Y571554D01*
X792140Y571646D01*
X792135Y571740D01*
X792114Y571811D01*
X792102Y571884D01*
X792066Y571970D01*
X792039Y572059D01*
X792001Y572123D01*
X791973Y572191D01*
X791923Y572257D01*
X791870Y572347D01*
X791797Y572422D01*
X791747Y572487D01*
X790106Y574128D01*
X787399Y580663D01*
X787399Y587737D01*
X790106Y594272D01*
X791747Y595913D01*
X791793Y595971D01*
X791846Y596022D01*
X791895Y596102D01*
X791953Y596175D01*
X791984Y596242D01*
X792023Y596305D01*
X792052Y596394D01*
X792091Y596479D01*
X792105Y596552D01*
X792128Y596622D01*
X792135Y596715D01*
X792153Y596807D01*
X792149Y596881D01*
X792155Y596954D01*
X792140Y597046D01*
X792135Y597140D01*
X792114Y597211D01*
X792102Y597284D01*
X792066Y597370D01*
X792039Y597459D01*
X792001Y597523D01*
X791973Y597591D01*
X791923Y597657D01*
X791870Y597747D01*
X791797Y597822D01*
X791747Y597887D01*
X790106Y599528D01*
X787399Y606063D01*
X787399Y613137D01*
X790106Y619672D01*
X791747Y621313D01*
X791793Y621371D01*
X791846Y621422D01*
X791895Y621502D01*
X791953Y621575D01*
X791984Y621642D01*
X792023Y621705D01*
X792052Y621794D01*
X792091Y621879D01*
X792105Y621952D01*
X792128Y622022D01*
X792135Y622115D01*
X792153Y622207D01*
X792149Y622281D01*
X792155Y622354D01*
X792140Y622446D01*
X792135Y622540D01*
X792114Y622611D01*
X792102Y622684D01*
X792066Y622770D01*
X792039Y622859D01*
X792001Y622923D01*
X791973Y622991D01*
X791923Y623057D01*
X791870Y623147D01*
X791797Y623222D01*
X791747Y623287D01*
X790106Y624928D01*
X787399Y631463D01*
X787399Y638537D01*
X790106Y645072D01*
X791747Y646713D01*
X791793Y646771D01*
X791846Y646822D01*
X791895Y646902D01*
X791953Y646975D01*
X791984Y647042D01*
X792023Y647105D01*
X792052Y647194D01*
X792091Y647279D01*
X792105Y647352D01*
X792128Y647422D01*
X792135Y647515D01*
X792153Y647607D01*
X792149Y647681D01*
X792155Y647754D01*
X792140Y647846D01*
X792135Y647940D01*
X792114Y648011D01*
X792102Y648084D01*
X792066Y648170D01*
X792039Y648259D01*
X792001Y648323D01*
X791973Y648391D01*
X791923Y648457D01*
X791870Y648547D01*
X791797Y648622D01*
X791747Y648687D01*
X790106Y650328D01*
X787399Y656863D01*
X787399Y663937D01*
X790106Y670472D01*
X791747Y672113D01*
X791793Y672171D01*
X791846Y672222D01*
X791895Y672302D01*
X791953Y672375D01*
X791984Y672442D01*
X792023Y672505D01*
X792052Y672594D01*
X792091Y672679D01*
X792105Y672752D01*
X792128Y672822D01*
X792135Y672915D01*
X792153Y673007D01*
X792149Y673081D01*
X792155Y673154D01*
X792140Y673246D01*
X792135Y673340D01*
X792114Y673411D01*
X792102Y673484D01*
X792066Y673570D01*
X792039Y673659D01*
X792001Y673723D01*
X791973Y673791D01*
X791923Y673857D01*
X791870Y673947D01*
X791797Y674022D01*
X791747Y674087D01*
X790106Y675728D01*
X787399Y682263D01*
X787399Y689337D01*
X790106Y695872D01*
X791747Y697513D01*
X791793Y697571D01*
X791846Y697622D01*
X791895Y697702D01*
X791953Y697775D01*
X791984Y697842D01*
X792023Y697905D01*
X792052Y697994D01*
X792091Y698079D01*
X792105Y698151D01*
X792128Y698222D01*
X792135Y698315D01*
X792153Y698407D01*
X792149Y698481D01*
X792155Y698554D01*
X792140Y698647D01*
X792135Y698740D01*
X792114Y698811D01*
X792102Y698884D01*
X792066Y698970D01*
X792039Y699059D01*
X792001Y699123D01*
X791973Y699191D01*
X791923Y699257D01*
X791870Y699347D01*
X791797Y699421D01*
X791747Y699487D01*
X790106Y701128D01*
X787399Y707663D01*
X787399Y714737D01*
X790106Y721272D01*
X795108Y726274D01*
X801643Y728981D01*
X808717Y728981D01*
X815252Y726274D01*
X820254Y721272D01*
X822961Y714737D01*
X822961Y707663D01*
X820254Y701128D01*
X818613Y699487D01*
X818567Y699429D01*
X818514Y699378D01*
X818465Y699298D01*
X818407Y699225D01*
X818376Y699158D01*
X818337Y699095D01*
X818308Y699006D01*
X818269Y698921D01*
X818255Y698848D01*
X818232Y698778D01*
X818225Y698685D01*
X818207Y698593D01*
X818211Y698519D01*
X818205Y698446D01*
X818220Y698354D01*
X818225Y698260D01*
X818246Y698189D01*
X818258Y698116D01*
X818294Y698030D01*
X818321Y697941D01*
X818359Y697877D01*
X818387Y697809D01*
X818437Y697743D01*
X818490Y697653D01*
X818563Y697578D01*
X818613Y697513D01*
X820254Y695872D01*
X822961Y689337D01*
X822961Y682263D01*
X820254Y675728D01*
X818613Y674087D01*
X818567Y674029D01*
X818514Y673978D01*
X818465Y673898D01*
X818407Y673825D01*
X818376Y673758D01*
X818337Y673695D01*
X818308Y673606D01*
X818269Y673521D01*
X818255Y673449D01*
X818232Y673378D01*
X818225Y673285D01*
X818207Y673193D01*
X818211Y673119D01*
X818205Y673046D01*
X818220Y672953D01*
X818225Y672860D01*
X818246Y672789D01*
X818258Y672716D01*
X818294Y672630D01*
X818321Y672541D01*
X818359Y672477D01*
X818387Y672409D01*
X818437Y672343D01*
X818490Y672253D01*
X818563Y672179D01*
X818613Y672113D01*
X820254Y670472D01*
X822961Y663937D01*
X822961Y656863D01*
X820254Y650328D01*
X818613Y648687D01*
X818567Y648629D01*
X818514Y648578D01*
X818465Y648498D01*
X818407Y648425D01*
X818376Y648358D01*
X818337Y648295D01*
X818308Y648206D01*
X818269Y648121D01*
X818255Y648049D01*
X818232Y647978D01*
X818225Y647885D01*
X818207Y647793D01*
X818211Y647719D01*
X818205Y647646D01*
X818220Y647553D01*
X818225Y647460D01*
X818246Y647389D01*
X818258Y647316D01*
X818294Y647230D01*
X818321Y647141D01*
X818359Y647077D01*
X818387Y647009D01*
X818437Y646943D01*
X818490Y646853D01*
X818563Y646779D01*
X818613Y646713D01*
X820254Y645072D01*
X822961Y638537D01*
X822961Y631463D01*
X820254Y624928D01*
X818613Y623287D01*
X818567Y623229D01*
X818514Y623178D01*
X818465Y623098D01*
X818407Y623025D01*
X818376Y622958D01*
X818337Y622895D01*
X818308Y622806D01*
X818269Y622721D01*
X818255Y622649D01*
X818232Y622578D01*
X818225Y622485D01*
X818207Y622393D01*
X818211Y622319D01*
X818205Y622246D01*
X818220Y622153D01*
X818225Y622060D01*
X818246Y621989D01*
X818258Y621916D01*
X818294Y621830D01*
X818321Y621741D01*
X818359Y621677D01*
X818387Y621609D01*
X818437Y621543D01*
X818490Y621453D01*
X818563Y621379D01*
X818613Y621313D01*
X820254Y619672D01*
X822961Y613137D01*
X822961Y606063D01*
X820254Y599528D01*
X818613Y597887D01*
X818567Y597829D01*
X818514Y597778D01*
X818465Y597698D01*
X818407Y597625D01*
X818376Y597558D01*
X818337Y597495D01*
X818308Y597406D01*
X818269Y597321D01*
X818255Y597249D01*
X818232Y597178D01*
X818225Y597085D01*
X818207Y596993D01*
X818211Y596919D01*
X818205Y596846D01*
X818220Y596753D01*
X818225Y596660D01*
X818246Y596589D01*
X818258Y596516D01*
X818294Y596430D01*
X818321Y596341D01*
X818359Y596277D01*
X818387Y596209D01*
X818437Y596143D01*
X818490Y596053D01*
X818563Y595979D01*
X818613Y595913D01*
X820254Y594272D01*
X822961Y587737D01*
X822961Y580663D01*
X820254Y574128D01*
X818613Y572487D01*
X818567Y572429D01*
X818514Y572378D01*
X818465Y572298D01*
X818407Y572225D01*
X818376Y572158D01*
X818337Y572095D01*
X818308Y572006D01*
X818269Y571921D01*
X818255Y571849D01*
X818232Y571778D01*
X818225Y571685D01*
X818207Y571593D01*
X818211Y571519D01*
X818205Y571446D01*
X818220Y571353D01*
X818225Y571260D01*
X818246Y571189D01*
X818258Y571116D01*
X818294Y571030D01*
X818321Y570941D01*
X818359Y570877D01*
X818387Y570809D01*
X818437Y570743D01*
X818490Y570653D01*
X818563Y570579D01*
X818613Y570513D01*
X820254Y568872D01*
X822961Y562337D01*
X822961Y555263D01*
X820254Y548728D01*
X815186Y543660D01*
X815156Y543644D01*
X815104Y543595D01*
X815046Y543554D01*
X814983Y543481D01*
X814912Y543416D01*
X814873Y543356D01*
X814826Y543302D01*
X814782Y543217D01*
X814730Y543137D01*
X814706Y543069D01*
X814673Y543006D01*
X814651Y542913D01*
X814618Y542822D01*
X814611Y542751D01*
X814594Y542682D01*
X814595Y542586D01*
X814585Y542490D01*
X814595Y542419D01*
X814595Y542348D01*
X814618Y542255D01*
X814631Y542160D01*
X814658Y542093D01*
X814675Y542024D01*
X814715Y541950D01*
X814754Y541850D01*
X814813Y541767D01*
X814851Y541696D01*
X816043Y540057D01*
X816950Y538275D01*
X817568Y536374D01*
X817737Y535304D01*
X805688Y535304D01*
X805615Y535295D01*
X805541Y535296D01*
X805450Y535276D01*
X805357Y535264D01*
X805288Y535238D01*
X805216Y535222D01*
X805184Y535206D01*
X805181Y535208D01*
G37*
%LPD*%
%LPC*%
G36*
X881381Y560608D02*
X881381Y560608D01*
X881309Y560627D01*
X881241Y560655D01*
X881159Y560666D01*
X881058Y560692D01*
X880954Y560693D01*
X880872Y560704D01*
X868823Y560704D01*
X868992Y561774D01*
X869610Y563675D01*
X870517Y565457D01*
X871709Y567096D01*
X871743Y567159D01*
X871786Y567216D01*
X871824Y567304D01*
X871871Y567388D01*
X871890Y567457D01*
X871918Y567522D01*
X871934Y567617D01*
X871960Y567709D01*
X871962Y567781D01*
X871974Y567851D01*
X871967Y567947D01*
X871970Y568043D01*
X871955Y568113D01*
X871950Y568184D01*
X871920Y568275D01*
X871900Y568369D01*
X871869Y568433D01*
X871847Y568501D01*
X871797Y568583D01*
X871755Y568669D01*
X871710Y568725D01*
X871672Y568785D01*
X871604Y568853D01*
X871543Y568927D01*
X871486Y568970D01*
X871435Y569020D01*
X871386Y569049D01*
X866306Y574128D01*
X863599Y580663D01*
X863599Y587737D01*
X866306Y594272D01*
X867947Y595913D01*
X867993Y595971D01*
X868046Y596022D01*
X868095Y596102D01*
X868153Y596175D01*
X868184Y596242D01*
X868223Y596305D01*
X868252Y596394D01*
X868291Y596479D01*
X868305Y596551D01*
X868328Y596622D01*
X868335Y596715D01*
X868353Y596807D01*
X868349Y596881D01*
X868355Y596954D01*
X868340Y597047D01*
X868335Y597140D01*
X868314Y597211D01*
X868302Y597284D01*
X868266Y597370D01*
X868239Y597459D01*
X868201Y597523D01*
X868173Y597591D01*
X868123Y597657D01*
X868070Y597747D01*
X867997Y597821D01*
X867947Y597887D01*
X866306Y599528D01*
X863599Y606063D01*
X863599Y613137D01*
X866306Y619672D01*
X867947Y621313D01*
X867993Y621371D01*
X868046Y621422D01*
X868095Y621502D01*
X868153Y621575D01*
X868184Y621642D01*
X868223Y621705D01*
X868252Y621794D01*
X868291Y621879D01*
X868305Y621951D01*
X868328Y622022D01*
X868335Y622115D01*
X868353Y622207D01*
X868349Y622281D01*
X868355Y622354D01*
X868340Y622447D01*
X868335Y622540D01*
X868314Y622611D01*
X868302Y622684D01*
X868266Y622770D01*
X868239Y622859D01*
X868201Y622923D01*
X868173Y622991D01*
X868123Y623057D01*
X868070Y623147D01*
X867997Y623221D01*
X867947Y623287D01*
X866306Y624928D01*
X863599Y631463D01*
X863599Y638537D01*
X866306Y645072D01*
X867947Y646713D01*
X867993Y646771D01*
X868046Y646822D01*
X868095Y646902D01*
X868153Y646975D01*
X868184Y647042D01*
X868223Y647105D01*
X868252Y647194D01*
X868291Y647279D01*
X868305Y647351D01*
X868328Y647422D01*
X868335Y647515D01*
X868353Y647607D01*
X868349Y647681D01*
X868355Y647754D01*
X868340Y647847D01*
X868335Y647940D01*
X868314Y648011D01*
X868302Y648084D01*
X868266Y648170D01*
X868239Y648259D01*
X868201Y648323D01*
X868173Y648391D01*
X868123Y648457D01*
X868070Y648547D01*
X867997Y648621D01*
X867947Y648687D01*
X866306Y650328D01*
X863599Y656863D01*
X863599Y663937D01*
X866306Y670472D01*
X867947Y672113D01*
X867993Y672171D01*
X868046Y672222D01*
X868095Y672302D01*
X868153Y672375D01*
X868184Y672442D01*
X868223Y672505D01*
X868252Y672594D01*
X868291Y672679D01*
X868305Y672751D01*
X868328Y672822D01*
X868335Y672915D01*
X868353Y673007D01*
X868349Y673081D01*
X868355Y673154D01*
X868340Y673247D01*
X868335Y673340D01*
X868314Y673411D01*
X868302Y673484D01*
X868266Y673570D01*
X868239Y673659D01*
X868201Y673723D01*
X868173Y673791D01*
X868123Y673857D01*
X868070Y673947D01*
X867997Y674021D01*
X867947Y674087D01*
X866306Y675728D01*
X863599Y682263D01*
X863599Y689337D01*
X866306Y695872D01*
X867947Y697513D01*
X867993Y697571D01*
X868046Y697622D01*
X868095Y697702D01*
X868153Y697775D01*
X868184Y697842D01*
X868223Y697905D01*
X868252Y697994D01*
X868291Y698079D01*
X868305Y698151D01*
X868328Y698222D01*
X868335Y698315D01*
X868353Y698407D01*
X868349Y698481D01*
X868355Y698554D01*
X868340Y698647D01*
X868335Y698740D01*
X868314Y698811D01*
X868302Y698884D01*
X868266Y698970D01*
X868239Y699059D01*
X868201Y699123D01*
X868173Y699191D01*
X868123Y699257D01*
X868070Y699347D01*
X867997Y699421D01*
X867947Y699487D01*
X866306Y701128D01*
X863599Y707663D01*
X863599Y714737D01*
X866306Y721272D01*
X871308Y726274D01*
X877843Y728981D01*
X884917Y728981D01*
X891452Y726274D01*
X896454Y721272D01*
X899161Y714737D01*
X899161Y707663D01*
X896454Y701128D01*
X894813Y699487D01*
X894767Y699429D01*
X894714Y699378D01*
X894665Y699298D01*
X894607Y699225D01*
X894576Y699158D01*
X894537Y699095D01*
X894508Y699006D01*
X894469Y698921D01*
X894455Y698848D01*
X894432Y698778D01*
X894425Y698685D01*
X894407Y698593D01*
X894411Y698519D01*
X894405Y698446D01*
X894420Y698354D01*
X894425Y698260D01*
X894446Y698189D01*
X894458Y698116D01*
X894494Y698030D01*
X894521Y697941D01*
X894559Y697877D01*
X894587Y697809D01*
X894637Y697743D01*
X894690Y697653D01*
X894763Y697578D01*
X894813Y697513D01*
X896454Y695872D01*
X899161Y689337D01*
X899161Y682263D01*
X896454Y675728D01*
X894813Y674087D01*
X894767Y674029D01*
X894714Y673978D01*
X894665Y673898D01*
X894607Y673825D01*
X894576Y673758D01*
X894537Y673695D01*
X894508Y673606D01*
X894469Y673521D01*
X894455Y673448D01*
X894432Y673378D01*
X894425Y673285D01*
X894407Y673193D01*
X894411Y673119D01*
X894405Y673046D01*
X894420Y672954D01*
X894425Y672860D01*
X894446Y672789D01*
X894458Y672716D01*
X894494Y672630D01*
X894521Y672541D01*
X894559Y672477D01*
X894587Y672409D01*
X894637Y672343D01*
X894690Y672253D01*
X894763Y672178D01*
X894813Y672113D01*
X896454Y670472D01*
X899161Y663937D01*
X899161Y656863D01*
X896454Y650328D01*
X894813Y648687D01*
X894767Y648629D01*
X894714Y648578D01*
X894665Y648498D01*
X894607Y648425D01*
X894576Y648358D01*
X894537Y648295D01*
X894508Y648206D01*
X894469Y648121D01*
X894455Y648048D01*
X894432Y647978D01*
X894425Y647885D01*
X894407Y647793D01*
X894411Y647719D01*
X894405Y647646D01*
X894420Y647554D01*
X894425Y647460D01*
X894446Y647389D01*
X894458Y647316D01*
X894494Y647230D01*
X894521Y647141D01*
X894559Y647077D01*
X894587Y647009D01*
X894637Y646943D01*
X894690Y646853D01*
X894763Y646778D01*
X894813Y646713D01*
X896454Y645072D01*
X899161Y638537D01*
X899161Y631463D01*
X896454Y624928D01*
X894813Y623287D01*
X894767Y623229D01*
X894714Y623178D01*
X894665Y623098D01*
X894607Y623025D01*
X894576Y622958D01*
X894537Y622895D01*
X894508Y622806D01*
X894469Y622721D01*
X894455Y622648D01*
X894432Y622578D01*
X894425Y622485D01*
X894407Y622393D01*
X894411Y622319D01*
X894405Y622246D01*
X894420Y622154D01*
X894425Y622060D01*
X894446Y621989D01*
X894458Y621916D01*
X894494Y621830D01*
X894521Y621741D01*
X894559Y621677D01*
X894587Y621609D01*
X894637Y621543D01*
X894690Y621453D01*
X894763Y621378D01*
X894813Y621313D01*
X896454Y619672D01*
X899161Y613137D01*
X899161Y606063D01*
X896454Y599528D01*
X894813Y597887D01*
X894767Y597829D01*
X894714Y597778D01*
X894665Y597698D01*
X894607Y597625D01*
X894576Y597558D01*
X894537Y597495D01*
X894508Y597406D01*
X894469Y597321D01*
X894455Y597248D01*
X894432Y597178D01*
X894425Y597085D01*
X894407Y596993D01*
X894411Y596919D01*
X894405Y596846D01*
X894420Y596754D01*
X894425Y596660D01*
X894446Y596589D01*
X894458Y596516D01*
X894494Y596430D01*
X894521Y596341D01*
X894559Y596277D01*
X894587Y596209D01*
X894637Y596143D01*
X894690Y596053D01*
X894763Y595978D01*
X894813Y595913D01*
X896454Y594272D01*
X899161Y587737D01*
X899161Y580663D01*
X896454Y574128D01*
X891386Y569060D01*
X891356Y569044D01*
X891304Y568995D01*
X891246Y568954D01*
X891183Y568881D01*
X891112Y568816D01*
X891073Y568756D01*
X891026Y568702D01*
X890982Y568617D01*
X890930Y568537D01*
X890906Y568469D01*
X890873Y568406D01*
X890851Y568313D01*
X890818Y568222D01*
X890811Y568151D01*
X890794Y568082D01*
X890795Y567986D01*
X890785Y567890D01*
X890795Y567819D01*
X890795Y567748D01*
X890818Y567655D01*
X890831Y567560D01*
X890858Y567493D01*
X890875Y567424D01*
X890915Y567350D01*
X890954Y567250D01*
X891013Y567167D01*
X891051Y567096D01*
X892243Y565457D01*
X893150Y563675D01*
X893768Y561774D01*
X893937Y560704D01*
X881888Y560704D01*
X881815Y560695D01*
X881741Y560696D01*
X881650Y560676D01*
X881557Y560664D01*
X881488Y560638D01*
X881416Y560622D01*
X881384Y560606D01*
X881381Y560608D01*
G37*
%LPD*%
%LPC*%
G36*
X801643Y363219D02*
X801643Y363219D01*
X795108Y365926D01*
X790106Y370928D01*
X787399Y377463D01*
X787399Y384537D01*
X790106Y391072D01*
X791747Y392713D01*
X791793Y392771D01*
X791846Y392822D01*
X791895Y392902D01*
X791953Y392975D01*
X791984Y393042D01*
X792023Y393105D01*
X792052Y393194D01*
X792091Y393279D01*
X792105Y393352D01*
X792128Y393422D01*
X792135Y393515D01*
X792153Y393607D01*
X792149Y393681D01*
X792155Y393754D01*
X792140Y393846D01*
X792135Y393940D01*
X792114Y394011D01*
X792102Y394084D01*
X792066Y394170D01*
X792039Y394259D01*
X792001Y394323D01*
X791973Y394391D01*
X791923Y394457D01*
X791870Y394547D01*
X791797Y394622D01*
X791747Y394687D01*
X790106Y396328D01*
X787399Y402863D01*
X787399Y409937D01*
X790106Y416472D01*
X791747Y418113D01*
X791793Y418171D01*
X791846Y418222D01*
X791895Y418302D01*
X791953Y418375D01*
X791984Y418442D01*
X792023Y418505D01*
X792052Y418594D01*
X792091Y418679D01*
X792105Y418752D01*
X792128Y418822D01*
X792135Y418915D01*
X792153Y419007D01*
X792149Y419081D01*
X792155Y419154D01*
X792140Y419246D01*
X792135Y419340D01*
X792114Y419411D01*
X792102Y419484D01*
X792066Y419570D01*
X792039Y419659D01*
X792001Y419723D01*
X791973Y419791D01*
X791923Y419857D01*
X791870Y419947D01*
X791797Y420022D01*
X791747Y420087D01*
X790106Y421728D01*
X787399Y428263D01*
X787399Y435337D01*
X790106Y441872D01*
X791747Y443513D01*
X791793Y443571D01*
X791846Y443622D01*
X791895Y443702D01*
X791953Y443775D01*
X791984Y443842D01*
X792023Y443905D01*
X792052Y443994D01*
X792091Y444079D01*
X792105Y444152D01*
X792128Y444222D01*
X792135Y444315D01*
X792153Y444407D01*
X792149Y444481D01*
X792155Y444554D01*
X792140Y444646D01*
X792135Y444740D01*
X792114Y444811D01*
X792102Y444884D01*
X792066Y444970D01*
X792039Y445059D01*
X792001Y445123D01*
X791973Y445191D01*
X791923Y445257D01*
X791870Y445347D01*
X791797Y445422D01*
X791747Y445487D01*
X790106Y447128D01*
X787399Y453663D01*
X787399Y460737D01*
X790106Y467272D01*
X791747Y468913D01*
X791793Y468971D01*
X791846Y469022D01*
X791895Y469102D01*
X791953Y469175D01*
X791984Y469242D01*
X792023Y469305D01*
X792052Y469394D01*
X792091Y469479D01*
X792105Y469552D01*
X792128Y469622D01*
X792135Y469715D01*
X792153Y469807D01*
X792149Y469881D01*
X792155Y469954D01*
X792140Y470046D01*
X792135Y470140D01*
X792114Y470211D01*
X792102Y470284D01*
X792066Y470370D01*
X792039Y470459D01*
X792001Y470523D01*
X791973Y470591D01*
X791923Y470657D01*
X791870Y470747D01*
X791797Y470822D01*
X791747Y470887D01*
X790106Y472528D01*
X787399Y479063D01*
X787399Y486137D01*
X790106Y492672D01*
X791747Y494313D01*
X791793Y494371D01*
X791846Y494422D01*
X791895Y494502D01*
X791953Y494575D01*
X791984Y494642D01*
X792023Y494705D01*
X792052Y494794D01*
X792091Y494879D01*
X792105Y494952D01*
X792128Y495022D01*
X792135Y495115D01*
X792153Y495207D01*
X792149Y495281D01*
X792155Y495354D01*
X792140Y495446D01*
X792135Y495540D01*
X792114Y495611D01*
X792102Y495684D01*
X792066Y495770D01*
X792039Y495859D01*
X792001Y495923D01*
X791973Y495991D01*
X791923Y496057D01*
X791870Y496147D01*
X791797Y496222D01*
X791747Y496287D01*
X790106Y497928D01*
X787399Y504463D01*
X787399Y511537D01*
X790106Y518072D01*
X795174Y523140D01*
X795204Y523156D01*
X795256Y523205D01*
X795314Y523246D01*
X795377Y523319D01*
X795448Y523384D01*
X795487Y523444D01*
X795534Y523498D01*
X795578Y523583D01*
X795630Y523663D01*
X795654Y523731D01*
X795687Y523794D01*
X795709Y523887D01*
X795742Y523978D01*
X795749Y524049D01*
X795766Y524118D01*
X795765Y524214D01*
X795775Y524310D01*
X795765Y524381D01*
X795765Y524452D01*
X795742Y524545D01*
X795729Y524640D01*
X795702Y524707D01*
X795685Y524776D01*
X795645Y524850D01*
X795606Y524950D01*
X795547Y525033D01*
X795509Y525104D01*
X794317Y526743D01*
X793410Y528525D01*
X792792Y530426D01*
X792623Y531496D01*
X804672Y531496D01*
X804745Y531505D01*
X804819Y531504D01*
X804910Y531524D01*
X805003Y531536D01*
X805072Y531562D01*
X805144Y531578D01*
X805176Y531594D01*
X805179Y531592D01*
X805251Y531573D01*
X805319Y531545D01*
X805401Y531534D01*
X805502Y531508D01*
X805606Y531507D01*
X805688Y531496D01*
X817737Y531496D01*
X817568Y530426D01*
X816950Y528525D01*
X816043Y526743D01*
X814851Y525104D01*
X814817Y525041D01*
X814774Y524984D01*
X814736Y524896D01*
X814689Y524812D01*
X814670Y524743D01*
X814642Y524678D01*
X814626Y524583D01*
X814600Y524491D01*
X814598Y524419D01*
X814586Y524349D01*
X814593Y524253D01*
X814590Y524157D01*
X814605Y524087D01*
X814610Y524016D01*
X814640Y523925D01*
X814660Y523831D01*
X814691Y523767D01*
X814713Y523699D01*
X814763Y523617D01*
X814805Y523531D01*
X814850Y523475D01*
X814888Y523415D01*
X814956Y523347D01*
X815017Y523273D01*
X815074Y523230D01*
X815125Y523180D01*
X815174Y523151D01*
X820254Y518072D01*
X822961Y511537D01*
X822961Y504463D01*
X820254Y497928D01*
X818613Y496287D01*
X818567Y496229D01*
X818514Y496178D01*
X818465Y496098D01*
X818407Y496025D01*
X818376Y495958D01*
X818337Y495895D01*
X818308Y495806D01*
X818269Y495721D01*
X818255Y495649D01*
X818232Y495578D01*
X818225Y495485D01*
X818207Y495393D01*
X818211Y495319D01*
X818205Y495246D01*
X818220Y495153D01*
X818225Y495060D01*
X818246Y494989D01*
X818258Y494916D01*
X818294Y494830D01*
X818321Y494741D01*
X818359Y494677D01*
X818387Y494609D01*
X818437Y494543D01*
X818490Y494453D01*
X818563Y494379D01*
X818613Y494313D01*
X820254Y492672D01*
X822961Y486137D01*
X822961Y479063D01*
X820254Y472528D01*
X818613Y470887D01*
X818567Y470829D01*
X818514Y470778D01*
X818465Y470698D01*
X818407Y470625D01*
X818376Y470558D01*
X818337Y470495D01*
X818308Y470406D01*
X818269Y470321D01*
X818255Y470249D01*
X818232Y470178D01*
X818225Y470085D01*
X818207Y469993D01*
X818211Y469919D01*
X818205Y469846D01*
X818220Y469753D01*
X818225Y469660D01*
X818246Y469589D01*
X818258Y469516D01*
X818294Y469430D01*
X818321Y469341D01*
X818359Y469277D01*
X818387Y469209D01*
X818437Y469143D01*
X818490Y469053D01*
X818563Y468979D01*
X818613Y468913D01*
X820254Y467272D01*
X822961Y460737D01*
X822961Y453663D01*
X820254Y447128D01*
X818613Y445487D01*
X818567Y445429D01*
X818514Y445378D01*
X818465Y445298D01*
X818407Y445225D01*
X818376Y445158D01*
X818337Y445095D01*
X818308Y445006D01*
X818269Y444921D01*
X818255Y444849D01*
X818232Y444778D01*
X818225Y444685D01*
X818207Y444593D01*
X818211Y444519D01*
X818205Y444446D01*
X818220Y444353D01*
X818225Y444260D01*
X818246Y444189D01*
X818258Y444116D01*
X818294Y444030D01*
X818321Y443941D01*
X818359Y443877D01*
X818387Y443809D01*
X818437Y443743D01*
X818490Y443653D01*
X818563Y443579D01*
X818613Y443513D01*
X820254Y441872D01*
X822961Y435337D01*
X822961Y428263D01*
X820254Y421728D01*
X818613Y420087D01*
X818567Y420029D01*
X818514Y419978D01*
X818465Y419898D01*
X818407Y419825D01*
X818376Y419758D01*
X818337Y419695D01*
X818308Y419606D01*
X818269Y419521D01*
X818255Y419449D01*
X818232Y419378D01*
X818225Y419285D01*
X818207Y419193D01*
X818211Y419119D01*
X818205Y419046D01*
X818220Y418953D01*
X818225Y418860D01*
X818246Y418789D01*
X818258Y418716D01*
X818294Y418630D01*
X818321Y418541D01*
X818359Y418477D01*
X818387Y418409D01*
X818437Y418343D01*
X818490Y418253D01*
X818563Y418179D01*
X818613Y418113D01*
X820254Y416472D01*
X822961Y409937D01*
X822961Y402863D01*
X820254Y396328D01*
X818613Y394687D01*
X818567Y394629D01*
X818514Y394578D01*
X818465Y394498D01*
X818407Y394425D01*
X818376Y394358D01*
X818337Y394295D01*
X818308Y394206D01*
X818269Y394121D01*
X818255Y394049D01*
X818232Y393978D01*
X818225Y393885D01*
X818207Y393793D01*
X818211Y393719D01*
X818205Y393646D01*
X818220Y393553D01*
X818225Y393460D01*
X818246Y393389D01*
X818258Y393316D01*
X818294Y393230D01*
X818321Y393141D01*
X818359Y393077D01*
X818387Y393009D01*
X818437Y392943D01*
X818490Y392853D01*
X818563Y392779D01*
X818613Y392713D01*
X820254Y391072D01*
X822961Y384537D01*
X822961Y377463D01*
X820254Y370928D01*
X815252Y365926D01*
X808717Y363219D01*
X801643Y363219D01*
G37*
%LPD*%
%LPC*%
G36*
X136163Y731519D02*
X136163Y731519D01*
X129628Y734226D01*
X124626Y739228D01*
X121919Y745763D01*
X121919Y752837D01*
X124626Y759372D01*
X129628Y764374D01*
X136163Y767081D01*
X143237Y767081D01*
X149772Y764374D01*
X154774Y759372D01*
X157481Y752837D01*
X157481Y745763D01*
X154774Y739228D01*
X149772Y734226D01*
X143237Y731519D01*
X136163Y731519D01*
G37*
%LPD*%
%LPC*%
G36*
X825499Y33019D02*
X825499Y33019D01*
X825499Y42165D01*
X825756Y42125D01*
X827543Y41544D01*
X829217Y40691D01*
X830737Y39586D01*
X832066Y38257D01*
X833171Y36737D01*
X834024Y35063D01*
X834332Y34115D01*
X834359Y34058D01*
X834376Y33997D01*
X834428Y33907D01*
X834472Y33812D01*
X834512Y33763D01*
X834543Y33708D01*
X834615Y33633D01*
X834680Y33551D01*
X834730Y33513D01*
X834774Y33467D01*
X834862Y33411D01*
X834944Y33347D01*
X835002Y33322D01*
X835055Y33288D01*
X835154Y33254D01*
X835249Y33212D01*
X835311Y33201D01*
X835371Y33180D01*
X835475Y33171D01*
X835578Y33153D01*
X835641Y33156D01*
X835703Y33151D01*
X835806Y33166D01*
X835911Y33173D01*
X835971Y33191D01*
X836033Y33201D01*
X836130Y33241D01*
X836229Y33271D01*
X836283Y33304D01*
X836342Y33328D01*
X836426Y33389D01*
X836515Y33443D01*
X836560Y33487D01*
X836611Y33524D01*
X836679Y33604D01*
X836753Y33677D01*
X836786Y33731D01*
X836827Y33779D01*
X836866Y33861D01*
X836928Y33961D01*
X836956Y34048D01*
X836988Y34115D01*
X837296Y35063D01*
X838149Y36737D01*
X839254Y38257D01*
X840583Y39586D01*
X842103Y40691D01*
X843777Y41544D01*
X845564Y42125D01*
X845821Y42165D01*
X845821Y33019D01*
X825499Y33019D01*
G37*
%LPD*%
%LPC*%
G36*
X535939Y33019D02*
X535939Y33019D01*
X535939Y42165D01*
X536196Y42125D01*
X537983Y41544D01*
X539657Y40691D01*
X541177Y39586D01*
X542506Y38257D01*
X543611Y36737D01*
X544464Y35063D01*
X544772Y34115D01*
X544799Y34058D01*
X544816Y33997D01*
X544868Y33907D01*
X544912Y33812D01*
X544952Y33763D01*
X544983Y33708D01*
X545055Y33633D01*
X545120Y33551D01*
X545170Y33513D01*
X545214Y33467D01*
X545302Y33411D01*
X545384Y33347D01*
X545442Y33322D01*
X545495Y33288D01*
X545594Y33254D01*
X545689Y33212D01*
X545751Y33201D01*
X545811Y33180D01*
X545915Y33171D01*
X546018Y33153D01*
X546081Y33156D01*
X546143Y33151D01*
X546246Y33166D01*
X546351Y33173D01*
X546411Y33191D01*
X546473Y33201D01*
X546570Y33241D01*
X546669Y33271D01*
X546723Y33304D01*
X546782Y33328D01*
X546866Y33389D01*
X546955Y33443D01*
X547000Y33487D01*
X547051Y33524D01*
X547119Y33604D01*
X547193Y33677D01*
X547226Y33731D01*
X547267Y33779D01*
X547306Y33861D01*
X547368Y33961D01*
X547396Y34048D01*
X547428Y34115D01*
X547736Y35063D01*
X548589Y36737D01*
X549694Y38257D01*
X551023Y39586D01*
X552543Y40691D01*
X554217Y41544D01*
X556004Y42125D01*
X556261Y42165D01*
X556261Y33019D01*
X535939Y33019D01*
G37*
%LPD*%
%LPC*%
G36*
X774699Y33019D02*
X774699Y33019D01*
X774699Y42165D01*
X774956Y42125D01*
X776743Y41544D01*
X778417Y40691D01*
X779937Y39586D01*
X781266Y38257D01*
X782371Y36737D01*
X783224Y35063D01*
X783532Y34115D01*
X783559Y34058D01*
X783576Y33997D01*
X783629Y33907D01*
X783672Y33812D01*
X783712Y33763D01*
X783743Y33708D01*
X783815Y33633D01*
X783880Y33551D01*
X783930Y33513D01*
X783974Y33467D01*
X784062Y33411D01*
X784144Y33347D01*
X784202Y33322D01*
X784255Y33288D01*
X784354Y33254D01*
X784449Y33212D01*
X784511Y33201D01*
X784571Y33180D01*
X784675Y33171D01*
X784778Y33153D01*
X784841Y33156D01*
X784903Y33151D01*
X785006Y33166D01*
X785111Y33173D01*
X785171Y33191D01*
X785233Y33201D01*
X785330Y33241D01*
X785429Y33271D01*
X785483Y33304D01*
X785542Y33328D01*
X785626Y33389D01*
X785715Y33443D01*
X785760Y33487D01*
X785811Y33524D01*
X785879Y33604D01*
X785953Y33677D01*
X785986Y33731D01*
X786027Y33779D01*
X786066Y33861D01*
X786128Y33961D01*
X786156Y34048D01*
X786188Y34115D01*
X786496Y35063D01*
X787349Y36737D01*
X788454Y38257D01*
X789783Y39586D01*
X791303Y40691D01*
X792977Y41544D01*
X794764Y42125D01*
X795021Y42165D01*
X795021Y33019D01*
X774699Y33019D01*
G37*
%LPD*%
%LPC*%
G36*
X749299Y33019D02*
X749299Y33019D01*
X749299Y42165D01*
X749556Y42125D01*
X751343Y41544D01*
X753017Y40691D01*
X754537Y39586D01*
X755866Y38257D01*
X756971Y36737D01*
X757824Y35063D01*
X758132Y34115D01*
X758159Y34058D01*
X758176Y33997D01*
X758229Y33907D01*
X758272Y33812D01*
X758312Y33763D01*
X758343Y33708D01*
X758415Y33633D01*
X758480Y33551D01*
X758530Y33513D01*
X758574Y33467D01*
X758662Y33411D01*
X758744Y33347D01*
X758802Y33322D01*
X758855Y33288D01*
X758954Y33254D01*
X759049Y33212D01*
X759111Y33201D01*
X759171Y33180D01*
X759275Y33171D01*
X759378Y33153D01*
X759441Y33156D01*
X759503Y33151D01*
X759606Y33166D01*
X759711Y33173D01*
X759771Y33191D01*
X759833Y33201D01*
X759930Y33241D01*
X760029Y33271D01*
X760083Y33304D01*
X760142Y33328D01*
X760226Y33389D01*
X760315Y33443D01*
X760360Y33487D01*
X760411Y33524D01*
X760479Y33604D01*
X760553Y33677D01*
X760586Y33731D01*
X760627Y33779D01*
X760666Y33861D01*
X760728Y33961D01*
X760756Y34048D01*
X760788Y34115D01*
X761096Y35063D01*
X761949Y36737D01*
X763054Y38257D01*
X764383Y39586D01*
X765903Y40691D01*
X767577Y41544D01*
X769364Y42125D01*
X769621Y42165D01*
X769621Y33019D01*
X749299Y33019D01*
G37*
%LPD*%
%LPC*%
G36*
X800099Y33019D02*
X800099Y33019D01*
X800099Y42165D01*
X800356Y42125D01*
X802143Y41544D01*
X803817Y40691D01*
X805337Y39586D01*
X806666Y38257D01*
X807771Y36737D01*
X808624Y35063D01*
X808932Y34115D01*
X808959Y34058D01*
X808976Y33997D01*
X809029Y33907D01*
X809072Y33812D01*
X809112Y33763D01*
X809143Y33708D01*
X809215Y33633D01*
X809280Y33551D01*
X809330Y33513D01*
X809374Y33467D01*
X809462Y33411D01*
X809544Y33347D01*
X809602Y33322D01*
X809655Y33288D01*
X809754Y33254D01*
X809849Y33212D01*
X809911Y33201D01*
X809971Y33180D01*
X810075Y33171D01*
X810178Y33153D01*
X810241Y33156D01*
X810303Y33151D01*
X810406Y33166D01*
X810511Y33173D01*
X810571Y33191D01*
X810633Y33201D01*
X810730Y33241D01*
X810829Y33271D01*
X810883Y33304D01*
X810942Y33328D01*
X811026Y33389D01*
X811115Y33443D01*
X811160Y33487D01*
X811211Y33524D01*
X811279Y33604D01*
X811353Y33677D01*
X811386Y33731D01*
X811427Y33779D01*
X811466Y33861D01*
X811528Y33961D01*
X811556Y34048D01*
X811588Y34115D01*
X811896Y35063D01*
X812749Y36737D01*
X813854Y38257D01*
X815183Y39586D01*
X816703Y40691D01*
X818377Y41544D01*
X820164Y42125D01*
X820421Y42165D01*
X820421Y33019D01*
X800099Y33019D01*
G37*
%LPD*%
%LPC*%
G36*
X698499Y33019D02*
X698499Y33019D01*
X698499Y42165D01*
X698756Y42125D01*
X700543Y41544D01*
X702217Y40691D01*
X703737Y39586D01*
X705066Y38257D01*
X706171Y36737D01*
X707024Y35063D01*
X707332Y34115D01*
X707359Y34058D01*
X707376Y33997D01*
X707429Y33907D01*
X707472Y33812D01*
X707512Y33763D01*
X707543Y33708D01*
X707615Y33633D01*
X707680Y33551D01*
X707730Y33513D01*
X707774Y33467D01*
X707862Y33411D01*
X707944Y33347D01*
X708002Y33322D01*
X708055Y33288D01*
X708154Y33254D01*
X708249Y33212D01*
X708311Y33201D01*
X708371Y33180D01*
X708475Y33171D01*
X708578Y33153D01*
X708641Y33156D01*
X708703Y33151D01*
X708806Y33166D01*
X708911Y33173D01*
X708971Y33191D01*
X709033Y33201D01*
X709130Y33241D01*
X709229Y33271D01*
X709283Y33304D01*
X709342Y33328D01*
X709426Y33389D01*
X709515Y33443D01*
X709560Y33487D01*
X709611Y33524D01*
X709679Y33604D01*
X709753Y33677D01*
X709786Y33731D01*
X709827Y33779D01*
X709866Y33861D01*
X709928Y33961D01*
X709956Y34048D01*
X709988Y34115D01*
X710296Y35063D01*
X711149Y36737D01*
X712254Y38257D01*
X713583Y39586D01*
X715103Y40691D01*
X716777Y41544D01*
X718564Y42125D01*
X718821Y42165D01*
X718821Y33019D01*
X698499Y33019D01*
G37*
%LPD*%
%LPC*%
G36*
X723899Y33019D02*
X723899Y33019D01*
X723899Y42165D01*
X724156Y42125D01*
X725943Y41544D01*
X727617Y40691D01*
X729137Y39586D01*
X730466Y38257D01*
X731571Y36737D01*
X732424Y35063D01*
X732732Y34115D01*
X732759Y34058D01*
X732776Y33997D01*
X732829Y33907D01*
X732872Y33812D01*
X732912Y33763D01*
X732943Y33708D01*
X733015Y33633D01*
X733080Y33551D01*
X733130Y33513D01*
X733174Y33467D01*
X733262Y33411D01*
X733344Y33347D01*
X733402Y33322D01*
X733455Y33288D01*
X733554Y33254D01*
X733649Y33212D01*
X733711Y33201D01*
X733771Y33180D01*
X733875Y33171D01*
X733978Y33153D01*
X734041Y33156D01*
X734103Y33151D01*
X734206Y33166D01*
X734311Y33173D01*
X734371Y33191D01*
X734433Y33201D01*
X734530Y33241D01*
X734629Y33271D01*
X734683Y33304D01*
X734742Y33328D01*
X734826Y33389D01*
X734915Y33443D01*
X734960Y33487D01*
X735011Y33524D01*
X735079Y33604D01*
X735153Y33677D01*
X735186Y33731D01*
X735227Y33779D01*
X735266Y33861D01*
X735328Y33961D01*
X735356Y34048D01*
X735388Y34115D01*
X735696Y35063D01*
X736549Y36737D01*
X737654Y38257D01*
X738983Y39586D01*
X740503Y40691D01*
X742177Y41544D01*
X743964Y42125D01*
X744221Y42165D01*
X744221Y33019D01*
X723899Y33019D01*
G37*
%LPD*%
%LPC*%
G36*
X876299Y33019D02*
X876299Y33019D01*
X876299Y42165D01*
X876556Y42125D01*
X878343Y41544D01*
X880017Y40691D01*
X881537Y39586D01*
X882866Y38257D01*
X883971Y36737D01*
X884824Y35063D01*
X885132Y34115D01*
X885159Y34058D01*
X885176Y33997D01*
X885229Y33907D01*
X885272Y33812D01*
X885312Y33763D01*
X885343Y33708D01*
X885415Y33633D01*
X885480Y33551D01*
X885530Y33513D01*
X885574Y33467D01*
X885662Y33411D01*
X885744Y33347D01*
X885802Y33322D01*
X885855Y33288D01*
X885954Y33254D01*
X886049Y33212D01*
X886111Y33201D01*
X886171Y33180D01*
X886275Y33171D01*
X886377Y33152D01*
X886441Y33156D01*
X886503Y33151D01*
X886606Y33166D01*
X886710Y33173D01*
X886771Y33191D01*
X886833Y33201D01*
X886930Y33241D01*
X887029Y33271D01*
X887083Y33304D01*
X887142Y33328D01*
X887226Y33389D01*
X887315Y33443D01*
X887360Y33487D01*
X887411Y33524D01*
X887479Y33604D01*
X887553Y33677D01*
X887586Y33731D01*
X887627Y33779D01*
X887666Y33861D01*
X887728Y33961D01*
X887756Y34048D01*
X887788Y34115D01*
X888096Y35063D01*
X888949Y36737D01*
X890054Y38257D01*
X891383Y39586D01*
X892903Y40691D01*
X894577Y41544D01*
X896364Y42125D01*
X896621Y42165D01*
X896621Y33019D01*
X876299Y33019D01*
G37*
%LPD*%
%LPC*%
G36*
X673099Y33019D02*
X673099Y33019D01*
X673099Y42165D01*
X673356Y42125D01*
X675143Y41544D01*
X676817Y40691D01*
X678337Y39586D01*
X679666Y38257D01*
X680771Y36737D01*
X681624Y35063D01*
X681932Y34115D01*
X681959Y34058D01*
X681976Y33997D01*
X682029Y33907D01*
X682072Y33812D01*
X682112Y33763D01*
X682143Y33708D01*
X682215Y33633D01*
X682280Y33551D01*
X682330Y33513D01*
X682374Y33467D01*
X682462Y33411D01*
X682544Y33347D01*
X682602Y33322D01*
X682655Y33288D01*
X682754Y33254D01*
X682849Y33212D01*
X682911Y33201D01*
X682971Y33180D01*
X683075Y33171D01*
X683177Y33152D01*
X683241Y33156D01*
X683303Y33151D01*
X683406Y33166D01*
X683510Y33173D01*
X683571Y33191D01*
X683633Y33201D01*
X683730Y33241D01*
X683829Y33271D01*
X683883Y33304D01*
X683942Y33328D01*
X684026Y33389D01*
X684115Y33443D01*
X684160Y33487D01*
X684211Y33524D01*
X684279Y33604D01*
X684353Y33677D01*
X684386Y33731D01*
X684427Y33779D01*
X684466Y33861D01*
X684528Y33961D01*
X684556Y34048D01*
X684588Y34115D01*
X684896Y35063D01*
X685749Y36737D01*
X686854Y38257D01*
X688183Y39586D01*
X689703Y40691D01*
X691377Y41544D01*
X693164Y42125D01*
X693421Y42165D01*
X693421Y33019D01*
X673099Y33019D01*
G37*
%LPD*%
%LPC*%
G36*
X850899Y33019D02*
X850899Y33019D01*
X850899Y42165D01*
X851156Y42125D01*
X852943Y41544D01*
X854617Y40691D01*
X856137Y39586D01*
X857466Y38257D01*
X858571Y36737D01*
X859424Y35063D01*
X859732Y34115D01*
X859759Y34058D01*
X859776Y33997D01*
X859829Y33907D01*
X859872Y33812D01*
X859912Y33763D01*
X859943Y33708D01*
X860015Y33633D01*
X860080Y33551D01*
X860130Y33513D01*
X860174Y33467D01*
X860262Y33411D01*
X860344Y33347D01*
X860402Y33322D01*
X860455Y33288D01*
X860554Y33254D01*
X860649Y33212D01*
X860711Y33201D01*
X860771Y33180D01*
X860875Y33171D01*
X860977Y33152D01*
X861041Y33156D01*
X861103Y33151D01*
X861206Y33166D01*
X861310Y33173D01*
X861371Y33191D01*
X861433Y33201D01*
X861530Y33241D01*
X861629Y33271D01*
X861683Y33304D01*
X861742Y33328D01*
X861826Y33389D01*
X861915Y33443D01*
X861960Y33487D01*
X862011Y33524D01*
X862079Y33604D01*
X862153Y33677D01*
X862186Y33731D01*
X862227Y33779D01*
X862266Y33861D01*
X862328Y33961D01*
X862356Y34048D01*
X862388Y34115D01*
X862696Y35063D01*
X863549Y36737D01*
X864654Y38257D01*
X865983Y39586D01*
X867503Y40691D01*
X869177Y41544D01*
X870964Y42125D01*
X871221Y42165D01*
X871221Y33019D01*
X850899Y33019D01*
G37*
%LPD*%
%LPC*%
G36*
X561339Y33019D02*
X561339Y33019D01*
X561339Y42165D01*
X561596Y42125D01*
X563383Y41544D01*
X565057Y40691D01*
X566577Y39586D01*
X567906Y38257D01*
X569011Y36737D01*
X569864Y35063D01*
X570172Y34115D01*
X570199Y34058D01*
X570216Y33997D01*
X570269Y33907D01*
X570312Y33812D01*
X570352Y33763D01*
X570383Y33708D01*
X570455Y33633D01*
X570520Y33551D01*
X570570Y33513D01*
X570614Y33467D01*
X570702Y33411D01*
X570784Y33347D01*
X570842Y33322D01*
X570895Y33288D01*
X570994Y33254D01*
X571089Y33212D01*
X571151Y33201D01*
X571211Y33180D01*
X571315Y33171D01*
X571418Y33152D01*
X571481Y33156D01*
X571543Y33151D01*
X571646Y33166D01*
X571751Y33173D01*
X571811Y33191D01*
X571873Y33201D01*
X571970Y33241D01*
X572069Y33271D01*
X572123Y33304D01*
X572182Y33328D01*
X572266Y33389D01*
X572355Y33443D01*
X572400Y33487D01*
X572451Y33524D01*
X572519Y33604D01*
X572593Y33677D01*
X572626Y33731D01*
X572667Y33779D01*
X572706Y33861D01*
X572768Y33961D01*
X572796Y34048D01*
X572828Y34115D01*
X573136Y35063D01*
X573989Y36737D01*
X575094Y38257D01*
X576423Y39586D01*
X577943Y40691D01*
X579617Y41544D01*
X581404Y42125D01*
X581661Y42165D01*
X581661Y33019D01*
X561339Y33019D01*
G37*
%LPD*%
%LPC*%
G36*
X794764Y18835D02*
X794764Y18835D01*
X792977Y19416D01*
X791303Y20269D01*
X789783Y21374D01*
X788454Y22703D01*
X787349Y24223D01*
X786496Y25897D01*
X786188Y26845D01*
X786161Y26902D01*
X786144Y26963D01*
X786092Y27053D01*
X786048Y27148D01*
X786008Y27197D01*
X785977Y27252D01*
X785905Y27327D01*
X785840Y27409D01*
X785790Y27447D01*
X785746Y27493D01*
X785658Y27549D01*
X785576Y27613D01*
X785518Y27638D01*
X785465Y27672D01*
X785366Y27706D01*
X785271Y27748D01*
X785209Y27759D01*
X785149Y27780D01*
X785045Y27789D01*
X784942Y27807D01*
X784879Y27804D01*
X784817Y27809D01*
X784714Y27794D01*
X784609Y27787D01*
X784549Y27769D01*
X784487Y27759D01*
X784390Y27719D01*
X784291Y27689D01*
X784237Y27656D01*
X784178Y27632D01*
X784094Y27571D01*
X784005Y27517D01*
X783960Y27473D01*
X783909Y27436D01*
X783841Y27356D01*
X783767Y27283D01*
X783734Y27229D01*
X783693Y27181D01*
X783654Y27099D01*
X783592Y26999D01*
X783564Y26912D01*
X783532Y26845D01*
X783224Y25897D01*
X782371Y24223D01*
X781266Y22703D01*
X779937Y21374D01*
X778417Y20269D01*
X776743Y19416D01*
X774956Y18835D01*
X774699Y18795D01*
X774699Y27941D01*
X795021Y27941D01*
X795021Y18795D01*
X794764Y18835D01*
G37*
%LPD*%
%LPC*%
G36*
X743964Y18835D02*
X743964Y18835D01*
X742177Y19416D01*
X740503Y20269D01*
X738983Y21374D01*
X737654Y22703D01*
X736549Y24223D01*
X735696Y25897D01*
X735388Y26845D01*
X735361Y26902D01*
X735344Y26963D01*
X735292Y27053D01*
X735248Y27148D01*
X735208Y27197D01*
X735177Y27252D01*
X735105Y27327D01*
X735040Y27409D01*
X734990Y27447D01*
X734946Y27493D01*
X734858Y27549D01*
X734776Y27613D01*
X734718Y27638D01*
X734665Y27672D01*
X734566Y27706D01*
X734471Y27748D01*
X734409Y27759D01*
X734349Y27780D01*
X734245Y27789D01*
X734142Y27807D01*
X734079Y27804D01*
X734017Y27809D01*
X733914Y27794D01*
X733809Y27787D01*
X733749Y27769D01*
X733687Y27759D01*
X733590Y27719D01*
X733491Y27689D01*
X733437Y27656D01*
X733378Y27632D01*
X733294Y27571D01*
X733205Y27517D01*
X733160Y27473D01*
X733109Y27436D01*
X733041Y27356D01*
X732967Y27283D01*
X732934Y27229D01*
X732893Y27181D01*
X732854Y27099D01*
X732792Y26999D01*
X732764Y26912D01*
X732732Y26845D01*
X732424Y25897D01*
X731571Y24223D01*
X730466Y22703D01*
X729137Y21374D01*
X727617Y20269D01*
X725943Y19416D01*
X724156Y18835D01*
X723899Y18795D01*
X723899Y27941D01*
X744221Y27941D01*
X744221Y18795D01*
X743964Y18835D01*
G37*
%LPD*%
%LPC*%
G36*
X718564Y18835D02*
X718564Y18835D01*
X716777Y19416D01*
X715103Y20269D01*
X713583Y21374D01*
X712254Y22703D01*
X711149Y24223D01*
X710296Y25897D01*
X709988Y26845D01*
X709961Y26902D01*
X709944Y26963D01*
X709892Y27053D01*
X709848Y27148D01*
X709808Y27197D01*
X709777Y27252D01*
X709705Y27327D01*
X709640Y27409D01*
X709590Y27447D01*
X709546Y27493D01*
X709458Y27549D01*
X709376Y27613D01*
X709318Y27638D01*
X709265Y27672D01*
X709166Y27706D01*
X709071Y27748D01*
X709009Y27759D01*
X708949Y27780D01*
X708845Y27789D01*
X708742Y27807D01*
X708679Y27804D01*
X708617Y27809D01*
X708514Y27794D01*
X708409Y27787D01*
X708349Y27769D01*
X708287Y27759D01*
X708190Y27719D01*
X708091Y27689D01*
X708037Y27656D01*
X707978Y27632D01*
X707894Y27571D01*
X707805Y27517D01*
X707760Y27473D01*
X707709Y27436D01*
X707641Y27356D01*
X707567Y27283D01*
X707534Y27229D01*
X707493Y27181D01*
X707454Y27099D01*
X707392Y26999D01*
X707364Y26912D01*
X707332Y26845D01*
X707024Y25897D01*
X706171Y24223D01*
X705066Y22703D01*
X703737Y21374D01*
X702217Y20269D01*
X700543Y19416D01*
X698756Y18835D01*
X698499Y18795D01*
X698499Y27941D01*
X718821Y27941D01*
X718821Y18795D01*
X718564Y18835D01*
G37*
%LPD*%
%LPC*%
G36*
X769364Y18835D02*
X769364Y18835D01*
X767577Y19416D01*
X765903Y20269D01*
X764383Y21374D01*
X763054Y22703D01*
X761949Y24223D01*
X761096Y25897D01*
X760788Y26845D01*
X760761Y26902D01*
X760744Y26963D01*
X760692Y27053D01*
X760648Y27148D01*
X760608Y27197D01*
X760577Y27252D01*
X760505Y27327D01*
X760440Y27409D01*
X760390Y27447D01*
X760346Y27493D01*
X760258Y27549D01*
X760176Y27613D01*
X760118Y27638D01*
X760065Y27672D01*
X759966Y27706D01*
X759871Y27748D01*
X759809Y27759D01*
X759749Y27780D01*
X759645Y27789D01*
X759542Y27807D01*
X759479Y27804D01*
X759417Y27809D01*
X759314Y27794D01*
X759209Y27787D01*
X759149Y27769D01*
X759087Y27759D01*
X758990Y27719D01*
X758891Y27689D01*
X758837Y27656D01*
X758778Y27632D01*
X758694Y27571D01*
X758605Y27517D01*
X758560Y27473D01*
X758509Y27436D01*
X758441Y27356D01*
X758367Y27283D01*
X758334Y27229D01*
X758293Y27181D01*
X758254Y27099D01*
X758192Y26999D01*
X758164Y26912D01*
X758132Y26845D01*
X757824Y25897D01*
X756971Y24223D01*
X755866Y22703D01*
X754537Y21374D01*
X753017Y20269D01*
X751343Y19416D01*
X749556Y18835D01*
X749299Y18795D01*
X749299Y27941D01*
X769621Y27941D01*
X769621Y18795D01*
X769364Y18835D01*
G37*
%LPD*%
%LPC*%
G36*
X896364Y18835D02*
X896364Y18835D01*
X894577Y19416D01*
X892903Y20269D01*
X891383Y21374D01*
X890054Y22703D01*
X888949Y24223D01*
X888096Y25897D01*
X887788Y26845D01*
X887761Y26902D01*
X887744Y26963D01*
X887692Y27053D01*
X887648Y27148D01*
X887608Y27197D01*
X887577Y27252D01*
X887505Y27327D01*
X887440Y27409D01*
X887390Y27447D01*
X887346Y27493D01*
X887258Y27549D01*
X887176Y27613D01*
X887118Y27638D01*
X887065Y27672D01*
X886966Y27706D01*
X886871Y27748D01*
X886809Y27759D01*
X886749Y27780D01*
X886645Y27789D01*
X886542Y27807D01*
X886479Y27804D01*
X886417Y27809D01*
X886314Y27794D01*
X886209Y27787D01*
X886149Y27769D01*
X886087Y27759D01*
X885990Y27719D01*
X885891Y27689D01*
X885837Y27656D01*
X885778Y27632D01*
X885694Y27571D01*
X885605Y27517D01*
X885560Y27473D01*
X885509Y27436D01*
X885441Y27356D01*
X885367Y27283D01*
X885334Y27229D01*
X885293Y27181D01*
X885254Y27099D01*
X885192Y26999D01*
X885164Y26912D01*
X885132Y26845D01*
X884824Y25897D01*
X883971Y24223D01*
X882866Y22703D01*
X881537Y21374D01*
X880017Y20269D01*
X878343Y19416D01*
X876556Y18835D01*
X876299Y18795D01*
X876299Y27941D01*
X896621Y27941D01*
X896621Y18795D01*
X896364Y18835D01*
G37*
%LPD*%
%LPC*%
G36*
X820164Y18835D02*
X820164Y18835D01*
X818377Y19416D01*
X816703Y20269D01*
X815183Y21374D01*
X813854Y22703D01*
X812749Y24223D01*
X811896Y25897D01*
X811588Y26845D01*
X811561Y26902D01*
X811544Y26963D01*
X811491Y27053D01*
X811448Y27148D01*
X811408Y27197D01*
X811377Y27252D01*
X811305Y27327D01*
X811240Y27409D01*
X811190Y27447D01*
X811146Y27493D01*
X811058Y27549D01*
X810976Y27613D01*
X810918Y27638D01*
X810865Y27672D01*
X810766Y27706D01*
X810671Y27748D01*
X810609Y27759D01*
X810549Y27780D01*
X810445Y27789D01*
X810342Y27807D01*
X810279Y27804D01*
X810217Y27809D01*
X810114Y27794D01*
X810009Y27787D01*
X809949Y27769D01*
X809887Y27759D01*
X809790Y27719D01*
X809691Y27689D01*
X809637Y27656D01*
X809578Y27632D01*
X809494Y27571D01*
X809405Y27517D01*
X809360Y27473D01*
X809309Y27436D01*
X809241Y27356D01*
X809167Y27283D01*
X809134Y27229D01*
X809093Y27181D01*
X809054Y27099D01*
X808992Y26999D01*
X808964Y26912D01*
X808932Y26845D01*
X808624Y25897D01*
X807771Y24223D01*
X806666Y22703D01*
X805337Y21374D01*
X803817Y20269D01*
X802143Y19416D01*
X800356Y18835D01*
X800099Y18795D01*
X800099Y27941D01*
X820421Y27941D01*
X820421Y18795D01*
X820164Y18835D01*
G37*
%LPD*%
%LPC*%
G36*
X556004Y18835D02*
X556004Y18835D01*
X554217Y19416D01*
X552543Y20269D01*
X551023Y21374D01*
X549694Y22703D01*
X548589Y24223D01*
X547736Y25897D01*
X547428Y26845D01*
X547401Y26902D01*
X547384Y26963D01*
X547331Y27053D01*
X547288Y27148D01*
X547248Y27197D01*
X547217Y27252D01*
X547145Y27327D01*
X547080Y27409D01*
X547030Y27447D01*
X546986Y27493D01*
X546898Y27549D01*
X546816Y27613D01*
X546758Y27638D01*
X546705Y27672D01*
X546606Y27706D01*
X546511Y27748D01*
X546449Y27759D01*
X546389Y27780D01*
X546285Y27789D01*
X546182Y27807D01*
X546119Y27804D01*
X546057Y27809D01*
X545954Y27794D01*
X545849Y27787D01*
X545789Y27769D01*
X545727Y27759D01*
X545630Y27719D01*
X545531Y27689D01*
X545477Y27656D01*
X545418Y27632D01*
X545334Y27571D01*
X545245Y27517D01*
X545200Y27473D01*
X545149Y27436D01*
X545081Y27356D01*
X545007Y27283D01*
X544974Y27229D01*
X544933Y27181D01*
X544894Y27099D01*
X544832Y26999D01*
X544804Y26912D01*
X544772Y26845D01*
X544464Y25897D01*
X543611Y24223D01*
X542506Y22703D01*
X541177Y21374D01*
X539657Y20269D01*
X537983Y19416D01*
X536196Y18835D01*
X535939Y18795D01*
X535939Y27941D01*
X556261Y27941D01*
X556261Y18795D01*
X556004Y18835D01*
G37*
%LPD*%
%LPC*%
G36*
X581404Y18835D02*
X581404Y18835D01*
X579617Y19416D01*
X577943Y20269D01*
X576423Y21374D01*
X575094Y22703D01*
X573989Y24223D01*
X573136Y25897D01*
X572828Y26845D01*
X572801Y26902D01*
X572784Y26963D01*
X572731Y27053D01*
X572688Y27148D01*
X572648Y27197D01*
X572617Y27252D01*
X572545Y27327D01*
X572480Y27409D01*
X572430Y27447D01*
X572386Y27493D01*
X572298Y27549D01*
X572216Y27613D01*
X572158Y27638D01*
X572105Y27672D01*
X572006Y27706D01*
X571911Y27748D01*
X571849Y27759D01*
X571789Y27780D01*
X571685Y27789D01*
X571583Y27808D01*
X571519Y27804D01*
X571457Y27809D01*
X571354Y27794D01*
X571250Y27787D01*
X571189Y27769D01*
X571127Y27759D01*
X571030Y27719D01*
X570931Y27689D01*
X570877Y27656D01*
X570818Y27632D01*
X570734Y27571D01*
X570645Y27517D01*
X570600Y27473D01*
X570549Y27436D01*
X570481Y27356D01*
X570407Y27283D01*
X570374Y27229D01*
X570333Y27181D01*
X570294Y27099D01*
X570232Y26999D01*
X570204Y26912D01*
X570172Y26845D01*
X569864Y25897D01*
X569011Y24223D01*
X567906Y22703D01*
X566577Y21374D01*
X565057Y20269D01*
X563383Y19416D01*
X561596Y18835D01*
X561339Y18795D01*
X561339Y27941D01*
X581661Y27941D01*
X581661Y18795D01*
X581404Y18835D01*
G37*
%LPD*%
%LPC*%
G36*
X693164Y18835D02*
X693164Y18835D01*
X691377Y19416D01*
X689703Y20269D01*
X688183Y21374D01*
X686854Y22703D01*
X685749Y24223D01*
X684896Y25897D01*
X684588Y26845D01*
X684561Y26902D01*
X684544Y26963D01*
X684491Y27053D01*
X684448Y27148D01*
X684408Y27197D01*
X684377Y27252D01*
X684305Y27327D01*
X684240Y27409D01*
X684190Y27447D01*
X684146Y27493D01*
X684058Y27549D01*
X683976Y27613D01*
X683918Y27638D01*
X683865Y27672D01*
X683766Y27706D01*
X683671Y27748D01*
X683609Y27759D01*
X683549Y27780D01*
X683445Y27789D01*
X683342Y27808D01*
X683279Y27804D01*
X683217Y27809D01*
X683114Y27794D01*
X683009Y27787D01*
X682949Y27769D01*
X682887Y27759D01*
X682790Y27719D01*
X682691Y27689D01*
X682637Y27656D01*
X682578Y27632D01*
X682494Y27571D01*
X682405Y27517D01*
X682360Y27473D01*
X682309Y27436D01*
X682241Y27356D01*
X682167Y27283D01*
X682134Y27229D01*
X682093Y27181D01*
X682054Y27099D01*
X681992Y26999D01*
X681964Y26912D01*
X681932Y26845D01*
X681624Y25897D01*
X680771Y24223D01*
X679666Y22703D01*
X678337Y21374D01*
X676817Y20269D01*
X675143Y19416D01*
X673356Y18835D01*
X673099Y18795D01*
X673099Y27941D01*
X693421Y27941D01*
X693421Y18795D01*
X693164Y18835D01*
G37*
%LPD*%
%LPC*%
G36*
X870964Y18835D02*
X870964Y18835D01*
X869177Y19416D01*
X867503Y20269D01*
X865983Y21374D01*
X864654Y22703D01*
X863549Y24223D01*
X862696Y25897D01*
X862388Y26845D01*
X862361Y26902D01*
X862344Y26963D01*
X862291Y27053D01*
X862248Y27148D01*
X862208Y27197D01*
X862177Y27252D01*
X862105Y27327D01*
X862040Y27409D01*
X861990Y27447D01*
X861946Y27493D01*
X861858Y27549D01*
X861776Y27613D01*
X861718Y27638D01*
X861665Y27672D01*
X861566Y27706D01*
X861471Y27748D01*
X861409Y27759D01*
X861349Y27780D01*
X861245Y27789D01*
X861142Y27808D01*
X861079Y27804D01*
X861017Y27809D01*
X860914Y27794D01*
X860809Y27787D01*
X860749Y27769D01*
X860687Y27759D01*
X860590Y27719D01*
X860491Y27689D01*
X860437Y27656D01*
X860378Y27632D01*
X860294Y27571D01*
X860205Y27517D01*
X860160Y27473D01*
X860109Y27436D01*
X860041Y27356D01*
X859967Y27283D01*
X859934Y27229D01*
X859893Y27181D01*
X859854Y27099D01*
X859792Y26999D01*
X859764Y26912D01*
X859732Y26845D01*
X859424Y25897D01*
X858571Y24223D01*
X857466Y22703D01*
X856137Y21374D01*
X854617Y20269D01*
X852943Y19416D01*
X851156Y18835D01*
X850899Y18795D01*
X850899Y27941D01*
X871221Y27941D01*
X871221Y18795D01*
X870964Y18835D01*
G37*
%LPD*%
%LPC*%
G36*
X845564Y18835D02*
X845564Y18835D01*
X843777Y19416D01*
X842103Y20269D01*
X840583Y21374D01*
X839254Y22703D01*
X838149Y24223D01*
X837296Y25897D01*
X836988Y26845D01*
X836961Y26902D01*
X836944Y26963D01*
X836891Y27053D01*
X836848Y27148D01*
X836808Y27197D01*
X836777Y27252D01*
X836705Y27327D01*
X836640Y27409D01*
X836590Y27447D01*
X836546Y27493D01*
X836458Y27549D01*
X836376Y27613D01*
X836318Y27638D01*
X836265Y27672D01*
X836166Y27706D01*
X836071Y27748D01*
X836009Y27759D01*
X835949Y27780D01*
X835845Y27789D01*
X835742Y27808D01*
X835679Y27804D01*
X835617Y27809D01*
X835514Y27794D01*
X835409Y27787D01*
X835349Y27769D01*
X835287Y27759D01*
X835190Y27719D01*
X835091Y27689D01*
X835037Y27656D01*
X834978Y27632D01*
X834894Y27571D01*
X834805Y27517D01*
X834760Y27473D01*
X834709Y27436D01*
X834641Y27356D01*
X834567Y27283D01*
X834534Y27229D01*
X834493Y27181D01*
X834454Y27099D01*
X834392Y26999D01*
X834364Y26912D01*
X834332Y26845D01*
X834024Y25897D01*
X833171Y24223D01*
X832066Y22703D01*
X830737Y21374D01*
X829217Y20269D01*
X827543Y19416D01*
X825756Y18835D01*
X825499Y18795D01*
X825499Y27941D01*
X845821Y27941D01*
X845821Y18795D01*
X845564Y18835D01*
G37*
%LPD*%
%LPC*%
G36*
X228853Y66293D02*
X228853Y66293D01*
X228853Y78741D01*
X232373Y78741D01*
X241301Y69813D01*
X241301Y66293D01*
X228853Y66293D01*
G37*
%LPD*%
%LPC*%
G36*
X210819Y66293D02*
X210819Y66293D01*
X210819Y69813D01*
X219747Y78741D01*
X223267Y78741D01*
X223267Y66293D01*
X210819Y66293D01*
G37*
%LPD*%
%LPC*%
G36*
X228853Y48259D02*
X228853Y48259D01*
X228853Y60707D01*
X241301Y60707D01*
X241301Y57187D01*
X232373Y48259D01*
X228853Y48259D01*
G37*
%LPD*%
%LPC*%
G36*
X219747Y48259D02*
X219747Y48259D01*
X210819Y57187D01*
X210819Y60707D01*
X223267Y60707D01*
X223267Y48259D01*
X219747Y48259D01*
G37*
%LPD*%
%LPC*%
G36*
X751204Y776604D02*
X751204Y776604D01*
X751204Y787257D01*
X752274Y787088D01*
X754175Y786470D01*
X755957Y785563D01*
X757574Y784388D01*
X758988Y782974D01*
X760163Y781357D01*
X761070Y779575D01*
X761688Y777674D01*
X761857Y776604D01*
X751204Y776604D01*
G37*
%LPD*%
%LPC*%
G36*
X660304Y649704D02*
X660304Y649704D01*
X660304Y660357D01*
X661374Y660188D01*
X663275Y659570D01*
X665057Y658663D01*
X666674Y657488D01*
X668088Y656074D01*
X669263Y654457D01*
X670170Y652675D01*
X670788Y650774D01*
X670957Y649704D01*
X660304Y649704D01*
G37*
%LPD*%
%LPC*%
G36*
X949324Y192404D02*
X949324Y192404D01*
X949324Y203057D01*
X950394Y202888D01*
X952295Y202270D01*
X954077Y201363D01*
X955694Y200188D01*
X957108Y198774D01*
X958283Y197157D01*
X959190Y195375D01*
X959808Y193474D01*
X959977Y192404D01*
X949324Y192404D01*
G37*
%LPD*%
%LPC*%
G36*
X885824Y144144D02*
X885824Y144144D01*
X885824Y154797D01*
X886894Y154628D01*
X888795Y154010D01*
X890577Y153103D01*
X892194Y151928D01*
X893608Y150514D01*
X894783Y148897D01*
X895690Y147115D01*
X896308Y145214D01*
X896477Y144144D01*
X885824Y144144D01*
G37*
%LPD*%
%LPC*%
G36*
X428624Y32384D02*
X428624Y32384D01*
X428624Y43037D01*
X429694Y42868D01*
X431595Y42250D01*
X433377Y41343D01*
X434994Y40168D01*
X436408Y38754D01*
X437583Y37137D01*
X438490Y35355D01*
X439108Y33454D01*
X439277Y32384D01*
X428624Y32384D01*
G37*
%LPD*%
%LPC*%
G36*
X497204Y32384D02*
X497204Y32384D01*
X497204Y43037D01*
X498274Y42868D01*
X500175Y42250D01*
X501957Y41343D01*
X503574Y40168D01*
X504988Y38754D01*
X506163Y37137D01*
X507070Y35355D01*
X507688Y33454D01*
X507857Y32384D01*
X497204Y32384D01*
G37*
%LPD*%
%LPC*%
G36*
X751204Y772796D02*
X751204Y772796D01*
X761857Y772796D01*
X761688Y771726D01*
X761070Y769825D01*
X760163Y768043D01*
X758988Y766426D01*
X757574Y765012D01*
X755957Y763837D01*
X754175Y762930D01*
X752274Y762312D01*
X751204Y762143D01*
X751204Y772796D01*
G37*
%LPD*%
%LPC*%
G36*
X645843Y649704D02*
X645843Y649704D01*
X646012Y650774D01*
X646630Y652675D01*
X647537Y654457D01*
X648712Y656074D01*
X650126Y657488D01*
X651743Y658663D01*
X653525Y659570D01*
X655426Y660188D01*
X656496Y660357D01*
X656496Y649704D01*
X645843Y649704D01*
G37*
%LPD*%
%LPC*%
G36*
X141604Y518796D02*
X141604Y518796D01*
X152257Y518796D01*
X152088Y517726D01*
X151470Y515825D01*
X150563Y514043D01*
X149388Y512426D01*
X147974Y511012D01*
X146357Y509837D01*
X144575Y508930D01*
X142674Y508312D01*
X141604Y508143D01*
X141604Y518796D01*
G37*
%LPD*%
%LPC*%
G36*
X414163Y32384D02*
X414163Y32384D01*
X414332Y33454D01*
X414950Y35355D01*
X415857Y37137D01*
X417032Y38754D01*
X418446Y40168D01*
X420063Y41343D01*
X421845Y42250D01*
X423746Y42868D01*
X424816Y43037D01*
X424816Y32384D01*
X414163Y32384D01*
G37*
%LPD*%
%LPC*%
G36*
X482743Y32384D02*
X482743Y32384D01*
X482912Y33454D01*
X483530Y35355D01*
X484437Y37137D01*
X485612Y38754D01*
X487026Y40168D01*
X488643Y41343D01*
X490425Y42250D01*
X492326Y42868D01*
X493396Y43037D01*
X493396Y32384D01*
X482743Y32384D01*
G37*
%LPD*%
%LPC*%
G36*
X497204Y28576D02*
X497204Y28576D01*
X507857Y28576D01*
X507688Y27506D01*
X507070Y25605D01*
X506163Y23823D01*
X504988Y22206D01*
X503574Y20792D01*
X501957Y19617D01*
X500175Y18710D01*
X498274Y18092D01*
X497204Y17923D01*
X497204Y28576D01*
G37*
%LPD*%
%LPC*%
G36*
X949324Y188596D02*
X949324Y188596D01*
X959977Y188596D01*
X959808Y187526D01*
X959190Y185625D01*
X958283Y183843D01*
X957108Y182226D01*
X955694Y180812D01*
X954077Y179637D01*
X952295Y178730D01*
X950394Y178112D01*
X949324Y177943D01*
X949324Y188596D01*
G37*
%LPD*%
%LPC*%
G36*
X934863Y192404D02*
X934863Y192404D01*
X935032Y193474D01*
X935650Y195375D01*
X936557Y197157D01*
X937732Y198774D01*
X939146Y200188D01*
X940763Y201363D01*
X942545Y202270D01*
X944446Y202888D01*
X945516Y203057D01*
X945516Y192404D01*
X934863Y192404D01*
G37*
%LPD*%
%LPC*%
G36*
X428624Y28576D02*
X428624Y28576D01*
X439277Y28576D01*
X439108Y27506D01*
X438490Y25605D01*
X437583Y23823D01*
X436408Y22206D01*
X434994Y20792D01*
X433377Y19617D01*
X431595Y18710D01*
X429694Y18092D01*
X428624Y17923D01*
X428624Y28576D01*
G37*
%LPD*%
%LPC*%
G36*
X885824Y140336D02*
X885824Y140336D01*
X896477Y140336D01*
X896308Y139266D01*
X895690Y137365D01*
X894783Y135583D01*
X893608Y133966D01*
X892194Y132552D01*
X890577Y131377D01*
X888795Y130470D01*
X886894Y129852D01*
X885824Y129683D01*
X885824Y140336D01*
G37*
%LPD*%
%LPC*%
G36*
X599006Y127312D02*
X599006Y127312D01*
X597105Y127930D01*
X595323Y128837D01*
X593706Y130012D01*
X592292Y131426D01*
X591117Y133043D01*
X590210Y134825D01*
X589592Y136726D01*
X589423Y137796D01*
X600076Y137796D01*
X600076Y127143D01*
X599006Y127312D01*
G37*
%LPD*%
%LPC*%
G36*
X492326Y18092D02*
X492326Y18092D01*
X490425Y18710D01*
X488643Y19617D01*
X487026Y20792D01*
X485612Y22206D01*
X484437Y23823D01*
X483530Y25605D01*
X482912Y27506D01*
X482743Y28576D01*
X493396Y28576D01*
X493396Y17923D01*
X492326Y18092D01*
G37*
%LPD*%
%LPC*%
G36*
X944446Y178112D02*
X944446Y178112D01*
X942545Y178730D01*
X940763Y179637D01*
X939146Y180812D01*
X937732Y182226D01*
X936557Y183843D01*
X935650Y185625D01*
X935032Y187526D01*
X934863Y188596D01*
X945516Y188596D01*
X945516Y177943D01*
X944446Y178112D01*
G37*
%LPD*%
%LPC*%
G36*
X880946Y129852D02*
X880946Y129852D01*
X879045Y130470D01*
X877263Y131377D01*
X875646Y132552D01*
X874232Y133966D01*
X873057Y135583D01*
X872150Y137365D01*
X871532Y139266D01*
X871363Y140336D01*
X882016Y140336D01*
X882016Y129683D01*
X880946Y129852D01*
G37*
%LPD*%
%LPC*%
G36*
X136726Y508312D02*
X136726Y508312D01*
X134825Y508930D01*
X133043Y509837D01*
X131426Y511012D01*
X130012Y512426D01*
X128837Y514043D01*
X127930Y515825D01*
X127312Y517726D01*
X127143Y518796D01*
X137796Y518796D01*
X137796Y508143D01*
X136726Y508312D01*
G37*
%LPD*%
%LPC*%
G36*
X423746Y18092D02*
X423746Y18092D01*
X421845Y18710D01*
X420063Y19617D01*
X418446Y20792D01*
X417032Y22206D01*
X415857Y23823D01*
X414950Y25605D01*
X414332Y27506D01*
X414163Y28576D01*
X424816Y28576D01*
X424816Y17923D01*
X423746Y18092D01*
G37*
%LPD*%
%LPC*%
G36*
X586739Y33019D02*
X586739Y33019D01*
X586739Y42165D01*
X586996Y42125D01*
X588783Y41544D01*
X590457Y40691D01*
X591977Y39586D01*
X593306Y38257D01*
X594411Y36737D01*
X595264Y35063D01*
X595845Y33276D01*
X595885Y33019D01*
X586739Y33019D01*
G37*
%LPD*%
%LPC*%
G36*
X901699Y33019D02*
X901699Y33019D01*
X901699Y42165D01*
X901956Y42125D01*
X903743Y41544D01*
X905417Y40691D01*
X906937Y39586D01*
X908266Y38257D01*
X909371Y36737D01*
X910224Y35063D01*
X910805Y33276D01*
X910845Y33019D01*
X901699Y33019D01*
G37*
%LPD*%
%LPC*%
G36*
X497839Y149859D02*
X497839Y149859D01*
X497839Y159005D01*
X498096Y158965D01*
X499883Y158384D01*
X501557Y157531D01*
X503077Y156426D01*
X504406Y155097D01*
X505511Y153577D01*
X506364Y151903D01*
X506945Y150116D01*
X506985Y149859D01*
X497839Y149859D01*
G37*
%LPD*%
%LPC*%
G36*
X901699Y27941D02*
X901699Y27941D01*
X910845Y27941D01*
X910805Y27684D01*
X910224Y25897D01*
X909371Y24223D01*
X908266Y22703D01*
X906937Y21374D01*
X905417Y20269D01*
X903743Y19416D01*
X901956Y18835D01*
X901699Y18795D01*
X901699Y27941D01*
G37*
%LPD*%
%LPC*%
G36*
X658875Y33019D02*
X658875Y33019D01*
X658915Y33276D01*
X659496Y35063D01*
X660349Y36737D01*
X661454Y38257D01*
X662783Y39586D01*
X664303Y40691D01*
X665977Y41544D01*
X667764Y42125D01*
X668021Y42165D01*
X668021Y33019D01*
X658875Y33019D01*
G37*
%LPD*%
%LPC*%
G36*
X521715Y33019D02*
X521715Y33019D01*
X521755Y33276D01*
X522336Y35063D01*
X523189Y36737D01*
X524294Y38257D01*
X525623Y39586D01*
X527143Y40691D01*
X528817Y41544D01*
X530604Y42125D01*
X530861Y42165D01*
X530861Y33019D01*
X521715Y33019D01*
G37*
%LPD*%
%LPC*%
G36*
X497839Y144781D02*
X497839Y144781D01*
X506985Y144781D01*
X506945Y144524D01*
X506364Y142737D01*
X505511Y141063D01*
X504406Y139543D01*
X503077Y138214D01*
X501557Y137109D01*
X499883Y136256D01*
X498096Y135675D01*
X497839Y135635D01*
X497839Y144781D01*
G37*
%LPD*%
%LPC*%
G36*
X249935Y248919D02*
X249935Y248919D01*
X249975Y249176D01*
X250556Y250963D01*
X251409Y252637D01*
X252514Y254157D01*
X253843Y255486D01*
X255363Y256591D01*
X257037Y257444D01*
X258824Y258025D01*
X259081Y258065D01*
X259081Y248919D01*
X249935Y248919D01*
G37*
%LPD*%
%LPC*%
G36*
X586739Y27941D02*
X586739Y27941D01*
X595885Y27941D01*
X595845Y27684D01*
X595264Y25897D01*
X594411Y24223D01*
X593306Y22703D01*
X591977Y21374D01*
X590457Y20269D01*
X588783Y19416D01*
X586996Y18835D01*
X586739Y18795D01*
X586739Y27941D01*
G37*
%LPD*%
%LPC*%
G36*
X530604Y18835D02*
X530604Y18835D01*
X528817Y19416D01*
X527143Y20269D01*
X525623Y21374D01*
X524294Y22703D01*
X523189Y24223D01*
X522336Y25897D01*
X521755Y27684D01*
X521715Y27941D01*
X530861Y27941D01*
X530861Y18795D01*
X530604Y18835D01*
G37*
%LPD*%
%LPC*%
G36*
X258824Y234735D02*
X258824Y234735D01*
X257037Y235316D01*
X255363Y236169D01*
X253843Y237274D01*
X252514Y238603D01*
X251409Y240123D01*
X250556Y241797D01*
X249975Y243584D01*
X249935Y243841D01*
X259081Y243841D01*
X259081Y234695D01*
X258824Y234735D01*
G37*
%LPD*%
%LPC*%
G36*
X667764Y18835D02*
X667764Y18835D01*
X665977Y19416D01*
X664303Y20269D01*
X662783Y21374D01*
X661454Y22703D01*
X660349Y24223D01*
X659496Y25897D01*
X658915Y27684D01*
X658875Y27941D01*
X668021Y27941D01*
X668021Y18795D01*
X667764Y18835D01*
G37*
%LPD*%
%LPC*%
G36*
X226059Y63499D02*
X226059Y63499D01*
X226059Y63501D01*
X226061Y63501D01*
X226061Y63499D01*
X226059Y63499D01*
G37*
%LPD*%
D10*
X325120Y434340D03*
X325120Y378460D03*
D11*
X584200Y30480D03*
X558800Y30480D03*
X533400Y30480D03*
D10*
X584200Y88900D03*
X558800Y88900D03*
X533400Y88900D03*
X571500Y774700D03*
X596900Y774700D03*
X723900Y774700D03*
X749300Y774700D03*
X622300Y774700D03*
X647700Y774700D03*
X698500Y774700D03*
X673100Y774700D03*
X749300Y850900D03*
X723900Y850900D03*
X698500Y850900D03*
X673100Y850900D03*
X647700Y850900D03*
X622300Y850900D03*
X596900Y850900D03*
X571500Y850900D03*
X139700Y698500D03*
X139700Y673100D03*
X139700Y546100D03*
X139700Y520700D03*
X139700Y647700D03*
X139700Y622300D03*
X139700Y571500D03*
X139700Y596900D03*
X215900Y520700D03*
X215900Y546100D03*
X215900Y571500D03*
X215900Y596900D03*
X215900Y622300D03*
X215900Y647700D03*
X215900Y673100D03*
X215900Y698500D03*
X266700Y520700D03*
X266700Y571500D03*
X266700Y647700D03*
X76200Y647700D03*
X678180Y139700D03*
X652780Y139700D03*
X627380Y139700D03*
X601980Y139700D03*
X406500Y647800D03*
X406500Y622400D03*
X406500Y597000D03*
X406500Y571600D03*
X406500Y546200D03*
X406500Y520800D03*
X406500Y495400D03*
X406500Y470000D03*
X406500Y444600D03*
X406500Y419200D03*
X406500Y393800D03*
X406500Y368400D03*
X406500Y343000D03*
X406500Y317600D03*
X406500Y292200D03*
X406500Y266800D03*
X406500Y241400D03*
X406500Y216000D03*
X406500Y190600D03*
X658400Y647800D03*
X658400Y622400D03*
X658400Y597000D03*
X658400Y571600D03*
X658400Y546200D03*
X658400Y520800D03*
X658400Y495400D03*
X658400Y470000D03*
X658400Y444600D03*
X658400Y419200D03*
X658400Y393800D03*
X658400Y368400D03*
X658400Y343000D03*
X658400Y317600D03*
X658400Y292200D03*
X658400Y266800D03*
X658400Y241400D03*
X658400Y216000D03*
X658400Y190600D03*
X881380Y381000D03*
X881380Y406400D03*
X881380Y431800D03*
X881380Y457200D03*
X881380Y482600D03*
X881380Y508000D03*
X881380Y533400D03*
X881380Y558800D03*
X881380Y584200D03*
X881380Y609600D03*
X881380Y635000D03*
X881380Y660400D03*
X881380Y685800D03*
X881380Y711200D03*
X805180Y711200D03*
X805180Y685800D03*
X805180Y660400D03*
X805180Y635000D03*
X805180Y609600D03*
X805180Y584200D03*
X805180Y558800D03*
X805180Y533400D03*
X805180Y508000D03*
X805180Y482600D03*
X805180Y457200D03*
X805180Y431800D03*
X805180Y406400D03*
X805180Y381000D03*
X784860Y279400D03*
X911860Y279400D03*
X911860Y241300D03*
X835660Y215900D03*
X883920Y142240D03*
X947420Y190500D03*
X952500Y317500D03*
X495300Y114300D03*
X325120Y495300D03*
X495300Y30480D03*
D12*
X269240Y63500D03*
X226060Y63500D03*
D11*
X312420Y246380D03*
X287020Y246380D03*
X261620Y246380D03*
D10*
X345440Y63500D03*
X426720Y30480D03*
D11*
X736600Y622300D03*
X736600Y596900D03*
X736600Y571500D03*
X736600Y546100D03*
X736600Y520700D03*
X736600Y495300D03*
X739140Y342900D03*
X739140Y317500D03*
X739140Y292100D03*
X739140Y266700D03*
D10*
X914400Y482600D03*
D11*
X469900Y147320D03*
X495300Y147320D03*
D10*
X325120Y464820D03*
D11*
X670560Y30480D03*
X695960Y30480D03*
X721360Y30480D03*
X746760Y30480D03*
X772160Y30480D03*
X797560Y30480D03*
X822960Y30480D03*
X848360Y30480D03*
X873760Y30480D03*
X899160Y30480D03*
D13*
X736600Y571500D02*
X724340Y571500D01*
X673640Y520800D01*
X658400Y520800D01*
X601980Y139700D02*
X589280Y139700D01*
X658400Y622400D02*
X736500Y622400D01*
X736600Y622300D01*
X736500Y597000D02*
X658400Y597000D01*
X736500Y597000D02*
X736600Y596900D01*
X680820Y470000D02*
X658400Y470000D01*
X693420Y482600D02*
X693420Y520700D01*
X718820Y546100D01*
X736600Y546100D01*
X693420Y482600D02*
X680820Y470000D01*
X663380Y449580D02*
X658400Y444600D01*
X663380Y449580D02*
X688340Y449580D01*
X711200Y472440D01*
X718820Y520700D02*
X736600Y520700D01*
X711200Y513080D02*
X711200Y472440D01*
X711200Y513080D02*
X718820Y520700D01*
X696060Y419200D02*
X658400Y419200D01*
X736600Y459740D02*
X736600Y495300D01*
X736600Y459740D02*
X696060Y419200D01*
X673000Y393800D02*
X658400Y393800D01*
X843280Y393700D02*
X855980Y406400D01*
X881380Y406400D01*
X718720Y393800D02*
X658400Y393800D01*
X833120Y347980D02*
X843280Y358140D01*
X843280Y393700D01*
X764540Y347980D02*
X718720Y393800D01*
X764540Y347980D02*
X833120Y347980D01*
X658400Y368400D02*
X645600Y368300D01*
X609600Y368300D02*
X596900Y381000D01*
X596900Y774700D01*
X609600Y368300D02*
X645600Y368300D01*
X658400Y343000D02*
X739040Y343000D01*
X739140Y342900D01*
X739040Y317600D02*
X658400Y317600D01*
X739040Y317600D02*
X739140Y317500D01*
X739040Y292200D02*
X658400Y292200D01*
X739040Y292200D02*
X739140Y292100D01*
X739040Y266800D02*
X658400Y266800D01*
X739040Y266800D02*
X739140Y266700D01*
X942340Y327660D02*
X942340Y530860D01*
X942340Y327660D02*
X952500Y317500D01*
X942340Y530860D02*
X929640Y543560D01*
X952500Y243840D02*
X924560Y215900D01*
X772160Y63500D01*
X929640Y784860D02*
X825500Y889000D01*
X596900Y889000D01*
X571500Y863600D02*
X571500Y850900D01*
X929640Y784860D02*
X929640Y543560D01*
X596900Y889000D02*
X571500Y863600D01*
X469900Y63500D02*
X772160Y63500D01*
X469900Y63500D02*
X406400Y127000D01*
X406400Y172720D01*
X228600Y889000D02*
X596900Y889000D01*
X228600Y889000D02*
X228600Y711200D01*
X215900Y698500D01*
X784860Y279400D02*
X784860Y241300D01*
X810260Y215900D01*
X835660Y215900D01*
X924560Y215900D01*
X919480Y533400D02*
X929640Y543560D01*
X919480Y533400D02*
X881380Y533400D01*
X294640Y88900D02*
X269240Y63500D01*
X294640Y88900D02*
X307340Y88900D01*
X312420Y93980D01*
X312420Y246380D01*
X345440Y63500D02*
X269240Y63500D01*
X345440Y63500D02*
X469900Y63500D01*
X406500Y172820D02*
X406500Y190600D01*
X406500Y172820D02*
X406400Y172720D01*
X952500Y243840D02*
X952500Y317500D01*
X678180Y139700D02*
X558800Y259080D01*
X558800Y533400D01*
X558800Y88900D02*
X533400Y88900D01*
X571500Y736600D02*
X571500Y774700D01*
X622300Y127000D02*
X678180Y127000D01*
X622300Y127000D02*
X584200Y88900D01*
X558800Y88900D01*
D10*
X139700Y749300D03*
D13*
X406400Y698500D02*
X533400Y698500D01*
X571500Y736600D01*
X495300Y114300D02*
X520700Y88900D01*
D14*
X678180Y127000D03*
X520700Y88900D03*
D10*
X406400Y698500D03*
D13*
X520700Y88900D02*
X533400Y88900D01*
X678180Y127000D02*
X678180Y139700D01*
X406500Y698400D02*
X406400Y698500D01*
X406500Y698400D02*
X406500Y647800D01*
X444400Y647800D01*
X558800Y533400D01*
X469900Y147320D02*
X469900Y124460D01*
X480060Y114300D02*
X495300Y114300D01*
X480060Y114300D02*
X469900Y124460D01*
X266700Y520700D02*
X215900Y520700D01*
X215900Y647700D02*
X266700Y647700D01*
X266700Y571500D02*
X215900Y571500D01*
X139700Y647700D02*
X76200Y647700D01*
X622300Y800100D02*
X635000Y812800D01*
X622300Y800100D02*
X622300Y774700D01*
X635000Y812800D02*
X843280Y812800D01*
X843280Y444500D02*
X855980Y431800D01*
X881380Y431800D01*
X843280Y444500D02*
X843280Y812800D01*
X911860Y279400D02*
X911860Y241300D01*
X906780Y457200D02*
X881380Y457200D01*
X906780Y457200D02*
X911860Y452120D01*
X911860Y279400D01*
X914400Y482600D02*
X881380Y482600D01*
X393700Y596900D02*
X317500Y673100D01*
X215900Y673100D01*
X393700Y596900D02*
X406400Y596900D01*
X406500Y597000D01*
X393700Y571500D02*
X368300Y596900D01*
X215900Y596900D01*
X393700Y571500D02*
X406400Y571500D01*
X406500Y571600D01*
X216000Y546200D02*
X215900Y546100D01*
X216000Y546200D02*
X406500Y546200D01*
X203200Y469900D02*
X177800Y495300D01*
X203200Y469900D02*
X266700Y469900D01*
X165100Y673100D02*
X139700Y673100D01*
X165100Y673100D02*
X177800Y660400D01*
X177800Y495300D01*
X317600Y520800D02*
X406500Y520800D01*
X317600Y520800D02*
X266700Y469900D01*
X325120Y495300D02*
X325220Y495400D01*
X325120Y495300D02*
X406400Y495300D01*
X406500Y495400D01*
X386080Y464820D02*
X325120Y464820D01*
X391260Y470000D02*
X406500Y470000D01*
X391260Y470000D02*
X386080Y464820D01*
X381000Y434340D02*
X325120Y434340D01*
X391260Y444600D02*
X406500Y444600D01*
X391260Y444600D02*
X381000Y434340D01*
X365860Y419200D02*
X406500Y419200D01*
X365860Y419200D02*
X325120Y378460D01*
X520700Y271780D02*
X652780Y139700D01*
X520700Y271780D02*
X520700Y368300D01*
X495200Y393800D02*
X406500Y393800D01*
X495200Y393800D02*
X520700Y368300D01*
X495300Y271780D02*
X627380Y139700D01*
X482500Y368400D02*
X406500Y368400D01*
X495300Y355600D02*
X495300Y271780D01*
X495300Y355600D02*
X482500Y368400D01*
X406500Y292200D02*
X320140Y292200D01*
X287020Y259080D01*
X287020Y246380D01*
M02*
